SplineFontDB: 1.0
FontName: THSarabunPSK
FullName: THSarabunPSK
FamilyName: TH SarabunPSK
Weight: Book
Copyright: Copyright (c) 2006 by Department of Intellectual Property (DIP), Ministry of Commerce and Software Industry Promotion Agency (Public Organization) (SIPA). All rights reserved.\nCreated by : Suppakit CHALERMLARP.
Version: 1.1
ItalicAngle: 0
UnderlinePosition: -35
UnderlineWidth: 30
Ascent: 800
Descent: 200
Order2: 1
XUID: [1021 375 425136265 14589473]
FSType: 0
OS2Version: 3
OS2_WeightWidthSlopeOnly: 0
OS2_UseTypoMetrics: 1
CreationTime: 1158862012
ModificationTime: 1174407380
PfmFamily: 17
TTFWeight: 400
TTFWidth: 5
LineGap: 30
VLineGap: 0
Panose: 2 11 5 0 4 2 0 2 0 3
OS2TypoAscent: 50
OS2TypoAOffset: 1
OS2TypoDescent: -50
OS2TypoDOffset: 1
OS2TypoLinegap: 0
OS2WinAscent: 14
OS2WinAOffset: 1
OS2WinDescent: -171
OS2WinDOffset: 1
HheadAscent: 14
HheadAOffset: 1
HheadDescent: 171
HheadDOffset: 1
OS2SubXSize: 700
OS2SubYSize: 650
OS2SubXOff: 0
OS2SubYOff: 140
OS2SupXSize: 700
OS2SupYSize: 650
OS2SupXOff: 0
OS2SupYOff: 477
OS2StrikeYSize: 30
OS2StrikeYPos: 250
OS2FamilyClass: 2053
OS2Vendor: 'psk '
ScriptLang: 2
 1 latn 1 dflt 
 0 
MarkAttachClasses: 1
ChainSub: coverage 0 0 'liga' 0 0 0 1
 1 0 1
  Coverage: 64 uni0E48.alt2 uni0E49.alt2 uni0E4A.alt2 uni0E4B.alt2 uni0E4C.alt2
  FCoverage: 7 uni0E33
 1
  SeqLookup: 0 'L056'
EndFPST
ChainSub: coverage 0 0 'liga' 0 0 0 1
 1 1 0
  Coverage: 7 uni0E47
  BCoverage: 12 uni0E2C.alt1
 1
  SeqLookup: 0 'L055'
EndFPST
ChainSub: coverage 0 0 'liga' 0 0 0 1
 1 0 1
  Coverage: 7 uni0E2C
  FCoverage: 39 uni0E34 uni0E35 uni0E36 uni0E37 uni0E47
 1
  SeqLookup: 0 'L055'
EndFPST
ChainSub: coverage 0 0 'liga' 0 0 0 1
 1 0 1
  Coverage: 15 uni0E0E uni0E0F
  FCoverage: 38 uni0E38.alt1 uni0E39.alt1 uni0E3A.alt1
 1
  SeqLookup: 0 'L055'
EndFPST
ChainSub: coverage 0 0 'liga' 0 0 0 1
 1 1 0
  Coverage: 5 a b c
  BCoverage: 23 uni0E1B uni0E1D uni0E1F
 1
  SeqLookup: 0 'L055'
EndFPST
ChainSub: coverage 0 0 'liga' 0 0 0 1
 1 0 1

StartChar: .notdef
Encoding: 65536 -1 0
Width: 692
Flags: W
Fore
642 0 m 1,0,-1
 50 0 l 1,1,-1
 50 809 l 1,2,-1
 642 809 l 1,3,-1
 642 0 l 1,0,-1
612 28 m 1,4,-1
 612 781 l 1,5,-1
 80 781 l 1,6,-1
 80 28 l 1,7,-1
 612 28 l 1,4,-1
EndSplineSet
EndChar
StartChar: exclam
Encoding: 33 33 2
Width: 147
Flags: W
Fore
88 120 m 1,0,-1
 56 120 l 1,1,-1
 49 475 l 1,2,-1
 96 475 l 1,3,-1
 88 120 l 1,0,-1
107 28 m 256,4,5
 107 14 107 14 96.5 4 c 128,-1,6
 86 -6 86 -6 72 -6 c 256,7,8
 58 -6 58 -6 48 4 c 128,-1,9
 38 14 38 14 38 28 c 256,10,11
 38 42 38 42 48 52.5 c 128,-1,12
 58 63 58 63 72 63 c 256,13,14
 86 63 86 63 96.5 52.5 c 128,-1,15
 107 42 107 42 107 28 c 256,4,5
EndSplineSet
EndChar
StartChar: quotedbl
Encoding: 34 34 3
Width: 208
Flags: W
Fore
161 338 m 1,0,-1
 134 338 l 1,1,-1
 124 499 l 1,2,-1
 171 499 l 1,3,-1
 161 338 l 1,0,-1
74 338 m 1,4,-1
 47 338 l 1,5,-1
 37 499 l 1,6,-1
 84 499 l 1,7,-1
 74 338 l 1,4,-1
EndSplineSet
EndChar
StartChar: numbersign
Encoding: 35 35 4
Width: 403
Flags: W
Fore
361 149 m 1,0,-1
 289 149 l 1,1,-1
 270 0 l 1,2,-1
 235 0 l 1,3,-1
 254 149 l 1,4,-1
 126 149 l 1,5,-1
 108 0 l 1,6,-1
 73 0 l 1,7,-1
 91 149 l 1,8,-1
 27 149 l 1,9,-1
 27 180 l 1,10,-1
 95 180 l 1,11,-1
 109 299 l 1,12,-1
 41 299 l 1,13,-1
 41 331 l 1,14,-1
 113 331 l 1,15,-1
 132 475 l 1,16,-1
 165 475 l 1,17,-1
 147 331 l 1,18,-1
 276 331 l 1,19,-1
 293 475 l 1,20,-1
 328 475 l 1,21,-1
 310 331 l 1,22,-1
 375 331 l 1,23,-1
 375 299 l 1,24,-1
 306 299 l 1,25,-1
 292 180 l 1,26,-1
 361 180 l 1,27,-1
 361 149 l 1,0,-1
258 180 m 1,28,-1
 272 299 l 1,29,-1
 143 299 l 1,30,-1
 130 180 l 1,31,-1
 258 180 l 1,28,-1
EndSplineSet
EndChar
StartChar: dollar
Encoding: 36 36 5
Width: 361
Flags: W
Fore
308 133 m 0,0,1
 308 93 308 93 281 61 c 0,2,3
 250 26 250 26 196 16 c 1,4,-1
 196 -58 l 1,5,-1
 161 -58 l 1,6,-1
 161 16 l 1,7,8
 97 16 97 16 52 51 c 1,9,-1
 70 82 l 1,10,11
 110 48 110 48 170 48 c 0,12,13
 215 48 215 48 242.5 71.5 c 128,-1,14
 270 95 270 95 270 131 c 0,15,16
 270 189 270 189 182 226 c 0,17,18
 62 276 62 276 62 350 c 0,19,20
 62 393 62 393 91 423 c 128,-1,21
 120 453 120 453 169 460 c 1,22,-1
 169 536 l 1,23,-1
 203 536 l 1,24,-1
 203 460 l 1,25,26
 252 457 252 457 295 431 c 1,27,-1
 277 399 l 1,28,29
 243 428 243 428 187 428 c 0,30,31
 143 428 143 428 119 403 c 0,32,33
 99 383 99 383 99 355 c 0,34,35
 99 325 99 325 120 305.5 c 128,-1,36
 141 286 141 286 193 263 c 0,37,38
 252 237 252 237 277 212 c 0,39,40
 308 180 308 180 308 133 c 0,0,1
EndSplineSet
EndChar
StartChar: percent
Encoding: 37 37 6
Width: 585
Flags: W
Fore
453 476 m 1,0,-1
 163 -9 l 1,1,-1
 129 -9 l 1,2,-1
 419 476 l 1,3,-1
 453 476 l 1,0,-1
248 334 m 256,4,5
 248 192 248 192 141 192 c 256,6,7
 34 192 34 192 34 334 c 256,8,9
 34 476 34 476 141 476 c 256,10,11
 248 476 248 476 248 334 c 256,4,5
212 334 m 256,12,13
 212 444 212 444 141 444 c 256,14,15
 70 444 70 444 70 334 c 256,16,17
 70 224 70 224 141 224 c 256,18,19
 212 224 212 224 212 334 c 256,12,13
550 139 m 256,20,21
 550 -3 550 -3 443 -3 c 256,22,23
 336 -3 336 -3 336 139 c 256,24,25
 336 281 336 281 443 281 c 256,26,27
 550 281 550 281 550 139 c 256,20,21
514 139 m 256,28,29
 514 249 514 249 443 249 c 256,30,31
 372 249 372 249 372 139 c 256,32,33
 372 29 372 29 443 29 c 256,34,35
 514 29 514 29 514 139 c 256,28,29
EndSplineSet
EndChar
StartChar: ampersand
Encoding: 38 38 7
Width: 423
Flags: W
Fore
413 256 m 1,0,1
 389 129 389 129 346 80 c 1,2,3
 384 42 384 42 430 0 c 1,4,-1
 380 0 l 1,5,6
 361 18 361 18 324 53 c 1,7,8
 250 -9 250 -9 163 -9 c 0,9,10
 103 -9 103 -9 61 30.5 c 128,-1,11
 19 70 19 70 19 128 c 0,12,13
 19 223 19 223 120 273 c 1,14,15
 77 330 77 330 77 375 c 0,16,17
 77 423 77 423 109 458 c 128,-1,18
 141 493 141 493 195 493 c 0,19,20
 239 493 239 493 267 465.5 c 128,-1,21
 295 438 295 438 295 395 c 0,22,23
 295 315 295 315 173 260 c 1,24,25
 231 196 231 196 323 101 c 1,26,27
 357 147 357 147 376 256 c 1,28,-1
 413 256 l 1,0,1
260 391 m 0,29,30
 260 420 260 420 244 440 c 0,31,32
 225 463 225 463 191 463 c 0,33,34
 156 463 156 463 135 438 c 128,-1,35
 114 413 114 413 114 379 c 0,36,37
 114 340 114 340 156 285 c 1,38,39
 260 335 260 335 260 391 c 0,29,30
301 77 m 1,40,41
 210 168 210 168 140 248 c 1,42,43
 57 204 57 204 57 133 c 0,44,45
 57 84 57 84 90 53.5 c 128,-1,46
 123 23 123 23 172 23 c 0,47,48
 247 23 247 23 301 77 c 1,40,41
EndSplineSet
EndChar
StartChar: quotesingle
Encoding: 39 39 8
Width: 120
Flags: W
Fore
74 338 m 1,0,-1
 47 338 l 1,1,-1
 37 499 l 1,2,-1
 83 499 l 1,3,-1
 74 338 l 1,0,-1
EndSplineSet
EndChar
StartChar: parenleft
Encoding: 40 40 9
Width: 190
Flags: W
Fore
169 -58 m 1,0,-1
 131 -58 l 1,1,2
 20 63 20 63 20 234 c 0,3,4
 20 396 20 396 130 532 c 1,5,-1
 170 532 l 1,6,7
 58 404 58 404 58 234 c 0,8,9
 58 75 58 75 169 -58 c 1,0,-1
EndSplineSet
EndChar
StartChar: parenright
Encoding: 41 41 10
Width: 190
Flags: W
Fore
169 237 m 0,0,1
 169 71 169 71 58 -58 c 1,2,-1
 20 -58 l 1,3,4
 131 81 131 81 131 237 c 0,5,6
 131 395 131 395 20 532 c 1,7,-1
 58 532 l 1,8,9
 169 407 169 407 169 237 c 0,0,1
EndSplineSet
EndChar
StartChar: asterisk
Encoding: 42 42 11
Width: 285
Flags: W
Fore
267 356 m 1,0,-1
 164 365 l 1,1,-1
 228 279 l 1,2,-1
 195 258 l 1,3,-1
 142 357 l 1,4,-1
 90 258 l 1,5,-1
 57 279 l 1,6,-1
 121 365 l 1,7,-1
 18 356 l 1,8,-1
 18 394 l 1,9,-1
 121 387 l 1,10,-1
 57 472 l 1,11,-1
 95 494 l 1,12,-1
 143 402 l 1,13,-1
 190 494 l 1,14,-1
 228 472 l 1,15,-1
 164 387 l 1,16,-1
 267 394 l 1,17,-1
 267 356 l 1,0,-1
EndSplineSet
EndChar
StartChar: plus
Encoding: 43 43 12
Width: 411
Flags: W
Fore
373 165 m 1,0,-1
 223 165 l 1,1,-1
 223 0 l 1,2,-1
 188 0 l 1,3,-1
 188 165 l 1,4,-1
 38 165 l 1,5,-1
 38 198 l 1,6,-1
 188 198 l 1,7,-1
 188 357 l 1,8,-1
 223 357 l 1,9,-1
 223 198 l 1,10,-1
 373 198 l 1,11,-1
 373 165 l 1,0,-1
EndSplineSet
EndChar
StartChar: comma
Encoding: 44 44 13
Width: 162
Flags: W
Fore
123 27 m 0,0,1
 121 -27 121 -27 90 -68 c 0,2,3
 69 -97 69 -97 44 -109 c 1,4,-1
 30 -94 l 1,5,6
 82 -59 82 -59 88 -7 c 1,7,8
 72 -7 72 -7 60.5 4 c 128,-1,9
 49 15 49 15 49 30 c 256,10,11
 49 45 49 45 60 56.5 c 128,-1,12
 71 68 71 68 86 68 c 0,13,14
 102 68 102 68 112.5 56 c 128,-1,15
 123 44 123 44 123 27 c 0,0,1
EndSplineSet
EndChar
StartChar: hyphen
Encoding: 173 45 14
AltUni: 173
Width: 216
Flags: W
Fore
195 165 m 1,0,-1
 20 165 l 1,1,-1
 20 198 l 1,2,-1
 195 198 l 1,3,-1
 195 165 l 1,0,-1
EndSplineSet
EndChar
StartChar: period
Encoding: 46 46 15
Width: 162
Flags: W
Fore
115 28 m 256,0,1
 115 14 115 14 104.5 4 c 128,-1,2
 94 -6 94 -6 80 -6 c 256,3,4
 66 -6 66 -6 56 4 c 128,-1,5
 46 14 46 14 46 28 c 256,6,7
 46 42 46 42 56 52.5 c 128,-1,8
 66 63 66 63 80 63 c 256,9,10
 94 63 94 63 104.5 52.5 c 128,-1,11
 115 42 115 42 115 28 c 256,0,1
EndSplineSet
EndChar
StartChar: slash
Encoding: 47 47 16
Width: 270
Flags: W
Fore
278 493 m 1,0,-1
 20 -29 l 1,1,-1
 -18 -29 l 1,2,-1
 237 493 l 1,3,-1
 278 493 l 1,0,-1
EndSplineSet
EndChar
StartChar: zero
Encoding: 48 48 17
Width: 362
Flags: W
Fore
330 227 m 0,0,1
 330 144 330 144 298 76 c 0,2,3
 257 -11 257 -11 181 -11 c 0,4,5
 104 -11 104 -11 63 76 c 0,6,7
 31 143 31 143 31 227 c 0,8,9
 31 328 31 328 66 398 c 0,10,11
 107 479 107 479 181 479 c 256,12,13
 255 479 255 479 296 398 c 0,14,15
 330 328 330 328 330 227 c 0,0,1
290 228 m 0,16,17
 290 315 290 315 265 375 c 0,18,19
 235 445 235 445 181 445 c 0,20,21
 126 445 126 445 96 375 c 0,22,23
 71 316 71 316 71 228 c 0,24,25
 71 156 71 156 95 98 c 0,26,27
 125 23 125 23 181 23 c 0,28,29
 236 23 236 23 266 98 c 0,30,31
 290 156 290 156 290 228 c 0,16,17
EndSplineSet
EndChar
StartChar: one
Encoding: 49 49 18
Width: 362
Flags: W
Fore
287 0 m 1,0,-1
 97 0 l 1,1,-1
 97 36 l 1,2,-1
 172 36 l 1,3,-1
 172 417 l 1,4,-1
 97 352 l 1,5,-1
 75 377 l 1,6,-1
 190 478 l 1,7,8
 212 478 212 478 212 440 c 2,9,-1
 212 36 l 1,10,-1
 287 36 l 1,11,-1
 287 0 l 1,0,-1
EndSplineSet
EndChar
StartChar: two
Encoding: 50 50 19
Width: 362
Flags: W
Fore
335 39 m 1,0,-1
 327 0 l 1,1,-1
 26 0 l 1,2,3
 30 25 30 25 40 57 c 1,4,5
 83 101 83 101 135 151 c 128,-1,6
 187 201 187 201 251 278 c 0,7,8
 283 321 283 321 283 360 c 256,9,10
 283 399 283 399 258 420 c 128,-1,11
 233 441 233 441 193 441 c 0,12,13
 103 441 103 441 91 351 c 1,14,-1
 55 361 l 1,15,16
 61 419 61 419 101 450 c 0,17,18
 137 478 137 478 194 478 c 0,19,20
 250 478 250 478 286.5 443.5 c 128,-1,21
 323 409 323 409 323 357 c 0,22,23
 323 281 323 281 203 166 c 0,24,25
 116 80 116 80 80 39 c 1,26,-1
 335 39 l 1,0,-1
EndSplineSet
EndChar
StartChar: three
Encoding: 51 51 20
Width: 362
Flags: W
Fore
328 161 m 0,0,1
 328 85 328 85 276 38 c 128,-1,2
 224 -9 224 -9 142 -11 c 0,3,4
 76 -13 76 -13 34 26 c 1,5,-1
 51 57 l 1,6,7
 88 29 88 29 148 29 c 0,8,9
 206 29 206 29 247 68 c 128,-1,10
 288 107 288 107 288 159 c 0,11,12
 288 198 288 198 264 224 c 128,-1,13
 240 250 240 250 203 250 c 0,14,15
 160 250 160 250 136 227 c 1,16,-1
 117 259 l 1,17,18
 155 288 155 288 193 318 c 0,19,20
 250 366 250 366 250 393 c 0,21,22
 250 442 250 442 182 442 c 0,23,24
 107 442 107 442 70 367 c 1,25,-1
 42 382 l 1,26,27
 58 426 58 426 97 452 c 128,-1,28
 136 478 136 478 185 478 c 0,29,30
 227 478 227 478 257 455.5 c 128,-1,31
 287 433 287 433 287 394 c 0,32,33
 287 348 287 348 205 286 c 1,34,-1
 211 286 l 2,35,36
 264 286 264 286 296 250.5 c 128,-1,37
 328 215 328 215 328 161 c 0,0,1
EndSplineSet
EndChar
StartChar: four
Encoding: 52 52 21
Width: 362
Flags: W
Fore
234 148 m 1,0,-1
 234 437 l 1,1,2
 165 403 165 403 120 318 c 0,3,4
 77 237 77 237 75 148 c 1,5,-1
 234 148 l 1,0,-1
274 148 m 1,6,-1
 345 148 l 1,7,-1
 340 111 l 1,8,-1
 274 111 l 1,9,-1
 274 0 l 1,10,-1
 234 0 l 1,11,-1
 234 111 l 1,12,-1
 32 111 l 1,13,14
 34 260 34 260 99.5 363 c 128,-1,15
 165 466 165 466 274 488 c 1,16,-1
 274 148 l 1,6,-1
EndSplineSet
EndChar
StartChar: five
Encoding: 53 53 22
Width: 362
Flags: W
Fore
318 164 m 0,0,1
 318 87 318 87 266 39.5 c 128,-1,2
 214 -8 214 -8 132 -8 c 0,3,4
 63 -8 63 -8 24 29 c 1,5,-1
 41 60 l 1,6,7
 55 51 55 51 71 43 c 0,8,9
 99 30 99 30 140 30 c 0,10,11
 194 30 194 30 235.5 65 c 128,-1,12
 277 100 277 100 277 163 c 0,13,14
 277 217 277 217 241 244 c 0,15,16
 211 268 211 268 163 268 c 0,17,18
 121 268 121 268 96 235 c 1,19,-1
 75 233 l 1,20,-1
 90 475 l 1,21,-1
 303 475 l 1,22,-1
 296 437 l 1,23,-1
 128 437 l 1,24,-1
 119 296 l 1,25,26
 145 306 145 306 175 306 c 0,27,28
 233 306 233 306 274 270 c 0,29,30
 318 230 318 230 318 164 c 0,0,1
EndSplineSet
EndChar
StartChar: six
Encoding: 54 54 23
Width: 362
Flags: W
Fore
322 145 m 0,0,1
 322 80 322 80 285.5 36 c 128,-1,2
 249 -8 249 -8 186 -8 c 0,3,4
 115 -8 115 -8 74 46 c 0,5,6
 38 94 38 94 38 167 c 0,7,8
 38 282 38 282 109 372.5 c 128,-1,9
 180 463 180 463 290 484 c 1,10,-1
 293 455 l 1,11,12
 226 436 226 436 171 384 c 0,13,14
 109 326 109 326 86 246 c 1,15,16
 90 261 90 261 115 278 c 0,17,18
 147 298 147 298 189 298 c 0,19,20
 248 298 248 298 285 253 c 128,-1,21
 322 208 322 208 322 145 c 0,0,1
282 145 m 0,22,23
 282 195 282 195 255 230 c 128,-1,24
 228 265 228 265 181 265 c 0,25,26
 138 265 138 265 108 230 c 128,-1,27
 78 195 78 195 78 145 c 0,28,29
 78 96 78 96 108 61 c 128,-1,30
 138 26 138 26 181 26 c 0,31,32
 229 26 229 26 255.5 61 c 128,-1,33
 282 96 282 96 282 145 c 0,22,23
EndSplineSet
EndChar
StartChar: seven
Encoding: 55 55 24
Width: 362
Flags: W
Fore
173 0 m 1,0,-1
 131 0 l 1,1,2
 131 151 131 151 191 289 c 0,3,4
 205 321 205 321 239 378.5 c 128,-1,5
 273 436 273 436 274 437 c 1,6,-1
 33 437 l 1,7,-1
 48 475 l 1,8,-1
 329 475 l 1,9,-1
 321 435 l 1,10,11
 254 347 254 347 213.5 244.5 c 128,-1,12
 173 142 173 142 173 0 c 1,0,-1
EndSplineSet
EndChar
StartChar: eight
Encoding: 56 56 25
Width: 362
Flags: W
Fore
288 125 m 0,0,1
 288 164 288 164 261 199.5 c 128,-1,2
 234 235 234 235 180 238 c 0,3,4
 127 235 127 235 100 199.5 c 128,-1,5
 73 164 73 164 73 125 c 0,6,7
 73 80 73 80 103.5 53.5 c 128,-1,8
 134 27 134 27 181 27 c 0,9,10
 227 27 227 27 257.5 53.5 c 128,-1,11
 288 80 288 80 288 125 c 0,0,1
273 361 m 0,12,13
 273 396 273 396 248 419 c 128,-1,14
 223 442 223 442 181 442 c 0,15,16
 138 442 138 442 113 419 c 128,-1,17
 88 396 88 396 88 361 c 0,18,19
 88 299 88 299 180 276 c 1,20,21
 273 299 273 299 273 361 c 0,12,13
328 128 m 0,22,23
 328 64 328 64 288 28 c 128,-1,24
 248 -8 248 -8 180 -8 c 0,25,26
 113 -8 113 -8 73 28 c 128,-1,27
 33 64 33 64 33 128 c 0,28,29
 33 177 33 177 61.5 212.5 c 128,-1,30
 90 248 90 248 134 257 c 1,31,32
 97 268 97 268 72.5 296.5 c 128,-1,33
 48 325 48 325 48 358 c 0,34,35
 48 411 48 411 85 445 c 128,-1,36
 122 479 122 479 181 479 c 0,37,38
 239 479 239 479 276 445 c 128,-1,39
 313 411 313 411 313 358 c 0,40,41
 313 325 313 325 288.5 296.5 c 128,-1,42
 264 268 264 268 227 257 c 1,43,44
 271 248 271 248 299.5 212.5 c 128,-1,45
 328 177 328 177 328 128 c 0,22,23
EndSplineSet
EndChar
StartChar: nine
Encoding: 57 57 26
Width: 362
Flags: W
Fore
322 305 m 0,0,1
 322 190 322 190 251 99.5 c 128,-1,2
 180 9 180 9 70 -12 c 1,3,-1
 67 17 l 1,4,5
 134 36 134 36 189 88 c 0,6,7
 251 146 251 146 274 226 c 1,8,9
 270 211 270 211 245 194 c 0,10,11
 213 174 213 174 171 174 c 0,12,13
 112 174 112 174 75 219 c 128,-1,14
 38 264 38 264 38 327 c 0,15,16
 38 392 38 392 74.5 436 c 128,-1,17
 111 480 111 480 174 480 c 0,18,19
 245 480 245 480 286 426 c 0,20,21
 322 378 322 378 322 305 c 0,0,1
282 327 m 0,22,23
 282 376 282 376 252 411 c 128,-1,24
 222 446 222 446 179 446 c 0,25,26
 131 446 131 446 104.5 411 c 128,-1,27
 78 376 78 376 78 327 c 0,28,29
 78 277 78 277 105 242 c 128,-1,30
 132 207 132 207 179 207 c 0,31,32
 222 207 222 207 252 242 c 128,-1,33
 282 277 282 277 282 327 c 0,22,23
EndSplineSet
EndChar
StartChar: colon
Encoding: 58 58 27
Width: 162
Flags: W
Fore
115 28 m 256,0,1
 115 14 115 14 104.5 4 c 128,-1,2
 94 -6 94 -6 80 -6 c 256,3,4
 66 -6 66 -6 56 4 c 128,-1,5
 46 14 46 14 46 28 c 256,6,7
 46 42 46 42 56 52.5 c 128,-1,8
 66 63 66 63 80 63 c 256,9,10
 94 63 94 63 104.5 52.5 c 128,-1,11
 115 42 115 42 115 28 c 256,0,1
115 283 m 256,12,13
 115 269 115 269 104.5 259 c 128,-1,14
 94 249 94 249 80 249 c 256,15,16
 66 249 66 249 56 259 c 128,-1,17
 46 269 46 269 46 283 c 256,18,19
 46 297 46 297 56 307.5 c 128,-1,20
 66 318 66 318 80 318 c 256,21,22
 94 318 94 318 104.5 307.5 c 128,-1,23
 115 297 115 297 115 283 c 256,12,13
EndSplineSet
EndChar
StartChar: semicolon
Encoding: 59 59 28
Width: 162
Flags: W
Fore
123 27 m 0,0,1
 121 -27 121 -27 90 -68 c 0,2,3
 69 -97 69 -97 44 -109 c 1,4,-1
 30 -94 l 1,5,6
 82 -59 82 -59 88 -7 c 1,7,8
 72 -7 72 -7 60.5 4 c 128,-1,9
 49 15 49 15 49 30 c 256,10,11
 49 45 49 45 60 56.5 c 128,-1,12
 71 68 71 68 86 68 c 0,13,14
 102 68 102 68 112.5 56 c 128,-1,15
 123 44 123 44 123 27 c 0,0,1
115 283 m 256,16,17
 115 269 115 269 104.5 259 c 128,-1,18
 94 249 94 249 80 249 c 256,19,20
 66 249 66 249 56 259 c 128,-1,21
 46 269 46 269 46 283 c 256,22,23
 46 297 46 297 56 307.5 c 128,-1,24
 66 318 66 318 80 318 c 256,25,26
 94 318 94 318 104.5 307.5 c 128,-1,27
 115 297 115 297 115 283 c 256,16,17
EndSplineSet
EndChar
StartChar: less
Encoding: 60 60 29
Width: 411
Flags: W
Fore
366 36 m 1,0,-1
 366 -2 l 1,1,-1
 44 174 l 1,2,-1
 44 201 l 1,3,-1
 366 377 l 1,4,-1
 366 340 l 1,5,-1
 84 187 l 1,6,-1
 366 36 l 1,0,-1
EndSplineSet
EndChar
StartChar: equal
Encoding: 61 61 30
Width: 411
Flags: W
Fore
356 265 m 1,0,-1
 356 232 l 1,1,-1
 55 232 l 1,2,-1
 55 265 l 1,3,-1
 356 265 l 1,0,-1
356 135 m 1,4,-1
 356 102 l 1,5,-1
 55 102 l 1,6,-1
 55 135 l 1,7,-1
 356 135 l 1,4,-1
EndSplineSet
EndChar
StartChar: greater
Encoding: 62 62 31
Width: 411
Flags: W
Fore
366 201 m 1,0,-1
 366 174 l 1,1,-1
 44 -2 l 1,2,-1
 44 36 l 1,3,-1
 326 188 l 1,4,-1
 44 340 l 1,5,-1
 44 377 l 1,6,-1
 366 201 l 1,0,-1
EndSplineSet
EndChar
StartChar: question
Encoding: 63 63 32
Width: 283
Flags: W
Fore
138 123 m 1,0,-1
 104 123 l 1,1,2
 99 138 99 138 99 158 c 0,3,4
 99 211 99 211 153.5 272 c 128,-1,5
 208 333 208 333 208 376 c 0,6,7
 208 448 208 448 126 448 c 0,8,9
 79 448 79 448 46 422 c 1,10,-1
 31 452 l 1,11,12
 79 483 79 483 133 483 c 0,13,14
 190 483 190 483 220 450 c 0,15,16
 247 421 247 421 247 378 c 0,17,18
 247 325 247 325 184 258 c 0,19,20
 135 206 135 206 135 155 c 0,21,22
 135 137 135 137 138 123 c 1,0,-1
154 28 m 256,23,24
 154 14 154 14 143.5 4 c 128,-1,25
 133 -6 133 -6 119 -6 c 256,26,27
 105 -6 105 -6 95 4 c 128,-1,28
 85 14 85 14 85 28 c 256,29,30
 85 42 85 42 95 52.5 c 128,-1,31
 105 63 105 63 119 63 c 256,32,33
 133 63 133 63 143.5 52.5 c 128,-1,34
 154 42 154 42 154 28 c 256,23,24
EndSplineSet
EndChar
StartChar: at
Encoding: 64 64 33
Width: 536
Flags: W
Fore
510 176 m 0,0,1
 510 108 510 108 468 60 c 128,-1,2
 426 12 426 12 377 9 c 2,3,-1
 346 7 l 1,4,-1
 336 52 l 1,5,6
 296 1 296 1 230 1 c 0,7,8
 218 1 218 1 211 2 c 0,9,10
 179 7 179 7 156.5 30 c 128,-1,11
 134 53 134 53 134 83 c 0,12,13
 134 195 134 195 334 195 c 1,14,-1
 334 200 l 2,15,16
 334 285 334 285 253 285 c 0,17,18
 209 285 209 285 178 261 c 1,19,-1
 167 286 l 1,20,21
 206 315 206 315 255 315 c 0,22,23
 369 315 369 315 369 188 c 2,24,-1
 369 81 l 2,25,26
 369 59 369 59 373 40 c 1,27,28
 412 42 412 42 444 81 c 128,-1,29
 476 120 476 120 476 173 c 0,30,31
 476 256 476 256 424 310.5 c 128,-1,32
 372 365 372 365 283 365 c 0,33,34
 189 365 189 365 127 303 c 0,35,36
 61 237 61 237 61 133 c 0,37,38
 61 47 61 47 116 -9.5 c 128,-1,39
 171 -66 171 -66 252 -66 c 0,40,41
 321 -66 321 -66 369 -36 c 1,42,-1
 383 -65 l 1,43,44
 323 -97 323 -97 249 -97 c 0,45,46
 155 -97 155 -97 89 -33 c 128,-1,47
 23 31 23 31 23 130 c 0,48,49
 23 239 23 239 93 314 c 0,50,51
 167 394 167 394 288 394 c 0,52,53
 388 394 388 394 449 332 c 128,-1,54
 510 270 510 270 510 176 c 0,0,1
334 105 m 2,55,-1
 334 166 l 1,56,57
 171 164 171 164 171 89 c 0,58,59
 171 29 171 29 232 29 c 0,60,61
 304 29 304 29 332 92 c 0,62,63
 334 96 334 96 334 105 c 2,55,-1
EndSplineSet
EndChar
StartChar: A
Encoding: 65 65 34
Width: 400
Flags: W
Fore
400 0 m 1,0,-1
 357 0 l 1,1,-1
 302 153 l 1,2,-1
 97 153 l 1,3,-1
 43 0 l 1,4,-1
 0 0 l 1,5,-1
 180 483 l 1,6,-1
 220 483 l 1,7,-1
 400 0 l 1,0,-1
290 186 m 1,8,-1
 200 440 l 1,9,-1
 109 186 l 1,10,-1
 290 186 l 1,8,-1
EndSplineSet
KernsSLIFO: 461 -15 0 0 460 -40 0 0 459 -15 0 0 458 -40 0 0 457 -15 0 0 456 -40 0 0 455 -15 0 0 454 -40 0 0 201 -40 0 0 193 -15 0 0 191 -15 0 0 159 -40 0 0 90 -15 0 0 58 -40 0 0 56 -45 0 0 55 -50 0 0 53 -40 0 0
EndChar
StartChar: B
Encoding: 66 66 35
Width: 378
Flags: W
Fore
346 133 m 0,0,1
 346 -6 346 -6 145 -6 c 0,2,3
 101 -6 101 -6 54 4 c 1,4,-1
 54 469 l 1,5,6
 104 482 104 482 154 482 c 0,7,8
 327 482 327 482 327 362 c 0,9,10
 327 326 327 326 305.5 296.5 c 128,-1,11
 284 267 284 267 248 254 c 1,12,13
 284 245 284 245 315 213.5 c 128,-1,14
 346 182 346 182 346 133 c 0,0,1
288 361 m 0,15,16
 288 449 288 449 154 449 c 0,17,18
 123 449 123 449 93 442 c 1,19,-1
 93 268 l 1,20,-1
 174 268 l 2,21,22
 227 268 227 268 259 296 c 0,23,24
 288 322 288 322 288 361 c 0,15,16
308 132 m 0,25,26
 308 185 308 185 266.5 210.5 c 128,-1,27
 225 236 225 236 162 236 c 2,28,-1
 93 236 l 1,29,-1
 93 32 l 1,30,31
 120 26 120 26 153 26 c 0,32,33
 217 26 217 26 258 49 c 0,34,35
 308 77 308 77 308 132 c 0,25,26
EndSplineSet
EndChar
StartChar: C
Encoding: 67 67 36
Width: 406
Flags: W
Fore
367 50 m 1,0,-1
 379 18 l 1,1,2
 326 -7 326 -7 249 -7 c 0,3,4
 152 -7 152 -7 87.5 62.5 c 128,-1,5
 23 132 23 132 23 239 c 256,6,7
 23 346 23 346 87.5 414.5 c 128,-1,8
 152 483 152 483 249 483 c 0,9,10
 326 483 326 483 379 458 c 1,11,-1
 367 426 l 1,12,13
 313 449 313 449 251 449 c 0,14,15
 174 449 174 449 120 392 c 0,16,17
 63 332 63 332 63 238 c 256,18,19
 63 144 63 144 120 84 c 0,20,21
 174 27 174 27 251 27 c 0,22,23
 313 27 313 27 367 50 c 1,0,-1
EndSplineSet
EndChar
StartChar: D
Encoding: 68 68 37
Width: 431
Flags: W
Fore
402 248 m 0,0,1
 402 -4 402 -4 176 -4 c 0,2,3
 146 -4 146 -4 54 5 c 1,4,-1
 54 469 l 1,5,6
 146 481 146 481 196 481 c 0,7,8
 287 481 287 481 344 420 c 0,9,10
 402 356 402 356 402 248 c 0,0,1
363 248 m 0,11,12
 363 343 363 343 313 397 c 0,13,14
 267 447 267 447 193 447 c 0,15,16
 162 447 162 447 93 439 c 1,17,-1
 93 36 l 1,18,19
 143 30 143 30 188 30 c 0,20,21
 269 30 269 30 316 87.5 c 128,-1,22
 363 145 363 145 363 248 c 0,11,12
EndSplineSet
EndChar
StartChar: E
Encoding: 69 69 38
Width: 351
Flags: W
Fore
313 0 m 1,0,-1
 54 0 l 1,1,-1
 54 476 l 1,2,-1
 313 476 l 1,3,-1
 313 443 l 1,4,-1
 93 443 l 1,5,-1
 93 268 l 1,6,-1
 289 268 l 1,7,-1
 289 235 l 1,8,-1
 93 235 l 1,9,-1
 93 33 l 1,10,-1
 313 33 l 1,11,-1
 313 0 l 1,0,-1
EndSplineSet
EndChar
StartChar: F
Encoding: 70 70 39
Width: 351
Flags: W
Fore
308 229 m 1,0,-1
 93 229 l 1,1,-1
 93 0 l 1,2,-1
 54 0 l 1,3,-1
 54 476 l 1,4,-1
 323 476 l 1,5,-1
 323 443 l 1,6,-1
 93 443 l 1,7,-1
 93 262 l 1,8,-1
 308 262 l 1,9,-1
 308 229 l 1,0,-1
EndSplineSet
KernsSLIFO: 464 -40 0 0 394 -40 0 0 392 -40 0 0 390 -40 0 0 388 -40 0 0 386 -40 0 0 384 -40 0 0 382 -40 0 0 380 -40 0 0 378 -40 0 0 376 -40 0 0 374 -40 0 0 372 -40 0 0 136 -50 0 0 135 -40 0 0 134 -40 0 0 133 -40 0 0 132 -40 0 0 131 -40 0 0 130 -40 0 0 34 -40 0 0
EndChar
StartChar: G
Encoding: 71 71 40
Width: 425
Flags: W
Fore
383 238 m 1,0,-1
 383 10 l 1,1,2
 375 16 375 16 362 16 c 1,3,4
 303 5.5 l 130,-1,5
 244 -5 244 -5 224 -5 c 0,6,7
 133 -5 133 -5 78 61.5 c 128,-1,8
 23 128 23 128 23 239 c 0,9,10
 23 345 23 345 80 411 c 0,11,12
 139 481 139 481 241 481 c 0,13,14
 314 481 314 481 369 457 c 1,15,-1
 357 425 l 1,16,17
 297 448 297 448 239 448 c 0,18,19
 164 448 164 448 113.5 389 c 128,-1,20
 63 330 63 330 63 238 c 0,21,22
 63 140 63 140 106.5 83.5 c 128,-1,23
 150 27 150 27 230 27 c 0,24,25
 293 27 293 27 345 52 c 1,26,-1
 345 206 l 1,27,-1
 224 206 l 1,28,-1
 224 238 l 1,29,-1
 383 238 l 1,0,-1
EndSplineSet
EndChar
StartChar: H
Encoding: 72 72 41
Width: 441
Flags: W
Fore
387 0 m 1,0,-1
 348 0 l 1,1,-1
 348 237 l 1,2,-1
 93 237 l 1,3,-1
 93 0 l 1,4,-1
 54 0 l 1,5,-1
 54 476 l 1,6,-1
 93 476 l 1,7,-1
 93 270 l 1,8,-1
 348 270 l 1,9,-1
 348 476 l 1,10,-1
 387 476 l 1,11,-1
 387 0 l 1,0,-1
EndSplineSet
EndChar
StartChar: I
Encoding: 73 73 42
Width: 147
Flags: W
Fore
93 0 m 1,0,-1
 54 0 l 1,1,-1
 54 476 l 1,2,-1
 93 476 l 1,3,-1
 93 0 l 1,0,-1
EndSplineSet
EndChar
StartChar: J
Encoding: 74 74 43
Width: 264
Flags: W
Fore
210 156 m 2,0,1
 210 -9 210 -9 70 -9 c 0,2,3
 31 -9 31 -9 -1 6 c 1,4,-1
 9 37 l 1,5,6
 32 25 32 25 70 25 c 0,7,8
 122 25 122 25 146.5 55.5 c 128,-1,9
 171 86 171 86 171 166 c 2,10,-1
 171 476 l 1,11,-1
 210 476 l 1,12,-1
 210 156 l 2,0,1
EndSplineSet
EndChar
StartChar: K
Encoding: 75 75 44
Width: 376
Flags: W
Fore
390 9 m 1,0,-1
 355 -5 l 1,1,-1
 144 248 l 1,2,-1
 93 197 l 1,3,-1
 93 0 l 1,4,-1
 54 0 l 1,5,-1
 54 476 l 1,6,-1
 93 476 l 1,7,-1
 93 247 l 1,8,-1
 330 482 l 1,9,-1
 369 471 l 1,10,-1
 171 273 l 1,11,-1
 390 9 l 1,0,-1
EndSplineSet
EndChar
StartChar: L
Encoding: 76 76 45
Width: 353
Flags: W
Fore
327 0 m 1,0,-1
 54 0 l 1,1,-1
 54 476 l 1,2,-1
 93 476 l 1,3,-1
 93 33 l 1,4,-1
 327 33 l 1,5,-1
 327 0 l 1,0,-1
EndSplineSet
KernsSLIFO: 460 -70 0 0 458 -70 0 0 456 -70 0 0 454 -70 0 0 201 -70 0 0 159 -70 0 0 58 -70 0 0 56 -70 0 0 55 -80 0 0 53 -80 0 0
EndChar
StartChar: M
Encoding: 77 77 46
Width: 548
Flags: W
Fore
508 0 m 1,0,-1
 471 0 l 1,1,-1
 441 420 l 1,2,-1
 287 0 l 1,3,-1
 261 0 l 1,4,-1
 107 420 l 1,5,-1
 77 0 l 1,6,-1
 40 0 l 1,7,-1
 73 476 l 1,8,-1
 119 476 l 1,9,-1
 274 49 l 1,10,-1
 429 476 l 1,11,-1
 475 476 l 1,12,-1
 508 0 l 1,0,-1
EndSplineSet
EndChar
StartChar: N
Encoding: 78 78 47
Width: 441
Flags: W
Fore
387 0 m 1,0,-1
 346 0 l 1,1,-1
 94 421 l 1,2,-1
 94 0 l 1,3,-1
 54 0 l 1,4,-1
 54 476 l 1,5,-1
 99 476 l 1,6,-1
 349 61 l 1,7,-1
 349 476 l 1,8,-1
 387 476 l 1,9,-1
 387 0 l 1,0,-1
EndSplineSet
EndChar
StartChar: O
Encoding: 79 79 48
Width: 486
Flags: W
Fore
464 237 m 256,0,1
 464 130 464 130 402.5 60 c 128,-1,2
 341 -10 341 -10 243 -10 c 256,3,4
 145 -10 145 -10 83.5 60 c 128,-1,5
 22 130 22 130 22 237 c 256,6,7
 22 344 22 344 83.5 414 c 128,-1,8
 145 484 145 484 243 484 c 256,9,10
 341 484 341 484 402.5 414 c 128,-1,11
 464 344 464 344 464 237 c 256,0,1
425 237 m 256,12,13
 425 325 425 325 374 387.5 c 128,-1,14
 323 450 323 450 243 450 c 256,15,16
 163 450 163 450 112 387.5 c 128,-1,17
 61 325 61 325 61 237 c 256,18,19
 61 149 61 149 112 86.5 c 128,-1,20
 163 24 163 24 243 24 c 256,21,22
 323 24 323 24 374 86.5 c 128,-1,23
 425 149 425 149 425 237 c 256,12,13
EndSplineSet
EndChar
StartChar: P
Encoding: 80 80 49
Width: 378
Flags: W
Fore
345 344 m 0,0,1
 345 269 345 269 285 228 c 0,2,3
 233 193 233 193 155 194 c 0,4,5
 123 194 123 194 93 200 c 1,6,-1
 93 0 l 1,7,-1
 54 0 l 1,8,-1
 54 471 l 1,9,10
 114 481 114 481 169 481 c 0,11,12
 241 481 241 481 290 448 c 0,13,14
 345 410 345 410 345 344 c 0,0,1
308 341 m 256,15,16
 308 447 308 447 168 447 c 0,17,18
 118 447 118 447 93 442 c 1,19,-1
 93 234 l 1,20,21
 120 227 120 227 163 227 c 0,22,23
 308 235 308 235 308 341 c 256,15,16
EndSplineSet
KernsSLIFO: 464 -50 0 0 394 -50 0 0 392 -50 0 0 390 -50 0 0 388 -50 0 0 386 -50 0 0 384 -50 0 0 382 -50 0 0 380 -50 0 0 378 -50 0 0 376 -50 0 0 374 -50 0 0 372 -50 0 0 135 -50 0 0 134 -50 0 0 133 -50 0 0 132 -50 0 0 131 -50 0 0 130 -50 0 0 43 -60 0 0 34 -50 0 0
EndChar
StartChar: Q
Encoding: 81 81 50
Width: 487
Flags: W
Fore
464 237 m 0,0,1
 464 151 464 151 422 86 c 0,2,3
 378 18 378 18 302 -1 c 1,4,5
 361 -26 361 -26 438 -30 c 1,6,-1
 424 -67 l 1,7,8
 325 -44 325 -44 243 -10 c 1,9,10
 145 -10 145 -10 83.5 60 c 128,-1,11
 22 130 22 130 22 237 c 256,12,13
 22 344 22 344 83.5 414 c 128,-1,14
 145 484 145 484 243 484 c 256,15,16
 341 484 341 484 402.5 414 c 128,-1,17
 464 344 464 344 464 237 c 0,0,1
425 237 m 256,18,19
 425 325 425 325 374 387.5 c 128,-1,20
 323 450 323 450 243 450 c 256,21,22
 163 450 163 450 112 387.5 c 128,-1,23
 61 325 61 325 61 237 c 256,24,25
 61 149 61 149 112 86.5 c 128,-1,26
 163 24 163 24 243 24 c 256,27,28
 323 24 323 24 374 86.5 c 128,-1,29
 425 149 425 149 425 237 c 256,18,19
EndSplineSet
EndChar
StartChar: R
Encoding: 82 82 51
Width: 379
Flags: W
Fore
358 0 m 1,0,-1
 320 0 l 1,1,2
 293 217 293 217 185 217 c 2,3,-1
 93 217 l 1,4,-1
 93 0 l 1,5,-1
 54 0 l 1,6,-1
 54 470 l 1,7,8
 110 481 110 481 171 481 c 0,9,10
 248 480 248 480 293 451 c 0,11,12
 345 417 345 417 345 353 c 0,13,14
 345 264 345 264 253 230 c 1,15,16
 306 201 306 201 333 122 c 0,17,18
 346 81 346 81 358 0 c 1,0,-1
308 348 m 0,19,20
 308 447 308 447 171 447 c 0,21,22
 116 447 116 447 93 440 c 1,23,-1
 93 248 l 1,24,-1
 182 248 l 2,25,26
 241 248 241 248 274.5 274.5 c 128,-1,27
 308 301 308 301 308 348 c 0,19,20
EndSplineSet
EndChar
StartChar: S
Encoding: 83 83 52
Width: 352
Flags: W
Fore
320 124 m 0,0,1
 320 70 320 70 281 34 c 0,2,3
 237 -9 237 -9 158 -9 c 0,4,5
 80 -9 80 -9 27 27 c 1,6,-1
 43 61 l 1,7,8
 92 24 92 24 162 24 c 0,9,10
 218 24 218 24 250 50.5 c 128,-1,11
 282 77 282 77 282 121 c 0,12,13
 282 161 282 161 257.5 185.5 c 128,-1,14
 233 210 233 210 176 228 c 0,15,16
 43 271 43 271 43 362 c 0,17,18
 43 415 43 415 84 450 c 128,-1,19
 125 485 125 485 191 485 c 0,20,21
 258 485 258 485 300 460 c 1,22,23
 291 443 291 443 283 429 c 1,24,25
 240 452 240 452 190 452 c 0,26,27
 134 452 134 452 104 423 c 0,28,29
 80 399 80 399 80 367 c 0,30,31
 80 301 80 301 186 265 c 0,32,33
 255 241 255 241 285 213 c 0,34,35
 320 180 320 180 320 124 c 0,0,1
EndSplineSet
EndChar
StartChar: T
Encoding: 84 84 53
Width: 379
Flags: W
Fore
384 443 m 1,0,-1
 209 443 l 1,1,-1
 209 0 l 1,2,-1
 171 0 l 1,3,-1
 171 443 l 1,4,-1
 -5 443 l 1,5,-1
 -5 476 l 1,6,-1
 384 476 l 1,7,-1
 384 443 l 1,0,-1
EndSplineSet
KernsSLIFO: 484 -30 0 0 482 -30 0 0 480 -30 0 0 478 -30 0 0 473 -35 0 0 469 -30 0 0 467 -30 0 0 465 -30 0 0 464 -40 0 0 461 -30 0 0 459 -30 0 0 457 -30 0 0 455 -30 0 0 453 -30 0 0 451 -30 0 0 449 -30 0 0 447 -30 0 0 445 -30 0 0 443 -30 0 0 441 -30 0 0 439 -30 0 0 437 -30 0 0 435 -30 0 0 433 -30 0 0 431 -30 0 0 429 -30 0 0 427 -30 0 0 425 -30 0 0 423 -30 0 0 421 -30 0 0 419 -30 0 0 417 -30 0 0 411 -30 0 0 409 -30 0 0 407 -30 0 0 405 -30 0 0 403 -30 0 0 401 -30 0 0 399 -30 0 0 397 -30 0 0 395 -30 0 0 394 -40 0 0 393 -30 0 0 392 -40 0 0 391 -30 0 0 390 -40 0 0 389 -30 0 0 388 -40 0 0 387 -30 0 0 386 -40 0 0 385 -30 0 0 384 -40 0 0 383 -30 0 0 382 -40 0 0 381 -30 0 0 380 -40 0 0 379 -30 0 0 378 -40 0 0 377 -30 0 0 376 -40 0 0 375 -30 0 0 374 -40 0 0 373 -30 0 0 372 -40 0 0 200 -30 0 0 198 -30 0 0 193 -30 0 0 191 -30 0 0 190 -30 0 0 189 -30 0 0 188 -30 0 0 187 -30 0 0 186 -30 0 0 184 -30 0 0 183 -30 0 0 182 -30 0 0 181 -30 0 0 180 -30 0 0 179 -30 0 0 178 -30 0 0 173 -30 0 0 172 -30 0 0 171 -30 0 0 170 -30 0 0 169 -30 0 0 168 -30 0 0 167 -30 0 0 166 -30 0 0 165 -30 0 0 164 -30 0 0 163 -30 0 0 162 -30 0 0 135 -40 0 0 134 -40 0 0 133 -40 0 0 132 -40 0 0 131 -40 0 0 130 -40 0 0 91 -30 0 0 90 -30 0 0 89 -30 0 0 88 -30 0 0 87 -30 0 0 86 -30 0 0 84 -30 0 0 83 -30 0 0 82 -30 0 0 81 -30 0 0 80 -30 0 0 79 -30 0 0 78 -30 0 0 72 -35 0 0 70 -30 0 0 68 -30 0 0 66 -30 0 0 43 -40 0 0 34 -40 0 0
EndChar
StartChar: U
Encoding: 85 85 54
Width: 466
Flags: W
Fore
412 201 m 2,0,1
 412 -9 412 -9 233 -9 c 256,2,3
 54 -9 54 -9 54 201 c 2,4,-1
 54 476 l 1,5,-1
 93 476 l 1,6,-1
 93 202 l 2,7,8
 93 108 93 108 131.5 66 c 128,-1,9
 170 24 170 24 233 24 c 0,10,11
 297 24 297 24 335.5 66 c 128,-1,12
 374 108 374 108 373 202 c 2,13,-1
 373 476 l 1,14,-1
 412 476 l 1,15,-1
 412 201 l 2,0,1
EndSplineSet
EndChar
StartChar: V
Encoding: 86 86 55
Width: 390
Flags: W
Fore
390 476 m 1,0,-1
 216 0 l 1,1,-1
 174 0 l 1,2,-1
 0 476 l 1,3,-1
 44 476 l 1,4,-1
 195 45 l 1,5,-1
 346 476 l 1,6,-1
 390 476 l 1,0,-1
EndSplineSet
KernsSLIFO: 482 -30 0 0 478 -20 0 0 473 -30 0 0 469 -30 0 0 467 -30 0 0 464 -50 0 0 439 -30 0 0 437 -30 0 0 435 -30 0 0 433 -30 0 0 431 -30 0 0 429 -30 0 0 427 -30 0 0 425 -30 0 0 423 -30 0 0 421 -30 0 0 419 -30 0 0 417 -30 0 0 411 -30 0 0 409 -30 0 0 407 -30 0 0 405 -30 0 0 403 -30 0 0 401 -30 0 0 399 -30 0 0 397 -30 0 0 394 -50 0 0 392 -50 0 0 390 -50 0 0 388 -50 0 0 386 -50 0 0 384 -50 0 0 382 -50 0 0 380 -50 0 0 378 -50 0 0 376 -50 0 0 374 -50 0 0 372 -50 0 0 200 -20 0 0 198 -30 0 0 186 -30 0 0 184 -30 0 0 183 -30 0 0 182 -30 0 0 181 -30 0 0 180 -30 0 0 178 -30 0 0 173 -30 0 0 172 -30 0 0 171 -30 0 0 170 -30 0 0 169 -30 0 0 135 -50 0 0 134 -50 0 0 133 -50 0 0 132 -50 0 0 131 -50 0 0 130 -50 0 0 84 -20 0 0 82 -30 0 0 80 -30 0 0 72 -30 0 0 70 -30 0 0 68 -30 0 0 43 -40 0 0 34 -50 0 0
EndChar
StartChar: W
Encoding: 87 87 56
Width: 588
Flags: W
Fore
588 476 m 1,0,-1
 444 0 l 1,1,-1
 402 0 l 1,2,-1
 294 432 l 1,3,-1
 186 0 l 1,4,-1
 144 0 l 1,5,-1
 0 476 l 1,6,-1
 44 476 l 1,7,-1
 165 45 l 1,8,-1
 272 476 l 1,9,-1
 316 476 l 1,10,-1
 423 45 l 1,11,-1
 544 476 l 1,12,-1
 588 476 l 1,0,-1
EndSplineSet
KernsSLIFO: 482 -20 0 0 478 -20 0 0 473 -20 0 0 469 -20 0 0 467 -20 0 0 464 -45 0 0 439 -20 0 0 437 -20 0 0 435 -20 0 0 433 -20 0 0 431 -20 0 0 429 -20 0 0 427 -20 0 0 425 -20 0 0 423 -20 0 0 421 -20 0 0 419 -20 0 0 417 -20 0 0 411 -20 0 0 409 -20 0 0 407 -20 0 0 405 -20 0 0 403 -20 0 0 401 -20 0 0 399 -20 0 0 397 -20 0 0 394 -45 0 0 392 -45 0 0 390 -45 0 0 388 -45 0 0 386 -45 0 0 384 -45 0 0 382 -45 0 0 380 -45 0 0 378 -45 0 0 376 -45 0 0 374 -45 0 0 372 -45 0 0 200 -20 0 0 198 -20 0 0 186 -20 0 0 184 -20 0 0 183 -20 0 0 182 -20 0 0 181 -20 0 0 180 -20 0 0 178 -20 0 0 173 -20 0 0 172 -20 0 0 171 -20 0 0 170 -20 0 0 169 -20 0 0 135 -45 0 0 134 -45 0 0 133 -45 0 0 132 -45 0 0 131 -45 0 0 130 -45 0 0 84 -20 0 0 82 -20 0 0 80 -20 0 0 72 -20 0 0 70 -20 0 0 68 -20 0 0 34 -45 0 0
EndChar
StartChar: X
Encoding: 88 88 57
Width: 418
Flags: W
Fore
401 0 m 1,0,-1
 355 0 l 1,1,-1
 209 215 l 1,2,-1
 63 0 l 1,3,-1
 17 0 l 1,4,-1
 186 244 l 1,5,-1
 24 476 l 1,6,-1
 71 476 l 1,7,-1
 209 268 l 1,8,-1
 347 476 l 1,9,-1
 394 476 l 1,10,-1
 232 244 l 1,11,-1
 401 0 l 1,0,-1
EndSplineSet
EndChar
StartChar: Y
Encoding: 89 89 58
Width: 366
Flags: W
Fore
366 476 m 1,0,-1
 202 210 l 1,1,-1
 202 0 l 1,2,-1
 164 0 l 1,3,-1
 164 209 l 1,4,-1
 0 476 l 1,5,-1
 45 476 l 1,6,-1
 183 243 l 1,7,-1
 321 476 l 1,8,-1
 366 476 l 1,0,-1
EndSplineSet
KernsSLIFO: 484 -20 0 0 482 -25 0 0 480 -20 0 0 478 -25 0 0 473 -25 0 0 469 -25 0 0 467 -25 0 0 465 -20 0 0 464 -40 0 0 453 -20 0 0 451 -20 0 0 449 -20 0 0 447 -20 0 0 445 -20 0 0 443 -20 0 0 441 -20 0 0 439 -25 0 0 437 -25 0 0 435 -25 0 0 433 -25 0 0 431 -25 0 0 429 -25 0 0 427 -25 0 0 425 -25 0 0 423 -25 0 0 421 -25 0 0 419 -25 0 0 417 -25 0 0 411 -25 0 0 409 -25 0 0 407 -25 0 0 405 -25 0 0 403 -25 0 0 401 -25 0 0 399 -25 0 0 397 -25 0 0 395 -20 0 0 394 -40 0 0 393 -20 0 0 392 -40 0 0 391 -20 0 0 390 -40 0 0 389 -20 0 0 388 -40 0 0 387 -20 0 0 386 -40 0 0 385 -20 0 0 384 -40 0 0 383 -20 0 0 382 -40 0 0 381 -20 0 0 380 -40 0 0 379 -20 0 0 378 -40 0 0 377 -20 0 0 376 -40 0 0 375 -20 0 0 374 -40 0 0 373 -20 0 0 372 -40 0 0 200 -25 0 0 198 -25 0 0 190 -20 0 0 189 -20 0 0 188 -20 0 0 187 -20 0 0 186 -25 0 0 184 -25 0 0 183 -25 0 0 182 -25 0 0 181 -25 0 0 180 -25 0 0 179 -20 0 0 178 -25 0 0 173 -25 0 0 172 -25 0 0 171 -25 0 0 170 -25 0 0 169 -25 0 0 168 -20 0 0 167 -20 0 0 166 -20 0 0 165 -20 0 0 164 -20 0 0 163 -20 0 0 162 -20 0 0 135 -40 0 0 134 -40 0 0 133 -40 0 0 132 -40 0 0 131 -40 0 0 130 -40 0 0 86 -20 0 0 84 -25 0 0 83 -20 0 0 82 -25 0 0 81 -20 0 0 80 -25 0 0 79 -20 0 0 78 -20 0 0 72 -25 0 0 70 -25 0 0 68 -25 0 0 66 -20 0 0 34 -40 0 0
EndChar
StartChar: Z
Encoding: 90 90 59
Width: 424
Flags: W
Fore
408 33 m 1,0,-1
 400 0 l 1,1,-1
 22 0 l 1,2,-1
 22 26 l 1,3,-1
 345 443 l 1,4,-1
 42 443 l 1,5,-1
 48 476 l 1,6,-1
 395 476 l 1,7,-1
 395 449 l 1,8,-1
 73 33 l 1,9,-1
 408 33 l 1,0,-1
EndSplineSet
EndChar
StartChar: bracketleft
Encoding: 91 91 60
Width: 196
Flags: W
Fore
185 -48 m 1,0,-1
 185 -78 l 1,1,-1
 52 -78 l 1,2,-1
 52 506 l 1,3,-1
 185 506 l 1,4,-1
 185 476 l 1,5,-1
 87 476 l 1,6,-1
 87 -48 l 1,7,-1
 185 -48 l 1,0,-1
EndSplineSet
EndChar
StartChar: backslash
Encoding: 92 92 61
Width: 262
Flags: W
Fore
279 -28 m 1,0,-1
 239 -28 l 1,1,-1
 -9 483 l 1,2,-1
 30 483 l 1,3,-1
 279 -28 l 1,0,-1
EndSplineSet
EndChar
StartChar: bracketright
Encoding: 93 93 62
Width: 196
Flags: W
Fore
145 -78 m 1,0,-1
 11 -78 l 1,1,-1
 11 -48 l 1,2,-1
 109 -48 l 1,3,-1
 109 476 l 1,4,-1
 11 476 l 1,5,-1
 11 506 l 1,6,-1
 145 506 l 1,7,-1
 145 -78 l 1,0,-1
EndSplineSet
EndChar
StartChar: asciicircum
Encoding: 94 94 63
Width: 412
Flags: W
Fore
223 480 m 1,0,-1
 367 159 l 1,1,-1
 330 159 l 1,2,-1
 205 442 l 1,3,-1
 80 159 l 1,4,-1
 43 159 l 1,5,-1
 187 480 l 1,6,-1
 223 480 l 1,0,-1
EndSplineSet
EndChar
StartChar: underscore
Encoding: 95 95 64
Width: 352
Flags: W
Fore
352 -152 m 1,0,-1
 352 -183 l 1,1,-1
 0 -183 l 1,2,-1
 0 -152 l 1,3,-1
 352 -152 l 1,0,-1
EndSplineSet
EndChar
StartChar: grave
Encoding: 96 96 65
Width: 204
Flags: W
Fore
148 390 m 1,0,-1
 117 390 l 1,1,-1
 59 471 l 1,2,-1
 98 481 l 1,3,-1
 148 390 l 1,0,-1
EndSplineSet
EndChar
StartChar: a
Encoding: 97 97 66
Width: 344
Flags: W
Fore
304 0 m 1,0,-1
 269 -7 l 1,1,-1
 255 48 l 1,2,3
 209 -9 209 -9 134 -9 c 0,4,5
 90 -9 90 -9 58 16 c 128,-1,6
 26 41 26 41 26 85 c 0,7,8
 26 212 26 212 247 212 c 2,9,-1
 253 212 l 1,10,-1
 253 218 l 2,11,12
 253 251 253 251 238 276 c 0,13,14
 215 316 215 316 160 316 c 0,15,16
 125 316 125 316 52 293 c 1,17,-1
 47 329 l 1,18,19
 103 347 103 347 163 347 c 0,20,21
 292 347 292 347 292 205 c 2,22,-1
 292 83 l 2,23,24
 292 41 292 41 304 0 c 1,0,-1
253 110 m 2,25,-1
 253 178 l 1,26,27
 67 178 67 178 67 92 c 0,28,29
 67 59 67 59 87 41.5 c 128,-1,30
 107 24 107 24 137 24 c 0,31,32
 216 24 216 24 248 91 c 0,33,34
 253 102 253 102 253 110 c 2,25,-1
EndSplineSet
Substitution: 0 65534 'L055' uni0E38
Substitution: 0 65534 'L055' uni0E38
EndChar
StartChar: b
Encoding: 98 98 67
Width: 401
Flags: W
Fore
373 174 m 0,0,1
 373 92 373 92 330 41.5 c 128,-1,2
 287 -9 287 -9 214 -9 c 0,3,4
 134 -9 134 -9 87 60 c 1,5,6
 87 26 87 26 85 0 c 1,7,-1
 49 0 l 1,8,9
 52 26 52 26 52 83 c 2,10,-1
 52 505 l 1,11,-1
 91 505 l 1,12,-1
 91 275 l 1,13,14
 135 347 135 347 220 347 c 0,15,16
 291 347 291 347 332 298 c 128,-1,17
 373 249 373 249 373 174 c 0,0,1
335 173 m 0,18,19
 335 236 335 236 303 276 c 128,-1,20
 271 316 271 316 213 316 c 0,21,22
 165 316 165 316 130 283 c 0,23,24
 91 248 91 248 91 193 c 2,25,-1
 91 136 l 2,26,27
 91 88 91 88 125 56 c 128,-1,28
 159 24 159 24 209 24 c 0,29,30
 335 24 335 24 335 173 c 0,18,19
EndSplineSet
Substitution: 0 65534 'L055' uni0E39
Substitution: 0 65534 'L055' uni0E39
EndChar
StartChar: c
Encoding: 99 99 68
Width: 331
Flags: W
Fore
298 47 m 1,0,-1
 312 15 l 1,1,2
 269 -9 269 -9 207 -9 c 0,3,4
 123 -9 123 -9 75 39.5 c 128,-1,5
 27 88 27 88 27 169 c 256,6,7
 27 250 27 250 75 298.5 c 128,-1,8
 123 347 123 347 207 347 c 0,9,10
 269 347 269 347 312 323 c 1,11,-1
 298 291 l 1,12,13
 261 315 261 315 205 315 c 0,14,15
 144 315 144 315 104.5 276 c 128,-1,16
 65 237 65 237 65 169 c 256,17,18
 65 101 65 101 104.5 62 c 128,-1,19
 144 23 144 23 205 23 c 0,20,21
 261 23 261 23 298 47 c 1,0,-1
EndSplineSet
Substitution: 0 65534 'L055' uni0E3A
Substitution: 0 65534 'L055' uni0E3A
EndChar
StartChar: d
Encoding: 100 100 69
Width: 401
Flags: W
Fore
352 0 m 1,0,-1
 316 0 l 1,1,2
 314 26 314 26 314 60 c 1,3,4
 267 -9 267 -9 187 -9 c 0,5,6
 114 -9 114 -9 71 41.5 c 128,-1,7
 28 92 28 92 28 174 c 0,8,9
 28 249 28 249 69 298 c 128,-1,10
 110 347 110 347 181 347 c 0,11,12
 266 347 266 347 310 275 c 1,13,-1
 310 505 l 1,14,-1
 349 505 l 1,15,-1
 349 83 l 2,16,17
 349 26 349 26 352 0 c 1,0,-1
310 136 m 2,18,-1
 310 193 l 2,19,20
 310 248 310 248 271 283 c 0,21,22
 236 316 236 316 188 316 c 0,23,24
 130 316 130 316 98 276 c 128,-1,25
 66 236 66 236 66 173 c 0,26,27
 66 24 66 24 192 24 c 0,28,29
 242 24 242 24 276 56 c 128,-1,30
 310 88 310 88 310 136 c 2,18,-1
EndSplineSet
EndChar
StartChar: e
Encoding: 101 101 70
Width: 374
Flags: W
Fore
324 48 m 1,0,-1
 327 15 l 1,1,2
 269 -9 269 -9 201 -9 c 0,3,4
 123 -9 123 -9 75 39 c 128,-1,5
 27 87 27 87 27 161 c 0,6,7
 27 245 27 245 75 296 c 128,-1,8
 123 347 123 347 197 347 c 0,9,10
 340 347 340 347 343 168 c 1,11,-1
 65 168 l 1,12,13
 67 100 67 100 105.5 62.5 c 128,-1,14
 144 25 144 25 205 25 c 0,15,16
 265 25 265 25 324 48 c 1,0,-1
306 199 m 1,17,18
 305 240 305 240 283 272 c 0,19,20
 253 316 253 316 192 316 c 0,21,22
 137 316 137 316 102 276 c 0,23,24
 74 244 74 244 67 199 c 1,25,-1
 306 199 l 1,17,18
EndSplineSet
EndChar
StartChar: f
Encoding: 102 102 71
Width: 206
Flags: W
Fore
241 497 m 1,0,-1
 230 469 l 1,1,2
 208 480 208 480 181 480 c 0,3,4
 101 480 101 480 101 353 c 2,5,-1
 101 340 l 1,6,-1
 199 340 l 1,7,-1
 199 309 l 1,8,-1
 101 309 l 1,9,-1
 101 0 l 1,10,-1
 62 0 l 1,11,-1
 62 309 l 1,12,-1
 5 309 l 1,13,-1
 5 340 l 1,14,-1
 63 340 l 1,15,-1
 63 353 l 2,16,17
 63 513 63 513 184 513 c 0,18,19
 222 513 222 513 241 497 c 1,0,-1
EndSplineSet
EndChar
StartChar: g
Encoding: 103 103 72
Width: 311
Flags: W
Fore
275 228 m 0,0,1
 275 172 275 172 240.5 139 c 128,-1,2
 206 106 206 106 155 106 c 0,3,4
 124 106 124 106 102 117 c 1,5,6
 96 102 96 102 96 88 c 0,7,8
 96 62 96 62 177 39 c 0,9,10
 273 12 273 12 273 -59 c 0,11,12
 273 -102 273 -102 242 -129.5 c 128,-1,13
 211 -157 211 -157 151 -157 c 0,14,15
 98 -157 98 -157 54 -130 c 1,16,-1
 68 -98 l 1,17,18
 111 -123 111 -123 154 -123 c 0,19,20
 191 -123 191 -123 215 -106 c 128,-1,21
 239 -89 239 -89 239 -62 c 0,22,23
 239 -14 239 -14 160 12 c 0,24,25
 112 27 112 27 94 39 c 0,26,27
 63 58 63 58 63 88 c 0,28,29
 63 106 63 106 73 136 c 1,30,31
 36 176 36 176 36 221 c 0,32,33
 36 275 36 275 70 308 c 128,-1,34
 104 341 104 341 150 341 c 2,35,-1
 283 341 l 1,36,-1
 283 309 l 1,37,-1
 234 314 l 1,38,39
 275 274 275 274 275 228 c 0,0,1
241 223 m 0,40,41
 241 256 241 256 220 281 c 0,42,43
 196 311 196 311 155 311 c 0,44,45
 115 311 115 311 93 284.5 c 128,-1,46
 71 258 71 258 71 222 c 0,47,48
 71 182 71 182 98 158 c 0,49,50
 123 136 123 136 155 136 c 0,51,52
 191 136 191 136 216 159 c 128,-1,53
 241 182 241 182 241 223 c 0,40,41
EndSplineSet
EndChar
StartChar: h
Encoding: 104 104 73
Width: 390
Flags: W
Fore
338 193 m 2,0,-1
 338 0 l 1,1,-1
 299 0 l 1,2,-1
 299 193 l 2,3,4
 299 315 299 315 197 315 c 0,5,6
 156 315 156 315 123.5 280.5 c 128,-1,7
 91 246 91 246 91 206 c 2,8,-1
 91 0 l 1,9,-1
 52 0 l 1,10,-1
 52 505 l 1,11,-1
 91 505 l 1,12,-1
 91 279 l 1,13,14
 132 347 132 347 205 347 c 0,15,16
 338 347 338 347 338 193 c 2,0,-1
EndSplineSet
EndChar
StartChar: i
Encoding: 105 105 74
Width: 143
Flags: W
Fore
91 0 m 1,0,-1
 52 0 l 1,1,-1
 52 340 l 1,2,-1
 91 340 l 1,3,-1
 91 0 l 1,0,-1
102 443 m 256,4,5
 102 429 102 429 93 420.5 c 128,-1,6
 84 412 84 412 70 412 c 256,7,8
 56 412 56 412 47.5 420.5 c 128,-1,9
 39 429 39 429 39 443 c 256,10,11
 39 457 39 457 47.5 466 c 128,-1,12
 56 475 56 475 70 475 c 256,13,14
 84 475 84 475 93 466 c 128,-1,15
 102 457 102 457 102 443 c 256,4,5
EndSplineSet
EndChar
StartChar: j
Encoding: 106 106 75
Width: 155
Flags: W
Fore
103 7 m 2,0,1
 101 -145 101 -145 -38 -148 c 1,2,-1
 -42 -117 l 1,3,4
 27 -111 27 -111 49 -69 c 0,5,6
 64 -40 64 -40 64 18 c 2,7,-1
 64 340 l 1,8,-1
 103 340 l 1,9,-1
 103 7 l 2,0,1
114 443 m 256,10,11
 114 429 114 429 105 420.5 c 128,-1,12
 96 412 96 412 82 412 c 256,13,14
 68 412 68 412 59.5 420.5 c 128,-1,15
 51 429 51 429 51 443 c 256,16,17
 51 457 51 457 59.5 466 c 128,-1,18
 68 475 68 475 82 475 c 256,19,20
 96 475 96 475 105 466 c 128,-1,21
 114 457 114 457 114 443 c 256,10,11
EndSplineSet
EndChar
StartChar: k
Encoding: 107 107 76
Width: 316
Flags: W
Fore
327 1 m 1,0,-1
 288 -10 l 1,1,-1
 126 177 l 1,2,-1
 91 143 l 1,3,-1
 91 0 l 1,4,-1
 52 0 l 1,5,-1
 52 505 l 1,6,-1
 91 505 l 1,7,-1
 91 187 l 1,8,-1
 260 345 l 1,9,-1
 300 337 l 1,10,-1
 154 199 l 1,11,-1
 327 1 l 1,0,-1
EndSplineSet
EndChar
StartChar: l
Encoding: 108 108 77
Width: 200
Flags: W
Fore
182 27 m 1,0,-1
 178 -7 l 1,1,2
 52 -1 52 -1 52 171 c 2,3,-1
 52 505 l 1,4,-1
 91 505 l 1,5,-1
 91 186 l 2,6,7
 91 113 91 113 104 80 c 0,8,9
 124 28 124 28 182 27 c 1,0,-1
EndSplineSet
EndChar
StartChar: m
Encoding: 109 109 78
Width: 601
Flags: W
Fore
549 0 m 1,0,-1
 510 0 l 1,1,-1
 510 188 l 2,2,3
 510 246 510 246 486.5 280.5 c 128,-1,4
 463 315 463 315 418 315 c 0,5,6
 379 315 379 315 349.5 284.5 c 128,-1,7
 320 254 320 254 320 216 c 2,8,-1
 320 0 l 1,9,-1
 281 0 l 1,10,-1
 281 206 l 2,11,12
 281 315 281 315 195 315 c 0,13,14
 155 315 155 315 123 280.5 c 128,-1,15
 91 246 91 246 91 206 c 2,16,-1
 91 0 l 1,17,-1
 52 0 l 1,18,-1
 52 256 l 2,19,20
 52 283 52 283 45 340 c 1,21,-1
 82 340 l 1,22,23
 89 319 89 319 90 279 c 1,24,25
 129 347 129 347 204 347 c 0,26,27
 273 347 273 347 307 271 c 1,28,29
 347 347 347 347 429 347 c 0,30,31
 485 347 485 347 517 304.5 c 128,-1,32
 549 262 549 262 549 189 c 2,33,-1
 549 0 l 1,0,-1
EndSplineSet
EndChar
StartChar: n
Encoding: 110 110 79
Width: 390
Flags: W
Fore
338 0 m 1,0,-1
 299 0 l 1,1,-1
 299 193 l 2,2,3
 299 315 299 315 197 315 c 0,4,5
 156 315 156 315 123.5 280.5 c 128,-1,6
 91 246 91 246 91 206 c 2,7,-1
 91 0 l 1,8,-1
 52 0 l 1,9,-1
 52 256 l 2,10,11
 52 283 52 283 45 340 c 1,12,-1
 82 340 l 1,13,14
 89 319 89 319 90 279 c 1,15,16
 129 347 129 347 205 347 c 0,17,18
 338 347 338 347 338 193 c 2,19,-1
 338 0 l 1,0,-1
EndSplineSet
EndChar
StartChar: o
Encoding: 111 111 80
Width: 398
Flags: W
Fore
370 169 m 256,0,1
 370 94 370 94 323 42 c 128,-1,2
 276 -10 276 -10 199 -10 c 256,3,4
 122 -10 122 -10 75 42 c 128,-1,5
 28 94 28 94 28 169 c 256,6,7
 28 244 28 244 75 295.5 c 128,-1,8
 122 347 122 347 199 347 c 256,9,10
 276 347 276 347 323 295.5 c 128,-1,11
 370 244 370 244 370 169 c 256,0,1
332 169 m 256,12,13
 332 231 332 231 294.5 272.5 c 128,-1,14
 257 314 257 314 199 314 c 256,15,16
 141 314 141 314 103.5 272.5 c 128,-1,17
 66 231 66 231 66 169 c 256,18,19
 66 107 66 107 103.5 65 c 128,-1,20
 141 23 141 23 199 23 c 256,21,22
 257 23 257 23 294.5 65 c 128,-1,23
 332 107 332 107 332 169 c 256,12,13
EndSplineSet
EndChar
StartChar: p
Encoding: 112 112 81
Width: 401
Flags: W
Fore
373 164 m 0,0,1
 373 89 373 89 333 42 c 0,2,3
 291 -9 291 -9 220 -9 c 0,4,5
 135 -9 135 -9 91 63 c 1,6,-1
 91 -167 l 1,7,-1
 52 -167 l 1,8,-1
 52 255 l 2,9,10
 52 313 52 313 49 338 c 1,11,-1
 85 338 l 1,12,13
 87 312 87 312 87 278 c 1,14,15
 134 347 134 347 214 347 c 0,16,17
 287 347 287 347 330 296.5 c 128,-1,18
 373 246 373 246 373 164 c 0,0,1
336 165 m 0,19,20
 336 235 336 235 303.5 274.5 c 128,-1,21
 271 314 271 314 209 314 c 0,22,23
 159 314 159 314 125 282 c 128,-1,24
 91 250 91 250 91 202 c 2,25,-1
 91 145 l 2,26,27
 91 90 91 90 130 55 c 0,28,29
 165 22 165 22 213 22 c 0,30,31
 271 22 271 22 305 63 c 0,32,33
 336 102 336 102 336 165 c 0,19,20
EndSplineSet
EndChar
StartChar: q
Encoding: 113 113 82
Width: 401
Flags: W
Fore
370 -167 m 1,0,-1
 331 -167 l 1,1,-1
 331 63 l 1,2,3
 287 -9 287 -9 202 -9 c 0,4,5
 131 -9 131 -9 89 42 c 0,6,7
 49 89 49 89 49 164 c 0,8,9
 49 246 49 246 92 296.5 c 128,-1,10
 135 347 135 347 208 347 c 0,11,12
 288 347 288 347 335 278 c 1,13,14
 335 312 335 312 337 338 c 1,15,-1
 373 338 l 1,16,17
 370 313 370 313 370 255 c 2,18,-1
 370 -167 l 1,0,-1
331 145 m 2,19,-1
 331 202 l 2,20,21
 331 250 331 250 297 282 c 128,-1,22
 263 314 263 314 213 314 c 0,23,24
 151 314 151 314 118.5 274.5 c 128,-1,25
 86 235 86 235 86 165 c 0,26,27
 86 102 86 102 117 63 c 0,28,29
 151 22 151 22 209 22 c 0,30,31
 257 22 257 22 292 55 c 0,32,33
 331 90 331 90 331 145 c 2,19,-1
EndSplineSet
EndChar
StartChar: r
Encoding: 114 114 83
Width: 217
Flags: W
Fore
208 312 m 1,0,1
 205 313 205 313 196 313 c 0,2,3
 119 313 119 313 94 217 c 0,4,5
 91 206 91 206 91 183 c 2,6,-1
 91 0 l 1,7,-1
 52 0 l 1,8,-1
 52 229 l 2,9,10
 52 304 52 304 42 340 c 1,11,-1
 75 340 l 1,12,13
 86 318 86 318 86 272 c 1,14,15
 118 347 118 347 189 347 c 0,16,17
 198 347 198 347 208 345 c 1,18,-1
 208 312 l 1,0,1
EndSplineSet
EndChar
StartChar: s
Encoding: 115 115 84
Width: 282
Flags: W
Fore
248 90 m 0,0,1
 248 47 248 47 215.5 19 c 128,-1,2
 183 -9 183 -9 125 -9 c 0,3,4
 75 -9 75 -9 29 18 c 1,5,-1
 44 50 l 1,6,7
 92 24 92 24 128 24 c 0,8,9
 212 24 212 24 212 87 c 0,10,11
 212 136 212 136 133 160 c 0,12,13
 42 188 42 188 42 252 c 0,14,15
 42 291 42 291 71.5 319 c 128,-1,16
 101 347 101 347 154 347 c 256,17,18
 207 347 207 347 238 324 c 1,19,-1
 222 292 l 1,20,21
 192 316 192 316 147 316 c 0,22,23
 115 316 115 316 97 299 c 128,-1,24
 79 282 79 282 79 257 c 0,25,26
 79 217 79 217 157 190 c 0,27,28
 248 159 248 159 248 90 c 0,0,1
EndSplineSet
EndChar
StartChar: t
Encoding: 116 116 85
Width: 238
Flags: W
Fore
210 31 m 1,0,-1
 214 0 l 1,1,2
 194 -9 194 -9 161 -9 c 0,3,4
 117 -9 117 -9 94 25 c 0,5,6
 74 55 74 55 74 100 c 2,7,-1
 74 309 l 1,8,-1
 6 309 l 1,9,-1
 6 340 l 1,10,-1
 74 340 l 1,11,-1
 74 441 l 1,12,-1
 113 459 l 1,13,-1
 113 340 l 1,14,-1
 222 340 l 1,15,-1
 222 309 l 1,16,-1
 113 309 l 1,17,-1
 113 101 l 2,18,19
 113 25 113 25 164 25 c 0,20,21
 195 25 195 25 210 31 c 1,0,-1
EndSplineSet
EndChar
StartChar: u
Encoding: 117 117 86
Width: 390
Flags: W
Fore
355 1 m 1,0,-1
 318 -7 l 1,1,2
 306 27 306 27 302 59 c 1,3,4
 258 -9 258 -9 174 -9 c 0,5,6
 52 -9 52 -9 52 149 c 2,7,-1
 52 340 l 1,8,-1
 91 340 l 1,9,-1
 91 156 l 2,10,11
 91 25 91 25 183 25 c 0,12,13
 226 25 226 25 261 53 c 0,14,15
 299 85 299 85 299 134 c 2,16,-1
 299 340 l 1,17,-1
 338 340 l 1,18,-1
 338 83 l 2,19,20
 338 46 338 46 355 1 c 1,0,-1
EndSplineSet
EndChar
StartChar: v
Encoding: 118 118 87
Width: 341
Flags: W
Fore
338 340 m 1,0,-1
 185 0 l 1,1,-1
 150 0 l 1,2,-1
 3 340 l 1,3,-1
 43 340 l 1,4,-1
 169 42 l 1,5,-1
 298 340 l 1,6,-1
 338 340 l 1,0,-1
EndSplineSet
EndChar
StartChar: w
Encoding: 119 119 88
Width: 507
Flags: W
Fore
507 340 m 1,0,-1
 385 0 l 1,1,-1
 351 0 l 1,2,-1
 253 300 l 1,3,-1
 150 0 l 1,4,-1
 114 0 l 1,5,-1
 3 340 l 1,6,-1
 44 340 l 1,7,-1
 134 46 l 1,8,-1
 236 340 l 1,9,-1
 273 340 l 1,10,-1
 369 46 l 1,11,-1
 468 340 l 1,12,-1
 507 340 l 1,0,-1
EndSplineSet
EndChar
StartChar: x
Encoding: 120 120 89
Width: 318
Flags: W
Fore
318 0 m 1,0,-1
 272 0 l 1,1,-1
 158 147 l 1,2,-1
 45 0 l 1,3,-1
 0 0 l 1,4,-1
 138 173 l 1,5,-1
 9 340 l 1,6,-1
 53 340 l 1,7,-1
 161 202 l 1,8,-1
 268 340 l 1,9,-1
 311 340 l 1,10,-1
 181 174 l 1,11,-1
 318 0 l 1,0,-1
EndSplineSet
EndChar
StartChar: y
Encoding: 121 121 90
Width: 337
Flags: W
Fore
184 0 m 2,0,1
 125 -133 125 -133 27 -156 c 1,2,-1
 18 -125 l 1,3,4
 103 -106 103 -106 147 11 c 1,5,6
 147 14 147 14 144 23 c 2,7,-1
 3 340 l 1,8,-1
 45 340 l 1,9,-1
 172 52 l 1,10,-1
 291 340 l 1,11,-1
 334 340 l 1,12,-1
 184 0 l 2,0,1
EndSplineSet
EndChar
StartChar: z
Encoding: 122 122 91
Width: 321
Flags: W
Fore
301 0 m 1,0,-1
 15 0 l 1,1,-1
 15 24 l 1,2,-1
 255 308 l 1,3,-1
 27 308 l 1,4,-1
 33 340 l 1,5,-1
 304 340 l 1,6,-1
 303 313 l 1,7,-1
 64 32 l 1,8,-1
 309 32 l 1,9,-1
 301 0 l 1,0,-1
EndSplineSet
EndChar
StartChar: braceleft
Encoding: 123 123 92
Width: 208
Flags: W
Fore
180 -47 m 1,0,-1
 180 -77 l 1,1,-1
 169 -77 l 2,2,3
 61 -77 61 -77 61 18 c 0,4,5
 61 37 61 37 68 76.5 c 128,-1,6
 75 116 75 116 75 136 c 0,7,8
 75 186 75 186 13 188 c 1,9,-1
 13 218 l 1,10,11
 75 220 75 220 75 270 c 0,12,13
 75 290 75 290 68 329.5 c 128,-1,14
 61 369 61 369 61 388 c 0,15,16
 61 483 61 483 169 483 c 2,17,-1
 180 483 l 1,18,-1
 180 453 l 1,19,-1
 165 453 l 2,20,21
 96 453 96 453 96 384 c 0,22,23
 110 283 110 283 110 273 c 0,24,25
 110 222 110 222 70 203 c 1,26,27
 110 184 110 184 110 133 c 0,28,29
 110 123 110 123 96 22 c 0,30,31
 96 -47 96 -47 165 -47 c 2,32,-1
 180 -47 l 1,0,-1
EndSplineSet
EndChar
StartChar: bar
Encoding: 124 124 93
Width: 153
Flags: W
Fore
93 528 m 1,0,-1
 93 -174 l 1,1,-1
 60 -174 l 1,2,-1
 60 528 l 1,3,-1
 93 528 l 1,0,-1
EndSplineSet
EndChar
StartChar: braceright
Encoding: 125 125 94
Width: 208
Flags: W
Fore
28 -77 m 1,0,-1
 28 -47 l 1,1,-1
 43 -47 l 2,2,3
 112 -47 112 -47 112 22 c 0,4,5
 98 123 98 123 98 133 c 0,6,7
 98 184 98 184 138 203 c 1,8,9
 98 222 98 222 98 273 c 0,10,11
 98 283 98 283 112 384 c 0,12,13
 112 453 112 453 43 453 c 2,14,-1
 28 453 l 1,15,-1
 28 483 l 1,16,-1
 39 483 l 2,17,18
 147 483 147 483 147 388 c 0,19,20
 147 369 147 369 140 329.5 c 128,-1,21
 133 290 133 290 133 270 c 0,22,23
 133 220 133 220 195 218 c 1,24,-1
 195 188 l 1,25,26
 133 186 133 186 133 136 c 0,27,28
 133 116 133 116 140 76.5 c 128,-1,29
 147 37 147 37 147 18 c 0,30,31
 147 -77 147 -77 39 -77 c 2,32,-1
 28 -77 l 1,0,-1
EndSplineSet
EndChar
StartChar: asciitilde
Encoding: 126 126 95
Width: 416
Flags: W
Fore
389 249 m 1,0,-1
 389 243 l 2,1,2
 389 197 389 197 364 172 c 0,3,4
 343 151 343 151 311 151 c 0,5,6
 272 151 272 151 206.5 183.5 c 128,-1,7
 141 216 141 216 106 216 c 0,8,9
 59 216 59 216 57 151 c 1,10,-1
 26 151 l 1,11,-1
 26 159 l 2,12,13
 26 201 26 201 49.5 225 c 128,-1,14
 73 249 73 249 106 249 c 0,15,16
 144 249 144 249 210.5 217.5 c 128,-1,17
 277 186 277 186 313 186 c 0,18,19
 356 186 356 186 358 249 c 1,20,-1
 389 249 l 1,0,-1
EndSplineSet
EndChar
StartChar: uni0E33.alt1
Encoding: 65537 -1 96
Width: 316
Flags: W
Fore
260 0 m 1,0,-1
 224 0 l 1,1,-1
 224 299 l 2,2,3
 224 329 224 329 201.5 348.5 c 128,-1,4
 179 368 179 368 140 368 c 0,5,6
 105 368 105 368 84 344.5 c 128,-1,7
 63 321 63 321 61 294 c 1,8,-1
 24 294 l 1,9,10
 25 336 25 336 57.5 368 c 128,-1,11
 90 400 90 400 141 400 c 0,12,13
 199 400 199 400 229.5 372 c 128,-1,14
 260 344 260 344 260 298 c 2,15,-1
 260 0 l 1,0,-1
-150 538 m 256,16,17
 -150 506 -150 506 -172 484 c 128,-1,18
 -194 462 -194 462 -226 462 c 256,19,20
 -258 462 -258 462 -280.5 484 c 128,-1,21
 -303 506 -303 506 -303 538 c 256,22,23
 -303 570 -303 570 -280.5 592.5 c 128,-1,24
 -258 615 -258 615 -226 615 c 256,25,26
 -194 615 -194 615 -172 592.5 c 128,-1,27
 -150 570 -150 570 -150 538 c 256,16,17
-183 538 m 256,28,29
 -183 556 -183 556 -196 569 c 128,-1,30
 -209 582 -209 582 -226 582 c 0,31,32
 -244 582 -244 582 -257 569 c 128,-1,33
 -270 556 -270 556 -270 538 c 256,34,35
 -270 520 -270 520 -257 507.5 c 128,-1,36
 -244 495 -244 495 -226 495 c 0,37,38
 -209 495 -209 495 -196 507.5 c 128,-1,39
 -183 520 -183 520 -183 538 c 256,28,29
EndSplineSet
EndChar
StartChar: uni0E4E.alt1
Encoding: 65540 -1 99
Width: 0
Flags: W
Fore
-122 664 m 1,0,-1
 -131 639 l 1,1,2
 -148 644 -148 644 -168 644 c 0,3,4
 -214 644 -214 644 -214 613 c 0,5,6
 -214 580 -214 580 -164 574 c 1,7,-1
 -173 551 l 1,8,9
 -185 555 -185 555 -197 555 c 0,10,11
 -225 555 -225 555 -242.5 542.5 c 128,-1,12
 -260 530 -260 530 -260 515 c 0,13,14
 -260 488 -260 488 -215 488 c 0,15,16
 -202 488 -202 488 -183 496 c 1,17,-1
 -182 471 l 1,18,19
 -201 463 -201 463 -228 463 c 0,20,21
 -253 463 -253 463 -271 477.5 c 128,-1,22
 -289 492 -289 492 -289 516 c 0,23,24
 -289 541 -289 541 -269 558 c 128,-1,25
 -249 575 -249 575 -224 575 c 1,26,27
 -244 588 -244 588 -244 613 c 0,28,29
 -244 671 -244 671 -167 671 c 0,30,31
 -140 671 -140 671 -122 664 c 1,0,-1
EndSplineSet
EndChar
StartChar: exclamdown
Encoding: 161 161 100
Width: 151
Flags: W
Fore
102 -140 m 1,0,-1
 47 -140 l 1,1,-1
 57 208 l 1,2,-1
 92 208 l 1,3,-1
 102 -140 l 1,0,-1
112 304 m 256,4,5
 112 289 112 289 101 278 c 128,-1,6
 90 267 90 267 75 267 c 256,7,8
 60 267 60 267 49 278 c 128,-1,9
 38 289 38 289 38 304 c 256,10,11
 38 319 38 319 49 330 c 128,-1,12
 60 341 60 341 75 341 c 256,13,14
 90 341 90 341 101 330 c 128,-1,15
 112 319 112 319 112 304 c 256,4,5
EndSplineSet
EndChar
StartChar: cent
Encoding: 162 162 101
Width: 411
Flags: W
Fore
378 48 m 1,0,1
 330 22 330 22 247 22 c 2,2,-1
 242 22 l 1,3,-1
 242 -59 l 1,4,-1
 209 -59 l 1,5,-1
 209 24 l 1,6,7
 133 35 133 35 85 85 c 0,8,9
 32 140 32 140 32 238 c 0,10,11
 32 321 32 321 76 376 c 0,12,13
 124 436 124 436 209 451 c 1,14,-1
 209 542 l 1,15,-1
 242 542 l 1,16,-1
 242 455 l 1,17,18
 249 456 249 456 263 456 c 0,19,20
 323 456 323 456 375 437 c 1,21,-1
 367 401 l 1,22,23
 322 424 322 424 265 424 c 0,24,25
 173 424 173 424 122 375.5 c 128,-1,26
 71 327 71 327 71 236 c 0,27,28
 71 150 71 150 118 105 c 0,29,30
 168 57 168 57 259 57 c 0,31,32
 322 57 322 57 366 77 c 1,33,-1
 378 48 l 1,0,1
EndSplineSet
EndChar
StartChar: sterling
Encoding: 163 163 102
Width: 411
Flags: W
Fore
353 0 m 1,0,-1
 57 0 l 1,1,-1
 57 25 l 1,2,3
 142 77 142 77 142 158 c 0,4,5
 142 181 142 181 137 216 c 1,6,-1
 58 216 l 1,7,-1
 58 247 l 1,8,-1
 134 247 l 1,9,10
 126 295 126 295 126 328 c 0,11,12
 126 461 126 461 254 461 c 0,13,14
 295 461 295 461 337 441 c 1,15,-1
 325 412 l 1,16,17
 285 428 285 428 252 428 c 0,18,19
 161 428 161 428 161 327 c 0,20,21
 161 290 161 290 170 247 c 1,22,-1
 283 247 l 1,23,-1
 283 216 l 1,24,-1
 174 216 l 1,25,26
 178 193 178 193 178 165 c 0,27,28
 178 81 178 81 124 33 c 1,29,-1
 353 33 l 1,30,-1
 353 0 l 1,0,-1
EndSplineSet
EndChar
StartChar: currency
Encoding: 164 164 103
Width: 411
Flags: W
Fore
387 225 m 0,0,1
 387 159 387 159 349 114 c 1,2,-1
 389 73 l 1,3,-1
 360 43 l 1,4,-1
 318 85 l 1,5,6
 272 43 272 43 204 43 c 0,7,8
 139 43 139 43 91 85 c 1,9,-1
 51 43 l 1,10,-1
 22 73 l 1,11,-1
 61 114 l 1,12,13
 22 162 22 162 22 225 c 0,14,15
 22 289 22 289 61 339 c 1,16,-1
 22 379 l 1,17,-1
 51 410 l 1,18,-1
 91 368 l 1,19,20
 143 409 143 409 204 409 c 0,21,22
 268 409 268 409 318 368 c 1,23,-1
 361 410 l 1,24,-1
 389 379 l 1,25,-1
 349 339 l 1,26,27
 387 295 387 295 387 225 c 0,0,1
347 225 m 0,28,29
 347 285 347 285 305.5 329.5 c 128,-1,30
 264 374 264 374 204 374 c 0,31,32
 146 374 146 374 103.5 330 c 128,-1,33
 61 286 61 286 61 225 c 256,34,35
 61 164 61 164 103.5 121.5 c 128,-1,36
 146 79 146 79 204 79 c 0,37,38
 264 79 264 79 305.5 122.5 c 128,-1,39
 347 166 347 166 347 225 c 0,28,29
EndSplineSet
EndChar
StartChar: yen
Encoding: 165 165 104
Width: 411
Flags: W
Fore
345 95 m 1,0,-1
 224 95 l 1,1,-1
 224 19 l 1,2,-1
 187 19 l 1,3,-1
 187 95 l 1,4,-1
 67 95 l 1,5,-1
 67 124 l 1,6,-1
 187 124 l 1,7,-1
 187 181 l 1,8,-1
 67 181 l 1,9,-1
 67 210 l 1,10,-1
 187 210 l 1,11,-1
 34 459 l 1,12,-1
 80 459 l 1,13,-1
 205 248 l 1,14,-1
 330 459 l 1,15,-1
 377 459 l 1,16,-1
 224 211 l 1,17,-1
 345 211 l 1,18,-1
 345 181 l 1,19,-1
 224 181 l 1,20,-1
 224 124 l 1,21,-1
 345 124 l 1,22,-1
 345 95 l 1,0,-1
EndSplineSet
EndChar
StartChar: brokenbar
Encoding: 166 166 105
Width: 153
Flags: W
Fore
93 227 m 1,0,-1
 60 227 l 1,1,-1
 60 475 l 1,2,-1
 93 475 l 1,3,-1
 93 227 l 1,0,-1
93 -123 m 1,4,-1
 60 -123 l 1,5,-1
 60 126 l 1,6,-1
 93 126 l 1,7,-1
 93 -123 l 1,4,-1
EndSplineSet
EndChar
StartChar: section
Encoding: 167 167 106
Width: 374
Flags: W
Fore
301 65 m 0,0,1
 301 17 301 17 265 -11 c 128,-1,2
 229 -39 229 -39 175 -39 c 0,3,4
 112 -39 112 -39 72 -6 c 1,5,-1
 88 22 l 1,6,7
 121 -9 121 -9 177 -9 c 0,8,9
 218 -9 218 -9 242.5 10 c 128,-1,10
 267 29 267 29 267 60 c 0,11,12
 267 103 267 103 212 128 c 0,13,14
 161 148 161 148 110 169 c 0,15,16
 55 197 55 197 55 249 c 0,17,18
 55 293 55 293 100 329 c 1,19,20
 77 352 77 352 77 383 c 0,21,22
 77 426 77 426 110.5 452.5 c 128,-1,23
 144 479 144 479 197 479 c 256,24,25
 250 479 250 479 294 453 c 1,26,-1
 277 424 l 1,27,28
 242 450 242 450 192 450 c 0,29,30
 158 450 158 450 135.5 432.5 c 128,-1,31
 113 415 113 415 113 389 c 0,32,33
 113 362 113 362 142 344 c 0,34,35
 161 332 161 332 213 314 c 0,36,37
 319 278 319 278 319 211 c 0,38,39
 319 165 319 165 277 125 c 1,40,41
 301 101 301 101 301 65 c 0,0,1
282 206 m 0,42,43
 282 226 282 226 261 246.5 c 128,-1,44
 240 267 240 267 206 279 c 0,45,46
 146 299 146 299 123 313 c 1,47,48
 89 284 89 284 89 251 c 0,49,50
 89 223 89 223 124 202 c 0,51,52
 145 189 145 189 196 171 c 0,53,54
 243 154 243 154 256 144 c 1,55,56
 282 175 282 175 282 206 c 0,42,43
EndSplineSet
EndChar
StartChar: dieresis
Encoding: 168 168 107
Width: 212
Flags: W
Fore
75 422 m 256,0,1
 75 409 75 409 66 400.5 c 128,-1,2
 57 392 57 392 44 392 c 256,3,4
 31 392 31 392 22.5 400.5 c 128,-1,5
 14 409 14 409 14 422 c 256,6,7
 14 435 14 435 22.5 444 c 128,-1,8
 31 453 31 453 44 453 c 256,9,10
 57 453 57 453 66 444 c 128,-1,11
 75 435 75 435 75 422 c 256,0,1
199 422 m 256,12,13
 199 409 199 409 190 400.5 c 128,-1,14
 181 392 181 392 168 392 c 256,15,16
 155 392 155 392 146.5 400.5 c 128,-1,17
 138 409 138 409 138 422 c 256,18,19
 138 435 138 435 146.5 444 c 128,-1,20
 155 453 155 453 168 453 c 256,21,22
 181 453 181 453 190 444 c 128,-1,23
 199 435 199 435 199 422 c 256,12,13
EndSplineSet
EndChar
StartChar: copyright
Encoding: 169 169 108
Width: 536
Flags: W
Fore
370 117 m 1,0,1
 332 88 332 88 265 88 c 0,2,3
 200 88 200 88 161 130 c 128,-1,4
 122 172 122 172 122 233 c 0,5,6
 122 303 122 303 163 343.5 c 128,-1,7
 204 384 204 384 270 384 c 0,8,9
 333 384 333 384 365 360 c 1,10,-1
 353 330 l 1,11,12
 315 352 315 352 270 352 c 0,13,14
 162 346 162 346 162 238 c 0,15,16
 162 129 162 129 271 123 c 0,17,18
 322 123 322 123 357 148 c 1,19,-1
 370 117 l 1,0,1
511 240 m 256,20,21
 511 140 511 140 439.5 68.5 c 128,-1,22
 368 -3 368 -3 268 -3 c 256,23,24
 168 -3 168 -3 96.5 68.5 c 128,-1,25
 25 140 25 140 25 240 c 256,26,27
 25 340 25 340 96.5 411.5 c 128,-1,28
 168 483 168 483 268 483 c 256,29,30
 368 483 368 483 439.5 411.5 c 128,-1,31
 511 340 511 340 511 240 c 256,20,21
475 240 m 256,32,33
 475 326 475 326 414.5 386.5 c 128,-1,34
 354 447 354 447 268 447 c 256,35,36
 182 447 182 447 121.5 386.5 c 128,-1,37
 61 326 61 326 61 240 c 256,38,39
 61 154 61 154 121.5 93.5 c 128,-1,40
 182 33 182 33 268 33 c 256,41,42
 354 33 354 33 414.5 93.5 c 128,-1,43
 475 154 475 154 475 240 c 256,32,33
EndSplineSet
EndChar
StartChar: ordfeminine
Encoding: 170 170 109
Width: 246
Flags: W
Fore
212 247 m 1,0,-1
 181 247 l 1,1,-1
 176 280 l 1,2,3
 148 244 148 244 101 244 c 0,4,5
 24 244 24 244 24 312 c 0,6,7
 24 390 24 390 174 392 c 1,8,-1
 174 399 l 2,9,10
 174 413 174 413 166 426 c 0,11,12
 150 449 150 449 115 449 c 0,13,14
 81 449 81 449 53 428 c 1,15,-1
 42 453 l 1,16,17
 79 479 79 479 122 479 c 0,18,19
 209 479 209 479 209 372 c 2,20,-1
 209 305 l 2,21,22
 209 276 209 276 212 247 c 1,0,-1
174 322 m 2,23,-1
 174 364 l 1,24,25
 59 364 59 364 59 312 c 0,26,27
 59 274 59 274 107 274 c 0,28,29
 126 274 126 274 150 288.5 c 128,-1,30
 174 303 174 303 174 322 c 2,23,-1
EndSplineSet
EndChar
StartChar: guillemotleft
Encoding: 171 171 110
Width: 298
Flags: W
Fore
233 48 m 1,0,-1
 122 177 l 1,1,-1
 232 309 l 1,2,-1
 274 309 l 1,3,-1
 164 177 l 1,4,-1
 275 48 l 1,5,-1
 233 48 l 1,0,-1
122 48 m 1,6,-1
 11 177 l 1,7,-1
 121 309 l 1,8,-1
 163 309 l 1,9,-1
 53 177 l 1,10,-1
 164 48 l 1,11,-1
 122 48 l 1,6,-1
EndSplineSet
EndChar
StartChar: logicalnot
Encoding: 172 172 111
Width: 420
Flags: W
Fore
387 91 m 1,0,-1
 348 91 l 1,1,-1
 348 239 l 1,2,-1
 23 239 l 1,3,-1
 23 272 l 1,4,-1
 387 272 l 1,5,-1
 387 91 l 1,0,-1
EndSplineSet
EndChar
StartChar: registered
Encoding: 174 174 112
Width: 536
Flags: W
Fore
511 240 m 256,0,1
 511 140 511 140 439.5 68.5 c 128,-1,2
 368 -3 368 -3 268 -3 c 256,3,4
 168 -3 168 -3 96.5 68.5 c 128,-1,5
 25 140 25 140 25 240 c 256,6,7
 25 340 25 340 96.5 411.5 c 128,-1,8
 168 483 168 483 268 483 c 256,9,10
 368 483 368 483 439.5 411.5 c 128,-1,11
 511 340 511 340 511 240 c 256,0,1
475 240 m 256,12,13
 475 326 475 326 414.5 386.5 c 128,-1,14
 354 447 354 447 268 447 c 256,15,16
 182 447 182 447 121.5 386.5 c 128,-1,17
 61 326 61 326 61 240 c 256,18,19
 61 154 61 154 121.5 93.5 c 128,-1,20
 182 33 182 33 268 33 c 256,21,22
 354 33 354 33 414.5 93.5 c 128,-1,23
 475 154 475 154 475 240 c 256,12,13
380 93 m 1,24,-1
 341 93 l 1,25,26
 323 220 323 220 276 220 c 2,27,-1
 215 220 l 1,28,-1
 215 93 l 1,29,-1
 175 93 l 1,30,-1
 175 384 l 1,31,32
 211 391 211 391 258 392 c 0,33,34
 311 392 311 392 340.5 369.5 c 128,-1,35
 370 347 370 347 370 308 c 0,36,37
 370 256 370 256 329 234 c 1,38,39
 368 199 368 199 380 93 c 1,24,-1
331 303 m 0,40,41
 331 357 331 357 262 357 c 0,42,43
 235 357 235 357 215 354 c 1,44,-1
 215 257 l 1,45,-1
 269 257 l 2,46,47
 297 257 297 257 314 269 c 128,-1,48
 331 281 331 281 331 303 c 0,40,41
EndSplineSet
EndChar
StartChar: macron
Encoding: 175 175 113
Width: 352
Flags: W
Fore
352 559 m 1,0,-1
 352 528 l 1,1,-1
 0 528 l 1,2,-1
 0 559 l 1,3,-1
 352 559 l 1,0,-1
EndSplineSet
EndChar
StartChar: degree
Encoding: 176 176 114
Width: 212
Flags: W
Fore
191 397 m 256,0,1
 191 362 191 362 165.5 337 c 128,-1,2
 140 312 140 312 105 312 c 256,3,4
 70 312 70 312 45 337 c 128,-1,5
 20 362 20 362 20 397 c 256,6,7
 20 432 20 432 45 457.5 c 128,-1,8
 70 483 70 483 105 483 c 256,9,10
 140 483 140 483 165.5 457.5 c 128,-1,11
 191 432 191 432 191 397 c 256,0,1
161 397 m 256,12,13
 161 420 161 420 144.5 437 c 128,-1,14
 128 454 128 454 105 454 c 256,15,16
 82 454 82 454 66 437 c 128,-1,17
 50 420 50 420 50 397 c 256,18,19
 50 374 50 374 66 357.5 c 128,-1,20
 82 341 82 341 105 341 c 256,21,22
 128 341 128 341 144.5 357.5 c 128,-1,23
 161 374 161 374 161 397 c 256,12,13
EndSplineSet
EndChar
StartChar: plusminus
Encoding: 177 177 115
Width: 411
Flags: W
Fore
373 201 m 1,0,-1
 223 201 l 1,1,-1
 223 68 l 1,2,-1
 188 68 l 1,3,-1
 188 201 l 1,4,-1
 38 201 l 1,5,-1
 38 233 l 1,6,-1
 188 233 l 1,7,-1
 188 357 l 1,8,-1
 223 357 l 1,9,-1
 223 233 l 1,10,-1
 373 233 l 1,11,-1
 373 201 l 1,0,-1
373 0 m 1,12,-1
 38 0 l 1,13,-1
 38 32 l 1,14,-1
 373 32 l 1,15,-1
 373 0 l 1,12,-1
EndSplineSet
EndChar
StartChar: twosuperior
Encoding: 178 178 116
Width: 254
Flags: W
Fore
210 227 m 1,0,-1
 206 196 l 1,1,-1
 25 196 l 1,2,3
 27 237 27 237 94 301 c 0,4,5
 121 326 121 326 146.5 353 c 128,-1,6
 172 380 172 380 172 407 c 0,7,8
 172 450 172 450 129 450 c 0,9,10
 81 450 81 450 76 395 c 1,11,-1
 42 401 l 1,12,13
 46 439 46 439 69 460 c 128,-1,14
 92 481 92 481 126 481 c 0,15,16
 161 481 161 481 183.5 461 c 128,-1,17
 206 441 206 441 206 407 c 0,18,19
 206 366 206 366 152 310 c 0,20,21
 112 268 112 268 71 227 c 1,22,-1
 210 227 l 1,0,-1
EndSplineSet
EndChar
StartChar: threesuperior
Encoding: 179 179 117
Width: 254
Flags: W
Fore
215 298 m 0,0,1
 215 252 215 252 185 224.5 c 128,-1,2
 155 197 155 197 106 196 c 0,3,4
 62 195 62 195 35 216 c 1,5,-1
 50 248 l 1,6,7
 73 229 73 229 103 229 c 0,8,9
 140 229 140 229 161 248 c 128,-1,10
 182 267 182 267 182 297 c 0,11,12
 182 341 182 341 140 341 c 0,13,14
 112 341 112 341 96 327 c 1,15,-1
 82 352 l 1,16,17
 132 387 132 387 138 392 c 0,18,19
 161 411 161 411 161 429 c 0,20,21
 161 449 161 449 128 449 c 0,22,23
 87 449 87 449 70 405 c 1,24,-1
 41 420 l 1,25,26
 68 482 68 482 131 482 c 256,27,28
 194 482 194 482 194 430 c 0,29,30
 194 412 194 412 180 393 c 128,-1,31
 166 374 166 374 149 367 c 1,32,33
 215 363 215 363 215 298 c 0,0,1
EndSplineSet
EndChar
StartChar: acute
Encoding: 180 180 118
Width: 212
Flags: W
Fore
85 528 m 1,0,-1
 54 528 l 1,1,-1
 104 619 l 1,2,-1
 154 619 l 1,3,-1
 85 528 l 1,0,-1
EndSplineSet
EndChar
StartChar: mu
Encoding: 181 181 119
Width: 406
Flags: W
Fore
358 0 m 1,0,-1
 321 0 l 1,1,2
 316 28 316 28 316 52 c 2,3,-1
 316 63 l 1,4,5
 259 -9 259 -9 188 -9 c 0,6,7
 130 -9 130 -9 95 42 c 1,8,-1
 95 -140 l 1,9,-1
 57 -140 l 1,10,-1
 57 340 l 1,11,-1
 95 340 l 1,12,-1
 95 146 l 2,13,14
 95 25 95 25 197 25 c 0,15,16
 241 25 241 25 277 58.5 c 128,-1,17
 313 92 313 92 313 133 c 2,18,-1
 313 340 l 1,19,-1
 351 340 l 1,20,-1
 351 83 l 2,21,22
 351 21 351 21 358 0 c 1,0,-1
EndSplineSet
EndChar
StartChar: paragraph
Encoding: 182 182 120
Width: 374
Flags: W
Fore
321 -63 m 1,0,-1
 287 -63 l 1,1,-1
 287 443 l 1,2,-1
 239 443 l 1,3,-1
 239 -63 l 1,4,-1
 204 -63 l 1,5,-1
 204 180 l 1,6,-1
 200 180 l 2,7,8
 140 180 140 180 96 215 c 0,9,10
 45 255 45 255 45 321 c 0,11,12
 45 475 45 475 243 475 c 0,13,14
 296 475 296 475 321 470 c 1,15,-1
 321 -63 l 1,0,-1
EndSplineSet
EndChar
StartChar: periodcentered
Encoding: 183 183 121
Width: 162
Flags: W
Fore
115 181 m 256,0,1
 115 167 115 167 104.5 157 c 128,-1,2
 94 147 94 147 80 147 c 256,3,4
 66 147 66 147 56 157 c 128,-1,5
 46 167 46 167 46 181 c 256,6,7
 46 195 46 195 56 205.5 c 128,-1,8
 66 216 66 216 80 216 c 256,9,10
 94 216 94 216 104.5 205.5 c 128,-1,11
 115 195 115 195 115 181 c 256,0,1
EndSplineSet
EndChar
StartChar: cedilla
Encoding: 184 184 122
Width: 212
Flags: W
Fore
153 -81 m 0,0,1
 153 -139 153 -139 83 -139 c 0,2,3
 59 -139 59 -139 35 -126 c 1,4,-1
 45 -104 l 1,5,6
 66 -114 66 -114 84 -114 c 0,7,8
 122 -114 122 -114 122 -86 c 0,9,10
 122 -61 122 -61 59 -56 c 1,11,-1
 98 4 l 1,12,-1
 130 4 l 1,13,-1
 103 -34 l 1,14,15
 153 -46 153 -46 153 -81 c 0,0,1
EndSplineSet
EndChar
StartChar: onesuperior
Encoding: 185 185 123
Width: 254
Flags: W
Fore
194 201 m 1,0,-1
 72 201 l 1,1,-1
 72 225 l 1,2,-1
 116 225 l 1,3,-1
 116 430 l 1,4,-1
 78 397 l 1,5,-1
 59 421 l 1,6,-1
 130 484 l 1,7,8
 151 482 151 482 151 456 c 2,9,-1
 151 225 l 1,10,-1
 194 225 l 1,11,-1
 194 201 l 1,0,-1
EndSplineSet
EndChar
StartChar: ordmasculine
Encoding: 186 186 124
Width: 285
Flags: W
Fore
265 360 m 0,0,1
 265 310 265 310 228 274 c 128,-1,2
 191 238 191 238 142 238 c 0,3,4
 92 238 92 238 56 274 c 128,-1,5
 20 310 20 310 20 360 c 0,6,7
 20 409 20 409 56 446 c 128,-1,8
 92 483 92 483 142 483 c 0,9,10
 191 483 191 483 228 446 c 128,-1,11
 265 409 265 409 265 360 c 0,0,1
230 360 m 256,12,13
 230 396 230 396 204 422 c 128,-1,14
 178 448 178 448 142 448 c 256,15,16
 106 448 106 448 80.5 422 c 128,-1,17
 55 396 55 396 55 360 c 256,18,19
 55 324 55 324 80.5 298.5 c 128,-1,20
 106 273 106 273 142 273 c 256,21,22
 178 273 178 273 204 298.5 c 128,-1,23
 230 324 230 324 230 360 c 256,12,13
EndSplineSet
EndChar
StartChar: guillemotright
Encoding: 187 187 125
Width: 294
Flags: W
Fore
61 48 m 1,0,-1
 19 48 l 1,1,-1
 130 177 l 1,2,-1
 20 309 l 1,3,-1
 62 309 l 1,4,-1
 172 177 l 1,5,-1
 61 48 l 1,0,-1
172 48 m 1,6,-1
 130 48 l 1,7,-1
 241 177 l 1,8,-1
 131 309 l 1,9,-1
 173 309 l 1,10,-1
 283 177 l 1,11,-1
 172 48 l 1,6,-1
EndSplineSet
EndChar
StartChar: onequarter
Encoding: 188 188 126
Width: 536
Flags: W
Fore
423 95 m 1,0,-1
 423 243 l 1,1,2
 395 219 395 219 372 171 c 0,3,4
 350 127 350 127 348 95 c 1,5,-1
 423 95 l 1,0,-1
500 62 m 1,6,-1
 458 62 l 1,7,-1
 458 0 l 1,8,-1
 423 0 l 1,9,-1
 423 62 l 1,10,-1
 311 62 l 1,11,12
 312 129 312 129 349 199 c 0,13,14
 393 284 393 284 458 286 c 1,15,-1
 458 95 l 1,16,-1
 502 95 l 1,17,-1
 500 62 l 1,6,-1
146 -9 m 1,18,-1
 113 -9 l 1,19,-1
 397 467 l 1,20,-1
 430 467 l 1,21,-1
 146 -9 l 1,18,-1
165 186 m 1,22,-1
 43 186 l 1,23,-1
 43 210 l 1,24,-1
 87 210 l 1,25,-1
 87 411 l 1,26,-1
 49 378 l 1,27,-1
 30 402 l 1,28,-1
 101 465 l 1,29,30
 122 463 122 463 122 437 c 2,31,-1
 122 210 l 1,32,-1
 165 210 l 1,33,-1
 165 186 l 1,22,-1
EndSplineSet
Ligature: 0 0 'frac' one fraction four
Ligature: 0 0 'frac' one slash four
EndChar
StartChar: onehalf
Encoding: 189 189 127
Width: 536
Flags: W
Fore
146 -9 m 1,0,-1
 113 -9 l 1,1,-1
 397 467 l 1,2,-1
 430 467 l 1,3,-1
 146 -9 l 1,0,-1
165 186 m 1,4,-1
 43 186 l 1,5,-1
 43 210 l 1,6,-1
 87 210 l 1,7,-1
 87 411 l 1,8,-1
 49 378 l 1,9,-1
 30 402 l 1,10,-1
 101 465 l 1,11,12
 122 463 122 463 122 437 c 2,13,-1
 122 210 l 1,14,-1
 165 210 l 1,15,-1
 165 186 l 1,4,-1
506 0 m 1,16,-1
 325 0 l 1,17,18
 327 41 327 41 394 105 c 0,19,20
 421 130 421 130 446.5 157 c 128,-1,21
 472 184 472 184 472 211 c 0,22,23
 472 254 472 254 429 254 c 0,24,25
 381 254 381 254 376 199 c 1,26,-1
 342 205 l 1,27,28
 346 243 346 243 369 264 c 128,-1,29
 392 285 392 285 426 285 c 0,30,31
 462 285 462 285 484.5 265.5 c 128,-1,32
 507 246 507 246 507 211 c 0,33,34
 507 170 507 170 453 114 c 0,35,36
 412 72 412 72 375 31 c 1,37,-1
 510 31 l 1,38,-1
 506 0 l 1,16,-1
EndSplineSet
Ligature: 0 0 'frac' one fraction two
Ligature: 0 0 'frac' one slash two
EndChar
StartChar: threequarters
Encoding: 190 190 128
Width: 536
Flags: W
Fore
146 -9 m 1,0,-1
 113 -9 l 1,1,-1
 397 467 l 1,2,-1
 430 467 l 1,3,-1
 146 -9 l 1,0,-1
215 286 m 0,4,5
 215 240 215 240 185 212.5 c 128,-1,6
 155 185 155 185 106 184 c 0,7,8
 62 183 62 183 35 204 c 1,9,-1
 50 236 l 1,10,11
 73 217 73 217 103 217 c 0,12,13
 140 217 140 217 161 236 c 128,-1,14
 182 255 182 255 182 285 c 0,15,16
 182 329 182 329 140 329 c 0,17,18
 112 329 112 329 96 315 c 1,19,-1
 82 340 l 1,20,21
 132 375 132 375 138 380 c 0,22,23
 161 399 161 399 161 417 c 0,24,25
 161 437 161 437 128 437 c 0,26,27
 83 437 83 437 70 393 c 1,28,-1
 41 408 l 1,29,30
 68 470 68 470 131 470 c 256,31,32
 194 470 194 470 194 418 c 0,33,34
 194 400 194 400 180 381 c 128,-1,35
 166 362 166 362 149 355 c 1,36,37
 215 345 215 345 215 286 c 0,4,5
423 95 m 1,38,-1
 423 243 l 1,39,40
 395 219 395 219 372 171 c 0,41,42
 350 127 350 127 348 95 c 1,43,-1
 423 95 l 1,38,-1
500 62 m 1,44,-1
 458 62 l 1,45,-1
 458 0 l 1,46,-1
 423 0 l 1,47,-1
 423 62 l 1,48,-1
 311 62 l 1,49,50
 312 129 312 129 349 199 c 0,51,52
 393 284 393 284 458 286 c 1,53,-1
 458 95 l 1,54,-1
 502 95 l 1,55,-1
 500 62 l 1,44,-1
EndSplineSet
Ligature: 0 0 'frac' three fraction four
Ligature: 0 0 'frac' three slash four
EndChar
StartChar: questiondown
Encoding: 191 191 129
Width: 289
Flags: W
Fore
250 -122 m 1,0,1
 202 -153 202 -153 148 -153 c 0,2,3
 91 -153 91 -153 61 -120 c 0,4,5
 34 -91 34 -91 34 -48 c 0,6,7
 34 5 34 5 97 72 c 0,8,9
 146 124 146 124 146 175 c 0,10,11
 146 193 146 193 143 207 c 1,12,-1
 177 207 l 1,13,14
 182 192 182 192 182 172 c 0,15,16
 182 119 182 119 127.5 58 c 128,-1,17
 73 -3 73 -3 73 -46 c 0,18,19
 73 -118 73 -118 155 -118 c 0,20,21
 202 -118 202 -118 235 -92 c 1,22,-1
 250 -122 l 1,0,1
198 304 m 256,23,24
 198 289 198 289 187 278 c 128,-1,25
 176 267 176 267 161 267 c 256,26,27
 146 267 146 267 135 278 c 128,-1,28
 124 289 124 289 124 304 c 256,29,30
 124 319 124 319 135 330 c 128,-1,31
 146 341 146 341 161 341 c 256,32,33
 176 341 176 341 187 330 c 128,-1,34
 198 319 198 319 198 304 c 256,23,24
EndSplineSet
EndChar
StartChar: AE
Encoding: 198 198 136
Width: 582
Flags: W
Fore
544 0 m 1,0,-1
 330 0 l 1,1,-1
 302 196 l 1,2,-1
 138 196 l 1,3,-1
 34 0 l 1,4,-1
 -7 0 l 1,5,-1
 248 476 l 1,6,-1
 532 476 l 1,7,-1
 532 443 l 1,8,-1
 304 443 l 1,9,-1
 328 267 l 1,10,-1
 521 267 l 1,11,-1
 521 234 l 1,12,-1
 333 234 l 1,13,-1
 363 33 l 1,14,-1
 544 33 l 1,15,-1
 544 0 l 1,0,-1
297 228 m 1,16,-1
 270 448 l 1,17,-1
 154 228 l 1,18,-1
 297 228 l 1,16,-1
EndSplineSet
EndChar
StartChar: Eth
Encoding: 208 208 146
Width: 431
Flags: W
Fore
402 248 m 0,0,1
 402 -4 402 -4 176 -4 c 0,2,3
 146 -4 146 -4 54 5 c 1,4,-1
 54 213 l 1,5,-1
 5 213 l 1,6,-1
 5 246 l 1,7,-1
 54 246 l 1,8,-1
 54 469 l 1,9,10
 146 481 146 481 196 481 c 0,11,12
 287 481 287 481 344 420 c 0,13,14
 402 356 402 356 402 248 c 0,0,1
363 248 m 0,15,16
 363 343 363 343 313 397 c 0,17,18
 267 447 267 447 193 447 c 0,19,20
 162 447 162 447 93 439 c 1,21,-1
 93 246 l 1,22,-1
 261 246 l 1,23,-1
 261 213 l 1,24,-1
 93 213 l 1,25,-1
 93 36 l 1,26,27
 143 30 143 30 188 30 c 0,28,29
 269 30 269 30 316 87.5 c 128,-1,30
 363 145 363 145 363 248 c 0,15,16
EndSplineSet
EndChar
StartChar: multiply
Encoding: 215 215 153
Width: 411
Flags: W
Fore
337 11 m 1,0,-1
 205 149 l 1,1,-1
 73 11 l 1,2,-1
 47 35 l 1,3,-1
 179 174 l 1,4,-1
 47 313 l 1,5,-1
 73 337 l 1,6,-1
 205 199 l 1,7,-1
 337 337 l 1,8,-1
 363 313 l 1,9,-1
 231 174 l 1,10,-1
 363 35 l 1,11,-1
 337 11 l 1,0,-1
EndSplineSet
EndChar
StartChar: Oslash
Encoding: 216 216 154
Width: 486
Flags: W
Fore
464 237 m 256,0,1
 464 130 464 130 402.5 60 c 128,-1,2
 341 -10 341 -10 243 -10 c 0,3,4
 192 -10 192 -10 151 8 c 1,5,-1
 133 -29 l 1,6,-1
 95 -29 l 1,7,-1
 121 25 l 1,8,9
 101 40 101 40 83 60 c 0,10,11
 22 130 22 130 22 237 c 256,12,13
 22 344 22 344 83.5 414 c 128,-1,14
 145 484 145 484 243 484 c 0,15,16
 294 484 294 484 336 464 c 1,17,-1
 350 493 l 1,18,-1
 391 493 l 1,19,-1
 367 446 l 1,20,21
 386 432 386 432 402 414 c 0,22,23
 464 344 464 344 464 237 c 256,0,1
320 432 m 1,24,25
 285 450 285 450 243 450 c 0,26,27
 163 450 163 450 112 387.5 c 128,-1,28
 61 325 61 325 61 237 c 256,29,30
 61 149 61 149 112 86 c 0,31,32
 124 71 124 71 138 60 c 1,33,-1
 320 432 l 1,24,25
425 237 m 256,34,35
 425 325 425 325 374 387 c 0,36,37
 363 401 363 401 350 411 c 1,38,-1
 167 41 l 1,39,40
 201 24 201 24 243 24 c 0,41,42
 323 24 323 24 374 86.5 c 128,-1,43
 425 149 425 149 425 237 c 256,34,35
EndSplineSet
EndChar
StartChar: Thorn
Encoding: 222 222 160
Width: 380
Flags: W
Fore
351 262 m 0,0,1
 351 187 351 187 300.5 148.5 c 128,-1,2
 250 110 250 110 163 110 c 0,3,4
 138 110 138 110 98 118 c 1,5,-1
 98 0 l 1,6,-1
 60 0 l 1,7,-1
 60 476 l 1,8,-1
 98 476 l 1,9,-1
 98 382 l 1,10,11
 140 393 140 393 180 393 c 0,12,13
 247 393 247 393 296 361 c 0,14,15
 351 324 351 324 351 262 c 0,0,1
314 257 m 0,16,17
 314 310 314 310 273 338 c 0,18,19
 238 361 238 361 180 361 c 0,20,21
 143 361 143 361 98 347 c 1,22,-1
 98 153 l 1,23,24
 134 142 134 142 165 142 c 0,25,26
 237 142 237 142 275.5 172.5 c 128,-1,27
 314 203 314 203 314 257 c 0,16,17
EndSplineSet
EndChar
StartChar: germandbls
Encoding: 223 223 161
Width: 392
Flags: W
Fore
356 102 m 0,0,1
 356 53 356 53 326 23 c 0,2,3
 293 -9 293 -9 235 -9 c 0,4,5
 186 -9 186 -9 150 11 c 1,6,-1
 162 44 l 1,7,8
 200 24 200 24 236 24 c 0,9,10
 276 24 276 24 298 44.5 c 128,-1,11
 320 65 320 65 320 96 c 0,12,13
 320 130 320 130 269 174.5 c 128,-1,14
 218 219 218 219 218 257 c 0,15,16
 218 284 218 284 252 316.5 c 128,-1,17
 286 349 286 349 286 369 c 0,18,19
 286 451 286 451 199 451 c 0,20,21
 99 451 99 451 99 287 c 2,22,-1
 99 -54 l 2,23,24
 99 -108 99 -108 77 -148 c 1,25,-1
 41 -138 l 1,26,27
 60 -99 60 -99 60 -54 c 2,28,-1
 60 304 l 2,29,30
 60 487 60 487 206 487 c 0,31,32
 256 487 256 487 289.5 455.5 c 128,-1,33
 323 424 323 424 323 371 c 0,34,35
 323 331 323 331 290 304 c 128,-1,36
 257 277 257 277 257 254 c 0,37,38
 257 237 257 237 290 208 c 128,-1,39
 323 179 323 179 330 169 c 0,40,41
 356 134 356 134 356 102 c 0,0,1
EndSplineSet
EndChar
StartChar: ae
Encoding: 230 230 168
Width: 608
Flags: W
Fore
550 48 m 1,0,-1
 553 15 l 1,1,2
 495 -9 495 -9 427 -9 c 0,3,4
 324 -9 324 -9 275 78 c 1,5,6
 247 -9 247 -9 134 -9 c 0,7,8
 90 -9 90 -9 58 16 c 128,-1,9
 26 41 26 41 26 85 c 0,10,11
 26 212 26 212 247 212 c 2,12,-1
 253 212 l 1,13,-1
 253 218 l 2,14,15
 253 251 253 251 238 276 c 0,16,17
 215 316 215 316 160 316 c 0,18,19
 125 316 125 316 52 293 c 1,20,-1
 47 329 l 1,21,22
 103 347 103 347 163 347 c 0,23,24
 255 347 255 347 282 271 c 1,25,26
 330 347 330 347 423 347 c 0,27,28
 566 347 566 347 569 168 c 1,29,-1
 291 168 l 1,30,31
 293 100 293 100 331.5 62.5 c 128,-1,32
 370 25 370 25 431 25 c 0,33,34
 491 25 491 25 550 48 c 1,0,-1
253 143 m 2,35,-1
 253 178 l 1,36,37
 67 178 67 178 67 92 c 0,38,39
 67 59 67 59 87 41.5 c 128,-1,40
 107 24 107 24 137 24 c 0,41,42
 181 24 181 24 212 47 c 0,43,44
 253 78 253 78 253 143 c 2,35,-1
293 199 m 1,45,-1
 532 199 l 1,46,47
 531 240 531 240 509 272 c 0,48,49
 479 316 479 316 418 316 c 0,50,51
 363 316 363 316 328 276 c 0,52,53
 300 244 300 244 293 199 c 1,45,-1
EndSplineSet
EndChar
StartChar: eth
Encoding: 240 240 178
Width: 362
Flags: W
Fore
322 163 m 0,0,1
 322 90 322 90 286 42 c 0,2,3
 245 -12 245 -12 174 -12 c 0,4,5
 111 -12 111 -12 74.5 32 c 128,-1,6
 38 76 38 76 38 141 c 0,7,8
 38 204 38 204 75 249 c 128,-1,9
 112 294 112 294 171 294 c 0,10,11
 213 294 213 294 245 274 c 0,12,13
 268 258 268 258 273 244 c 1,14,15
 250 322 250 322 189 380 c 1,16,-1
 102 325 l 1,17,-1
 85 352 l 1,18,-1
 163 402 l 1,19,20
 118 436 118 436 67 451 c 1,21,-1
 70 480 l 1,22,23
 141 466 141 466 196 423 c 1,24,-1
 271 472 l 1,25,-1
 288 445 l 1,26,-1
 221 401 l 1,27,28
 237 386 237 386 251 368 c 0,29,30
 322 278 322 278 322 163 c 0,0,1
282 141 m 0,31,32
 282 191 282 191 252 226 c 128,-1,33
 222 261 222 261 179 261 c 0,34,35
 132 261 132 261 105 226 c 128,-1,36
 78 191 78 191 78 141 c 0,37,38
 78 92 78 92 104.5 57 c 128,-1,39
 131 22 131 22 179 22 c 0,40,41
 222 22 222 22 252 57 c 128,-1,42
 282 92 282 92 282 141 c 0,31,32
EndSplineSet
EndChar
StartChar: divide
Encoding: 247 247 185
Width: 411
Flags: W
Fore
239 302 m 256,0,1
 239 288 239 288 230 277.5 c 128,-1,2
 221 267 221 267 207 267 c 0,3,4
 192 267 192 267 183 277.5 c 128,-1,5
 174 288 174 288 174 302 c 0,6,7
 175 316 175 316 184 326 c 128,-1,8
 193 336 193 336 207 336 c 256,9,10
 221 336 221 336 230 326 c 128,-1,11
 239 316 239 316 239 302 c 256,0,1
238 59 m 256,12,13
 238 45 238 45 229 35 c 128,-1,14
 220 25 220 25 206 25 c 0,15,16
 191 25 191 25 182.5 35 c 128,-1,17
 174 45 174 45 174 59 c 256,18,19
 174 73 174 73 183 83.5 c 128,-1,20
 192 94 192 94 207 94 c 0,21,22
 221 94 221 94 229.5 83.5 c 128,-1,23
 238 73 238 73 238 59 c 256,12,13
373 165 m 1,24,-1
 38 165 l 1,25,-1
 38 198 l 1,26,-1
 373 198 l 1,27,-1
 373 165 l 1,24,-1
EndSplineSet
EndChar
StartChar: oslash
Encoding: 248 248 186
Width: 398
Flags: W
Fore
370 169 m 0,0,1
 370 94 370 94 323 42 c 128,-1,2
 276 -10 276 -10 199 -10 c 0,3,4
 155 -10 155 -10 115 10 c 1,5,-1
 91 -29 l 1,6,-1
 51 -29 l 1,7,-1
 87 30 l 1,8,9
 28 81 28 81 28 169 c 0,10,11
 28 244 28 244 75 295.5 c 128,-1,12
 122 347 122 347 199 347 c 0,13,14
 235 347 235 347 272 332 c 1,15,-1
 303 383 l 1,16,-1
 346 383 l 1,17,-1
 303 314 l 1,18,19
 370 263 370 263 370 169 c 0,0,1
332 169 m 0,20,21
 332 240 332 240 284 283 c 1,22,-1
 134 40 l 1,23,24
 163 23 163 23 199 23 c 0,25,26
 257 23 257 23 294.5 65 c 128,-1,27
 332 107 332 107 332 169 c 0,20,21
106 61 m 1,28,-1
 254 302 l 1,29,30
 229 314 229 314 199 314 c 0,31,32
 141 314 141 314 103.5 272.5 c 128,-1,33
 66 231 66 231 66 169 c 0,34,35
 66 104 66 104 106 61 c 1,28,-1
EndSplineSet
EndChar
StartChar: thorn
Encoding: 254 254 192
Width: 432
Flags: W
Fore
401 176 m 0,0,1
 401 89 401 89 349 38 c 0,2,3
 301 -9 301 -9 227 -9 c 0,4,5
 145 -9 145 -9 99 53 c 1,6,-1
 99 -140 l 1,7,-1
 61 -140 l 1,8,-1
 61 470 l 1,9,-1
 99 470 l 1,10,-1
 99 278 l 1,11,12
 150 347 150 347 238 347 c 0,13,14
 310 347 310 347 357 296 c 0,15,16
 401 248 401 248 401 176 c 0,0,1
364 175 m 0,17,18
 364 236 364 236 327.5 276 c 128,-1,19
 291 316 291 316 231 316 c 0,20,21
 140 316 140 316 107 233 c 0,22,23
 99 213 99 213 99 193 c 2,24,-1
 99 134 l 2,25,26
 99 124 99 124 104 104 c 1,27,28
 119 70 119 70 152.5 47 c 128,-1,29
 186 24 186 24 230 24 c 0,30,31
 289 24 289 24 326.5 64 c 128,-1,32
 364 104 364 104 364 175 c 0,17,18
EndSplineSet
EndChar
StartChar: dotlessi
Encoding: 305 305 194
Width: 143
Flags: W
Fore
90 0 m 1,0,-1
 52 0 l 1,1,-1
 52 340 l 1,2,-1
 90 340 l 1,3,-1
 90 0 l 1,0,-1
EndSplineSet
EndChar
StartChar: Lslash
Encoding: 321 321 195
Width: 361
Flags: W
Fore
333 0 m 1,0,-1
 60 0 l 1,1,-1
 60 194 l 1,2,-1
 27 184 l 1,3,-1
 18 215 l 1,4,-1
 60 228 l 1,5,-1
 60 476 l 1,6,-1
 99 476 l 1,7,-1
 99 241 l 1,8,-1
 316 310 l 1,9,-1
 316 273 l 1,10,-1
 99 207 l 1,11,-1
 99 33 l 1,12,-1
 333 33 l 1,13,-1
 333 0 l 1,0,-1
EndSplineSet
EndChar
StartChar: lslash
Encoding: 322 322 196
Width: 209
Flags: W
Fore
181 268 m 1,0,-1
 181 233 l 1,1,-1
 99 206 l 1,2,-1
 99 186 l 2,3,4
 99 112 99 112 112 80 c 0,5,6
 131 29 131 29 190 27 c 1,7,-1
 186 -7 l 1,8,9
 60 -1 60 -1 60 171 c 2,10,-1
 60 194 l 1,11,-1
 27 184 l 1,12,-1
 18 215 l 1,13,-1
 60 228 l 1,14,-1
 60 505 l 1,15,-1
 99 505 l 1,16,-1
 99 241 l 1,17,-1
 181 268 l 1,0,-1
EndSplineSet
EndChar
StartChar: OE
Encoding: 338 338 197
Width: 711
Flags: W
Fore
673 33 m 1,0,-1
 673 0 l 1,1,-1
 414 0 l 1,2,-1
 414 74 l 1,3,4
 351 -10 351 -10 243 -10 c 0,5,6
 145 -10 145 -10 83.5 60 c 128,-1,7
 22 130 22 130 22 237 c 256,8,9
 22 344 22 344 83.5 414 c 128,-1,10
 145 484 145 484 243 484 c 0,11,12
 351 484 351 484 414 400 c 1,13,-1
 414 476 l 1,14,-1
 673 476 l 1,15,-1
 673 443 l 1,16,-1
 453 443 l 1,17,-1
 453 268 l 1,18,-1
 649 268 l 1,19,-1
 649 235 l 1,20,-1
 453 235 l 1,21,-1
 453 33 l 1,22,-1
 673 33 l 1,0,-1
414 145 m 1,23,-1
 414 320 l 1,24,25
 407 369 407 369 357 409 c 0,26,27
 304 450 304 450 243 450 c 0,28,29
 163 450 163 450 112 387.5 c 128,-1,30
 61 325 61 325 61 237 c 256,31,32
 61 149 61 149 112 86.5 c 128,-1,33
 163 24 163 24 243 24 c 0,34,35
 300 24 300 24 345.5 57 c 128,-1,36
 391 90 391 90 414 145 c 1,23,-1
EndSplineSet
EndChar
StartChar: oe
Encoding: 339 339 198
Width: 679
Flags: W
Fore
629 48 m 1,0,-1
 632 15 l 1,1,2
 574 -9 574 -9 506 -9 c 0,3,4
 396 -9 396 -9 349 81 c 1,5,6
 304 -10 304 -10 199 -10 c 0,7,8
 122 -10 122 -10 75 42 c 128,-1,9
 28 94 28 94 28 169 c 256,10,11
 28 244 28 244 75 295.5 c 128,-1,12
 122 347 122 347 199 347 c 0,13,14
 307 347 307 347 351 254 c 1,15,16
 394 347 394 347 502 347 c 0,17,18
 645 347 645 347 648 168 c 1,19,-1
 370 168 l 1,20,21
 370 97 370 97 409 61 c 128,-1,22
 448 25 448 25 510 25 c 0,23,24
 569 25 569 25 629 48 c 1,0,-1
332 169 m 0,25,26
 333 230 333 230 295.5 272 c 128,-1,27
 258 314 258 314 199 314 c 0,28,29
 141 314 141 314 103.5 272.5 c 128,-1,30
 66 231 66 231 66 169 c 256,31,32
 66 107 66 107 103.5 65 c 128,-1,33
 141 23 141 23 199 23 c 0,34,35
 256 23 256 23 293.5 64.5 c 128,-1,36
 331 106 331 106 332 169 c 0,25,26
611 199 m 1,37,38
 609 250 609 250 578.5 283 c 128,-1,39
 548 316 548 316 497 316 c 0,40,41
 448 316 448 316 414 283.5 c 128,-1,42
 380 251 380 251 372 199 c 1,43,-1
 611 199 l 1,37,38
EndSplineSet
EndChar
StartChar: florin
Encoding: 402 402 204
Width: 398
Flags: W
Fore
409 446 m 1,0,-1
 392 418 l 1,1,2
 373 429 373 429 345 429 c 0,3,4
 267 429 267 429 238 302 c 2,5,-1
 232 276 l 1,6,-1
 330 276 l 1,7,-1
 324 245 l 1,8,-1
 226 245 l 1,9,-1
 192 88 l 2,10,11
 157 -72 157 -72 37 -72 c 0,12,13
 -1 -72 -1 -72 -17 -56 c 1,14,-1
 0 -28 l 1,15,16
 19 -39 19 -39 47 -39 c 0,17,18
 125 -39 125 -39 153 88 c 2,19,-1
 187 245 l 1,20,-1
 130 245 l 1,21,-1
 136 276 l 1,22,-1
 194 276 l 1,23,-1
 200 302 l 2,24,25
 237 462 237 462 355 462 c 0,26,27
 393 462 393 462 409 446 c 1,0,-1
EndSplineSet
EndChar
StartChar: circumflex
Encoding: 710 710 205
Width: 212
Flags: W
Fore
120 470 m 1,0,-1
 189 392 l 1,1,-1
 152 392 l 1,2,-1
 106 444 l 1,3,-1
 60 392 l 1,4,-1
 23 392 l 1,5,-1
 92 470 l 1,6,-1
 120 470 l 1,0,-1
EndSplineSet
EndChar
StartChar: caron
Encoding: 711 711 206
Width: 212
Flags: W
Fore
120 384 m 1,0,-1
 92 384 l 1,1,-1
 23 462 l 1,2,-1
 60 462 l 1,3,-1
 106 410 l 1,4,-1
 152 462 l 1,5,-1
 189 462 l 1,6,-1
 120 384 l 1,0,-1
EndSplineSet
EndChar
StartChar: breve
Encoding: 728 728 207
Width: 302
Flags: W
Fore
239 453 m 1,0,1
 234 426 234 426 215 409 c 0,2,3
 189 385 189 385 150 385 c 256,4,5
 111 385 111 385 84 409 c 0,6,7
 66 426 66 426 60 453 c 1,8,-1
 95 453 l 1,9,10
 99 442 99 442 106 434 c 0,11,12
 122 416 122 416 150 416 c 256,13,14
 178 416 178 416 193 434 c 0,15,16
 201 442 201 442 205 453 c 1,17,-1
 239 453 l 1,0,1
EndSplineSet
EndChar
StartChar: dotaccent
Encoding: 729 729 208
Width: 302
Flags: W
Fore
185 540 m 256,0,1
 185 526 185 526 175 516.5 c 128,-1,2
 165 507 165 507 150 507 c 0,3,4
 136 507 136 507 126.5 516.5 c 128,-1,5
 117 526 117 526 117 540 c 256,6,7
 117 554 117 554 126.5 564.5 c 128,-1,8
 136 575 136 575 150 575 c 0,9,10
 165 575 165 575 175 564.5 c 128,-1,11
 185 554 185 554 185 540 c 256,0,1
EndSplineSet
EndChar
StartChar: ring
Encoding: 730 730 209
Width: 302
Flags: W
Fore
223 440 m 0,0,1
 223 411 223 411 201.5 389.5 c 128,-1,2
 180 368 180 368 149 368 c 0,3,4
 120 368 120 368 98.5 389.5 c 128,-1,5
 77 411 77 411 77 440 c 0,6,7
 77 471 77 471 98.5 493 c 128,-1,8
 120 515 120 515 149 515 c 0,9,10
 180 515 180 515 201.5 493 c 128,-1,11
 223 471 223 471 223 440 c 0,0,1
194 439 m 0,12,13
 194 458 194 458 181.5 470.5 c 128,-1,14
 169 483 169 483 150 483 c 0,15,16
 132 483 132 483 120 470.5 c 128,-1,17
 108 458 108 458 108 439 c 0,18,19
 108 422 108 422 120 410 c 128,-1,20
 132 398 132 398 150 398 c 0,21,22
 169 398 169 398 181.5 410 c 128,-1,23
 194 422 194 422 194 439 c 0,12,13
EndSplineSet
EndChar
StartChar: ogonek
Encoding: 731 731 210
Width: 302
Flags: W
Fore
218 -143 m 1,0,1
 199 -151 199 -151 183 -154.5 c 128,-1,2
 167 -158 167 -158 150 -158 c 0,3,4
 114 -158 114 -158 97 -136.5 c 128,-1,5
 80 -115 80 -115 80 -86 c 0,6,7
 80 -68 80 -68 85 -45 c 128,-1,8
 90 -22 90 -22 98 4 c 1,9,-1
 138 4 l 1,10,11
 119 -45 119 -45 119 -76 c 0,12,13
 119 -119 119 -119 158 -122 c 0,14,15
 188 -122 188 -122 217 -107 c 1,16,-1
 218 -143 l 1,0,1
EndSplineSet
EndChar
StartChar: tilde
Encoding: 732 732 211
Width: 212
Flags: W
Fore
193 457 m 1,0,1
 192 431 192 431 179.5 413 c 128,-1,2
 167 395 167 395 144 395 c 0,3,4
 135 395 135 395 124.5 399.5 c 128,-1,5
 114 404 114 404 103.5 409 c 128,-1,6
 93 414 93 414 83.5 418.5 c 128,-1,7
 74 423 74 423 67 423 c 0,8,9
 59 423 59 423 54 414 c 128,-1,10
 49 405 49 405 48 391 c 1,11,-1
 23 391 l 1,12,13
 24 415 24 415 33.5 435 c 128,-1,14
 43 455 43 455 66 455 c 0,15,16
 76 455 76 455 86 450.5 c 128,-1,17
 96 446 96 446 106 440 c 128,-1,18
 116 434 116 434 126 429.5 c 128,-1,19
 136 425 136 425 147 425 c 0,20,21
 154 425 154 425 160 432.5 c 128,-1,22
 166 440 166 440 167 457 c 1,23,-1
 193 457 l 1,0,1
EndSplineSet
EndChar
StartChar: hungarumlaut
Encoding: 733 733 212
Width: 279
Flags: W
Fore
156 330 m 1,0,-1
 129 330 l 1,1,-1
 188 491 l 1,2,-1
 235 491 l 1,3,-1
 156 330 l 1,0,-1
69 330 m 1,4,-1
 42 330 l 1,5,-1
 101 491 l 1,6,-1
 148 491 l 1,7,-1
 69 330 l 1,4,-1
EndSplineSet
EndChar
StartChar: uni0E01
Encoding: 3585 3585 214
Width: 386
Flags: W
Fore
330 0 m 1,0,-1
 294 0 l 1,1,-1
 294 261 l 2,2,3
 294 310 294 310 263.5 339 c 128,-1,4
 233 368 233 368 185 368 c 0,5,6
 151 368 151 368 119 349 c 128,-1,7
 87 330 87 330 75 300 c 1,8,9
 134 295 134 295 156 256 c 1,10,11
 132 251 132 251 114 229.5 c 128,-1,12
 96 208 96 208 96 182 c 2,13,-1
 96 0 l 1,14,-1
 60 0 l 1,15,-1
 60 181 l 2,16,17
 60 240 60 240 112 261 c 1,18,19
 79 277 79 277 36 272 c 1,20,21
 44 328 44 328 86.5 364 c 128,-1,22
 129 400 129 400 187 400 c 0,23,24
 252 400 252 400 291 364 c 128,-1,25
 330 328 330 328 330 265 c 2,26,-1
 330 0 l 1,0,-1
EndSplineSet
EndChar
StartChar: uni0E02
Encoding: 3586 3586 215
Width: 378
Flags: W
Fore
322 83 m 2,0,1
 322 -8 322 -8 230 -8 c 0,2,3
 140 -8 140 -8 140 83 c 2,4,-1
 140 178 l 2,5,6
 140 203 140 203 165 246 c 128,-1,7
 190 289 190 289 190 313 c 0,8,9
 190 336 190 336 170.5 353.5 c 128,-1,10
 151 371 151 371 123 371 c 0,11,12
 79 371 79 371 56 342 c 1,13,14
 65 346 65 346 79 346 c 0,15,16
 105 346 105 346 121.5 329.5 c 128,-1,17
 138 313 138 313 138 288 c 0,18,19
 138 262 138 262 121.5 244.5 c 128,-1,20
 105 227 105 227 79 227 c 0,21,22
 48 227 48 227 31.5 250 c 128,-1,23
 15 273 15 273 15 306 c 0,24,25
 15 343 15 343 43.5 371.5 c 128,-1,26
 72 400 72 400 123 400 c 0,27,28
 167 400 167 400 195.5 378 c 128,-1,29
 224 356 224 356 224 318 c 0,30,31
 224 289 224 289 200 242 c 128,-1,32
 176 195 176 195 176 173 c 2,33,-1
 176 80 l 2,34,35
 176 24 176 24 231 24 c 256,36,37
 286 24 286 24 286 80 c 2,38,-1
 286 392 l 1,39,-1
 322 392 l 1,40,-1
 322 83 l 2,0,1
111 287 m 256,41,42
 111 301 111 301 102 310 c 128,-1,43
 93 319 93 319 79 319 c 256,44,45
 65 319 65 319 56 310 c 128,-1,46
 47 301 47 301 47 287 c 256,47,48
 47 273 47 273 56 264 c 128,-1,49
 65 255 65 255 79 255 c 256,50,51
 93 255 93 255 102 264 c 128,-1,52
 111 273 111 273 111 287 c 256,41,42
EndSplineSet
EndChar
StartChar: uni0E03
Encoding: 3587 3587 216
Width: 382
Flags: W
Fore
326 83 m 2,0,1
 326 -8 326 -8 234 -8 c 0,2,3
 144 -8 144 -8 144 83 c 2,4,-1
 144 146 l 2,5,6
 144 178 144 178 174 226.5 c 128,-1,7
 204 275 204 275 204 306 c 0,8,9
 204 358 204 358 166 366 c 1,10,-1
 131 324 l 1,11,-1
 95 365 l 1,12,13
 63 343 63 343 52 307 c 1,14,15
 66 313 66 313 84 313 c 0,16,17
 113 313 113 313 130 294.5 c 128,-1,18
 147 276 147 276 147 248 c 0,19,20
 147 219 147 219 128.5 201 c 128,-1,21
 110 183 110 183 83 183 c 0,22,23
 49 183 49 183 31 211 c 0,24,25
 15 236 15 236 15 272 c 0,26,27
 15 315 15 315 39 352 c 0,28,29
 65 393 65 393 106 401 c 1,30,-1
 131 366 l 1,31,-1
 158 401 l 1,32,33
 194 397 194 397 217 367 c 0,34,35
 237 339 237 339 237 303 c 0,36,37
 237 272 237 272 208.5 222 c 128,-1,38
 180 172 180 172 180 143 c 2,39,-1
 180 80 l 2,40,41
 180 24 180 24 235 24 c 256,42,43
 290 24 290 24 290 80 c 2,44,-1
 290 392 l 1,45,-1
 326 392 l 1,46,-1
 326 83 l 2,0,1
115 249 m 256,47,48
 115 263 115 263 106 272 c 128,-1,49
 97 281 97 281 83 281 c 256,50,51
 69 281 69 281 60 272 c 128,-1,52
 51 263 51 263 51 249 c 256,53,54
 51 235 51 235 60 226 c 128,-1,55
 69 217 69 217 83 217 c 256,56,57
 97 217 97 217 106 226 c 128,-1,58
 115 235 115 235 115 249 c 256,47,48
EndSplineSet
EndChar
StartChar: uni0E04
Encoding: 3588 3588 217
Width: 393
Flags: W
Fore
337 0 m 1,0,-1
 301 0 l 1,1,-1
 301 269 l 2,2,3
 301 317 301 317 265.5 342.5 c 128,-1,4
 230 368 230 368 185 368 c 0,5,6
 139 368 139 368 104.5 336.5 c 128,-1,7
 70 305 70 305 70 259 c 0,8,9
 70 237 70 237 78 206 c 0,10,11
 89 162 89 162 90 156 c 1,12,13
 99 213 99 213 121 253 c 0,14,15
 150 305 150 305 194 305 c 0,16,17
 219 305 219 305 235 289 c 128,-1,18
 251 273 251 273 251 246 c 0,19,20
 251 221 251 221 234 203.5 c 128,-1,21
 217 186 217 186 192 186 c 0,22,23
 166 186 166 186 146 210 c 1,24,25
 132 189 132 189 118 150 c 0,26,27
 101 102 101 102 101 65 c 2,28,-1
 101 0 l 1,29,-1
 65 0 l 1,30,-1
 65 92 l 2,31,32
 65 121 65 121 49 174 c 128,-1,33
 33 227 33 227 33 255 c 0,34,35
 33 320 33 320 77 360 c 128,-1,36
 121 400 121 400 187 400 c 0,37,38
 248 400 248 400 292.5 367.5 c 128,-1,39
 337 335 337 335 337 272 c 2,40,-1
 337 0 l 1,0,-1
223 246 m 256,41,42
 223 259 223 259 214 268 c 128,-1,43
 205 277 205 277 192 277 c 256,44,45
 179 277 179 277 170 268 c 128,-1,46
 161 259 161 259 161 246 c 256,47,48
 161 233 161 233 170 224 c 128,-1,49
 179 215 179 215 192 215 c 256,50,51
 205 215 205 215 214 224 c 128,-1,52
 223 233 223 233 223 246 c 256,41,42
EndSplineSet
EndChar
StartChar: uni0E05
Encoding: 3589 3589 218
Width: 393
Flags: W
Fore
337 0 m 1,0,-1
 301 0 l 1,1,-1
 301 280 l 2,2,3
 300 349 300 349 234 365 c 1,4,-1
 186 311 l 1,5,-1
 133 366 l 1,6,7
 101 349 101 349 84 314 c 0,8,9
 71 288 71 288 71 265 c 0,10,11
 71 231 71 231 90 146 c 1,12,13
 117 282 117 282 192 282 c 0,14,15
 218 282 218 282 234 266 c 128,-1,16
 250 250 250 250 250 224 c 0,17,18
 250 199 250 199 233.5 182 c 128,-1,19
 217 165 217 165 193 165 c 0,20,21
 161 165 161 165 141 188 c 1,22,23
 128 174 128 174 116 135 c 0,24,25
 103 92 103 92 103 54 c 2,26,-1
 103 0 l 1,27,-1
 67 0 l 1,28,-1
 67 80 l 2,29,30
 67 111 67 111 50 169 c 128,-1,31
 33 227 33 227 33 257 c 0,32,33
 33 372 33 372 142 402 c 1,34,-1
 186 351 l 1,35,-1
 226 402 l 1,36,37
 336 380 336 380 337 282 c 2,38,-1
 337 0 l 1,0,-1
223 224 m 256,39,40
 223 237 223 237 214 246 c 128,-1,41
 205 255 205 255 192 255 c 256,42,43
 179 255 179 255 170 246 c 128,-1,44
 161 237 161 237 161 224 c 256,45,46
 161 211 161 211 170 202 c 128,-1,47
 179 193 179 193 192 193 c 256,48,49
 205 193 205 193 214 202 c 128,-1,50
 223 211 223 211 223 224 c 256,39,40
EndSplineSet
EndChar
StartChar: uni0E06
Encoding: 3590 3590 219
Width: 408
Flags: W
Fore
175 61 m 256,0,1
 175 75 175 75 164.5 85.5 c 128,-1,2
 154 96 154 96 140 96 c 256,3,4
 126 96 126 96 115.5 85.5 c 128,-1,5
 105 75 105 75 105 61 c 256,6,7
 105 47 105 47 115.5 36.5 c 128,-1,8
 126 26 126 26 140 26 c 256,9,10
 154 26 154 26 164.5 36.5 c 128,-1,11
 175 47 175 47 175 61 c 256,0,1
352 0 m 1,12,-1
 316 0 l 1,13,14
 273 82 273 82 194 99 c 1,15,16
 208 83 208 83 208 61 c 0,17,18
 208 32 208 32 188.5 12 c 128,-1,19
 169 -8 169 -8 140 -8 c 0,20,21
 110 -8 110 -8 90.5 12 c 128,-1,22
 71 32 71 32 71 61 c 256,23,24
 71 90 71 90 91 109.5 c 128,-1,25
 111 129 111 129 140 129 c 2,26,-1
 144 129 l 1,27,-1
 144 146 l 2,28,29
 144 178 144 178 174 226.5 c 128,-1,30
 204 275 204 275 204 306 c 0,31,32
 204 358 204 358 166 366 c 1,33,-1
 131 324 l 1,34,-1
 95 365 l 1,35,36
 63 343 63 343 52 307 c 1,37,38
 66 313 66 313 84 313 c 0,39,40
 113 313 113 313 130 294.5 c 128,-1,41
 147 276 147 276 147 248 c 0,42,43
 147 219 147 219 128.5 201 c 128,-1,44
 110 183 110 183 83 183 c 0,45,46
 49 183 49 183 31 211 c 0,47,48
 15 236 15 236 15 272 c 0,49,50
 15 315 15 315 39 352 c 0,51,52
 65 393 65 393 106 401 c 1,53,-1
 131 366 l 1,54,-1
 158 401 l 1,55,56
 194 397 194 397 215.5 369.5 c 128,-1,57
 237 342 237 342 237 303 c 0,58,59
 237 272 237 272 208.5 222 c 128,-1,60
 180 172 180 172 180 143 c 2,61,-1
 180 128 l 1,62,63
 269 118 269 118 316 54 c 1,64,-1
 316 392 l 1,65,-1
 352 392 l 1,66,-1
 352 0 l 1,12,-1
115 249 m 256,67,68
 115 263 115 263 106 272 c 128,-1,69
 97 281 97 281 83 281 c 256,70,71
 69 281 69 281 60 272 c 128,-1,72
 51 263 51 263 51 249 c 256,73,74
 51 235 51 235 60 226 c 128,-1,75
 69 217 69 217 83 217 c 256,76,77
 97 217 97 217 106 226 c 128,-1,78
 115 235 115 235 115 249 c 256,67,68
EndSplineSet
EndChar
StartChar: uni0E07
Encoding: 3591 3591 220
Width: 294
Flags: W
Fore
238 0 m 1,0,-1
 202 0 l 1,1,-1
 16 208 l 1,2,-1
 36 231 l 1,3,-1
 202 51 l 1,4,-1
 202 275 l 1,5,6
 188 268 188 268 171 268 c 0,7,8
 144 268 144 268 124.5 287.5 c 128,-1,9
 105 307 105 307 105 333 c 0,10,11
 105 362 105 362 124 381 c 128,-1,12
 143 400 143 400 171 400 c 0,13,14
 203 400 203 400 222 379 c 0,15,16
 238 360 238 360 238 333 c 2,17,-1
 238 0 l 1,0,-1
205 335 m 256,18,19
 205 349 205 349 195 359 c 128,-1,20
 185 369 185 369 171 369 c 256,21,22
 157 369 157 369 147 359 c 128,-1,23
 137 349 137 349 137 335 c 256,24,25
 137 321 137 321 147 311 c 128,-1,26
 157 301 157 301 171 301 c 256,27,28
 185 301 185 301 195 311 c 128,-1,29
 205 321 205 321 205 335 c 256,18,19
EndSplineSet
EndChar
StartChar: uni0E08
Encoding: 3592 3592 221
Width: 367
Flags: W
Fore
311 65 m 2,0,1
 311 -9 311 -9 240 -9 c 0,2,3
 184 -9 184 -9 176 47 c 2,4,-1
 159 159 l 1,5,6
 144 150 144 150 125 150 c 0,7,8
 100 150 100 150 83 167 c 128,-1,9
 66 184 66 184 66 209 c 0,10,11
 66 235 66 235 83 252.5 c 128,-1,12
 100 270 100 270 125 270 c 0,13,14
 147 270 147 270 164 255.5 c 128,-1,15
 181 241 181 241 185 219 c 2,16,-1
 214 49 l 2,17,18
 218 24 218 24 242 24 c 0,19,20
 275 24 275 24 275 60 c 2,21,-1
 275 295 l 2,22,23
 275 334 275 334 244 350.5 c 128,-1,24
 213 367 213 367 172 367 c 0,25,26
 127 367 127 367 97.5 348 c 128,-1,27
 68 329 68 329 61 296 c 1,28,-1
 24 296 l 1,29,30
 29 338 29 338 63 366 c 0,31,32
 104 400 104 400 171 400 c 0,33,34
 311 400 311 400 311 295 c 2,35,-1
 311 65 l 2,0,1
157 209 m 256,36,37
 157 222 157 222 148 231 c 128,-1,38
 139 240 139 240 126 240 c 256,39,40
 113 240 113 240 104.5 231 c 128,-1,41
 96 222 96 222 96 209 c 256,42,43
 96 196 96 196 104.5 187.5 c 128,-1,44
 113 179 113 179 126 179 c 256,45,46
 139 179 139 179 148 187.5 c 128,-1,47
 157 196 157 196 157 209 c 256,36,37
EndSplineSet
EndChar
StartChar: uni0E09
Encoding: 3593 3593 222
Width: 377
Flags: W
Fore
339 55 m 0,0,1
 339 29 339 29 322 11 c 128,-1,2
 305 -7 305 -7 276 -7 c 0,3,4
 250 -7 250 -7 232 11 c 128,-1,5
 214 29 214 29 214 55 c 0,6,7
 214 64 214 64 215 68 c 1,8,9
 158 44 158 44 128 0 c 1,10,-1
 83 0 l 1,11,-1
 83 93 l 2,12,13
 83 122 83 122 90 137 c 1,14,-1
 86 137 l 2,15,16
 61 137 61 137 43.5 154.5 c 128,-1,17
 26 172 26 172 26 197 c 0,18,19
 26 223 26 223 43.5 240.5 c 128,-1,20
 61 258 61 258 86 258 c 0,21,22
 112 258 112 258 129.5 240.5 c 128,-1,23
 147 223 147 223 147 197 c 0,24,25
 147 178 147 178 133 149.5 c 128,-1,26
 119 121 119 121 119 99 c 2,27,-1
 119 35 l 1,28,29
 152 83 152 83 228 106 c 0,30,31
 285 132 285 132 285 192 c 2,32,-1
 285 292 l 2,33,34
 285 327 285 327 249 349 c 0,35,36
 218 367 218 367 177 367 c 0,37,38
 139 367 139 367 107 349 c 0,39,40
 71 328 71 328 63 294 c 1,41,-1
 26 294 l 1,42,43
 29 336 29 336 66 366 c 0,44,45
 108 400 108 400 175 400 c 0,46,47
 240 400 240 400 279 374 c 0,48,49
 321 345 321 345 321 291 c 2,50,-1
 321 190 l 2,51,52
 321 142 321 142 294 115 c 1,53,54
 339 101 339 101 339 55 c 0,0,1
310 55 m 0,55,56
 310 69 310 69 300.5 78.5 c 128,-1,57
 291 88 291 88 277 88 c 0,58,59
 264 88 264 88 254 78.5 c 128,-1,60
 244 69 244 69 244 55 c 0,61,62
 244 42 244 42 254 32 c 128,-1,63
 264 22 264 22 277 22 c 0,64,65
 291 22 291 22 300.5 32 c 128,-1,66
 310 42 310 42 310 55 c 0,55,56
117 197 m 256,67,68
 117 210 117 210 108.5 218.5 c 128,-1,69
 100 227 100 227 87 227 c 256,70,71
 74 227 74 227 65.5 218.5 c 128,-1,72
 57 210 57 210 57 197 c 256,73,74
 57 184 57 184 65.5 175.5 c 128,-1,75
 74 167 74 167 87 167 c 256,76,77
 100 167 100 167 108.5 175.5 c 128,-1,78
 117 184 117 184 117 197 c 256,67,68
EndSplineSet
EndChar
StartChar: uni0E0A
Encoding: 3594 3594 223
Width: 380
Flags: W
Fore
324 83 m 2,0,1
 324 -8 324 -8 231 -8 c 0,2,3
 140 -8 140 -8 140 83 c 2,4,-1
 140 178 l 2,5,6
 140 203 140 203 165 246 c 128,-1,7
 190 289 190 289 190 313 c 0,8,9
 190 336 190 336 170.5 353.5 c 128,-1,10
 151 371 151 371 123 371 c 0,11,12
 79 371 79 371 56 342 c 1,13,14
 65 346 65 346 79 346 c 0,15,16
 105 346 105 346 121.5 329.5 c 128,-1,17
 138 313 138 313 138 288 c 0,18,19
 138 262 138 262 121.5 244.5 c 128,-1,20
 105 227 105 227 79 227 c 0,21,22
 48 227 48 227 31.5 250 c 128,-1,23
 15 273 15 273 15 306 c 0,24,25
 15 343 15 343 43.5 371.5 c 128,-1,26
 72 400 72 400 123 400 c 0,27,28
 167 400 167 400 195.5 378 c 128,-1,29
 224 356 224 356 224 318 c 0,30,31
 224 289 224 289 200 242 c 128,-1,32
 176 195 176 195 176 173 c 2,33,-1
 176 80 l 2,34,35
 176 24 176 24 232 24 c 256,36,37
 288 24 288 24 288 80 c 2,38,-1
 288 241 l 2,39,40
 288 285 288 285 245 300 c 1,41,42
 247 306 247 306 247 323 c 1,43,44
 302 346 302 346 305 416 c 1,45,-1
 343 416 l 1,46,47
 340 378 340 378 322 350 c 128,-1,48
 304 322 304 322 285 312 c 1,49,50
 324 297 324 297 324 245 c 2,51,-1
 324 83 l 2,0,1
111 287 m 256,52,53
 111 301 111 301 102 310 c 128,-1,54
 93 319 93 319 79 319 c 256,55,56
 65 319 65 319 56 310 c 128,-1,57
 47 301 47 301 47 287 c 256,58,59
 47 273 47 273 56 264 c 128,-1,60
 65 255 65 255 79 255 c 256,61,62
 93 255 93 255 102 264 c 128,-1,63
 111 273 111 273 111 287 c 256,52,53
EndSplineSet
EndChar
StartChar: uni0E0B
Encoding: 3595 3595 224
Width: 384
Flags: W
Fore
115 249 m 256,0,1
 115 263 115 263 106 272 c 128,-1,2
 97 281 97 281 83 281 c 256,3,4
 69 281 69 281 60 272 c 128,-1,5
 51 263 51 263 51 249 c 256,6,7
 51 235 51 235 60 226 c 128,-1,8
 69 217 69 217 83 217 c 256,9,10
 97 217 97 217 106 226 c 128,-1,11
 115 235 115 235 115 249 c 256,0,1
328 83 m 2,12,13
 328 -8 328 -8 235 -8 c 0,14,15
 144 -8 144 -8 144 83 c 2,16,-1
 144 146 l 2,17,18
 144 178 144 178 174 226.5 c 128,-1,19
 204 275 204 275 204 306 c 0,20,21
 204 358 204 358 166 366 c 1,22,-1
 131 324 l 1,23,-1
 95 365 l 1,24,25
 63 343 63 343 52 307 c 1,26,27
 66 313 66 313 84 313 c 0,28,29
 113 313 113 313 130 294.5 c 128,-1,30
 147 276 147 276 147 248 c 0,31,32
 147 219 147 219 128.5 201 c 128,-1,33
 110 183 110 183 83 183 c 0,34,35
 49 183 49 183 31 211 c 0,36,37
 15 236 15 236 15 272 c 0,38,39
 15 315 15 315 39 352 c 0,40,41
 65 393 65 393 106 401 c 1,42,-1
 131 366 l 1,43,-1
 158 401 l 1,44,45
 194 397 194 397 217 367 c 0,46,47
 237 339 237 339 237 303 c 0,48,49
 237 272 237 272 208.5 222 c 128,-1,50
 180 172 180 172 180 143 c 2,51,-1
 180 81 l 2,52,53
 180 24 180 24 236 24 c 256,54,55
 292 24 292 24 292 80 c 2,56,-1
 292 241 l 2,57,58
 292 285 292 285 252 299 c 1,59,60
 253 308 253 308 251 323 c 1,61,62
 306 346 306 346 309 416 c 1,63,-1
 347 416 l 1,64,65
 344 378 344 378 326 350 c 128,-1,66
 308 322 308 322 289 312 c 1,67,68
 328 297 328 297 328 245 c 2,69,-1
 328 83 l 2,12,13
EndSplineSet
EndChar
StartChar: uni0E0C
Encoding: 3596 3596 225
Width: 519
Flags: W
Fore
463 0 m 1,0,-1
 426 0 l 1,1,2
 402 37 402 37 346 70 c 1,3,4
 348 62 348 62 348 57 c 0,5,6
 348 30 348 30 330.5 10.5 c 128,-1,7
 313 -9 313 -9 282 -9 c 0,8,9
 255 -9 255 -9 235.5 10.5 c 128,-1,10
 216 30 216 30 216 57 c 0,11,12
 216 83 216 83 233.5 102 c 128,-1,13
 251 121 251 121 276 123 c 1,14,-1
 276 265 l 2,15,16
 276 368 276 368 173 368 c 0,17,18
 141 368 141 368 112.5 348.5 c 128,-1,19
 84 329 84 329 73 299 c 1,20,21
 129 295 129 295 153 255 c 1,22,23
 129 250 129 250 111 229 c 128,-1,24
 93 208 93 208 93 182 c 2,25,-1
 93 119 l 1,26,27
 102 123 102 123 116 123 c 0,28,29
 143 123 143 123 162.5 103.5 c 128,-1,30
 182 84 182 84 182 57 c 256,31,32
 182 30 182 30 163.5 10.5 c 128,-1,33
 145 -9 145 -9 116 -9 c 256,34,35
 87 -9 87 -9 68.5 10.5 c 128,-1,36
 50 30 50 30 50 57 c 0,37,38
 50 73 50 73 57 86 c 1,39,-1
 57 181 l 2,40,41
 57 235 57 235 109 260 c 1,42,43
 71 275 71 275 30 271 c 1,44,45
 39 327 39 327 79.5 363.5 c 128,-1,46
 120 400 120 400 175 400 c 0,47,48
 238 400 238 400 275 365.5 c 128,-1,49
 312 331 312 331 312 269 c 2,50,-1
 312 119 l 1,51,52
 394 91 394 91 427 47 c 1,53,-1
 427 392 l 1,54,-1
 463 392 l 1,55,-1
 463 0 l 1,0,-1
315 57 m 256,56,57
 315 71 315 71 305 81 c 128,-1,58
 295 91 295 91 281 91 c 256,59,60
 267 91 267 91 257.5 81 c 128,-1,61
 248 71 248 71 248 57 c 256,62,63
 248 43 248 43 257.5 33.5 c 128,-1,64
 267 24 267 24 281 24 c 256,65,66
 295 24 295 24 305 33.5 c 128,-1,67
 315 43 315 43 315 57 c 256,56,57
150 57 m 256,68,69
 150 71 150 71 140 81 c 128,-1,70
 130 91 130 91 116 91 c 256,71,72
 102 91 102 91 92.5 81 c 128,-1,73
 83 71 83 71 83 57 c 256,74,75
 83 43 83 43 92.5 33.5 c 128,-1,76
 102 24 102 24 116 24 c 256,77,78
 130 24 130 24 140 33.5 c 128,-1,79
 150 43 150 43 150 57 c 256,68,69
EndSplineSet
EndChar
StartChar: uni0E0D
Encoding: 3597 3597 226
Width: 519
Flags: W
Fore
478 -34 m 1,0,1
 476 -94 476 -94 446.5 -132.5 c 128,-1,2
 417 -171 417 -171 354 -171 c 0,3,4
 314 -171 314 -171 282 -146 c 128,-1,5
 250 -121 250 -121 250 -84 c 0,6,7
 250 -62 250 -62 266 -46 c 128,-1,8
 282 -30 282 -30 304 -30 c 0,9,10
 327 -30 327 -30 343 -46 c 128,-1,11
 359 -62 359 -62 359 -84 c 0,12,13
 359 -121 359 -121 324 -135 c 1,14,15
 336 -142 336 -142 353 -142 c 0,16,17
 439 -142 439 -142 441 -34 c 1,18,-1
 478 -34 l 1,0,1
332 -84 m 256,19,20
 332 -73 332 -73 324 -65 c 128,-1,21
 316 -57 316 -57 305 -57 c 256,22,23
 294 -57 294 -57 286 -65 c 128,-1,24
 278 -73 278 -73 278 -84 c 256,25,26
 278 -95 278 -95 286 -103 c 128,-1,27
 294 -111 294 -111 305 -111 c 256,28,29
 316 -111 316 -111 324 -103 c 128,-1,30
 332 -95 332 -95 332 -84 c 256,19,20
157 57 m 256,31,32
 157 71 157 71 147 81 c 128,-1,33
 137 91 137 91 123 91 c 256,34,35
 109 91 109 91 99.5 81 c 128,-1,36
 90 71 90 71 90 57 c 256,37,38
 90 43 90 43 99.5 33.5 c 128,-1,39
 109 24 109 24 123 24 c 256,40,41
 137 24 137 24 147 33.5 c 128,-1,42
 157 43 157 43 157 57 c 256,31,32
463 82 m 2,43,44
 463 -8 463 -8 365 -8 c 0,45,46
 268 -8 268 -8 268 83 c 2,47,-1
 268 265 l 2,48,49
 268 368 268 368 171 368 c 0,50,51
 139 368 139 368 111.5 349 c 128,-1,52
 84 330 84 330 73 299 c 1,53,54
 129 295 129 295 153 255 c 1,55,56
 129 250 129 250 111 229 c 128,-1,57
 93 208 93 208 93 182 c 2,58,-1
 93 117 l 1,59,60
 106 123 106 123 123 123 c 0,61,62
 151 123 151 123 170 104 c 128,-1,63
 189 85 189 85 189 58 c 256,64,65
 189 31 189 31 173.5 11 c 128,-1,66
 158 -9 158 -9 123 -9 c 0,67,68
 94 -9 94 -9 75.5 9.5 c 128,-1,69
 57 28 57 28 57 59 c 2,70,-1
 57 181 l 2,71,72
 57 235 57 235 109 260 c 1,73,74
 71 275 71 275 30 271 c 1,75,76
 39 327 39 327 78.5 363.5 c 128,-1,77
 118 400 118 400 173 400 c 0,78,79
 235 400 235 400 269.5 366 c 128,-1,80
 304 332 304 332 304 269 c 2,81,-1
 304 80 l 2,82,83
 304 24 304 24 366 24 c 0,84,85
 427 24 427 24 427 80 c 2,86,-1
 427 392 l 1,87,-1
 463 392 l 1,88,-1
 463 82 l 2,43,44
EndSplineSet
Substitution: 0 65534 'L055' uni0E0D.alt1
Substitution: 0 65534 'L055' uni0E0D.alt1
EndChar
StartChar: uni0E0E
Encoding: 3598 3598 227
AltUni: 63259
Width: 425
Flags: W
Fore
369 -215 m 1,0,-1
 329 -215 l 1,1,2
 321 -191 321 -191 283.5 -167 c 128,-1,3
 246 -143 246 -143 216 -135 c 1,4,-1
 216 -142 l 2,5,6
 216 -174 216 -174 197 -196.5 c 128,-1,7
 178 -219 178 -219 146 -219 c 0,8,9
 116 -219 116 -219 99 -201.5 c 128,-1,10
 82 -184 82 -184 82 -158 c 0,11,12
 82 -127 82 -127 104 -109 c 128,-1,13
 126 -91 126 -91 157 -91 c 0,14,15
 162 -91 162 -91 183 -94 c 1,16,17
 187 -57 187 -57 220 -38 c 1,18,-1
 247 -54 l 1,19,20
 217 -73 217 -73 216 -102 c 1,21,22
 296 -130 296 -130 333 -169 c 1,23,-1
 333 260 l 2,24,25
 333 309 333 309 302.5 338.5 c 128,-1,26
 272 368 272 368 224 368 c 0,27,28
 190 368 190 368 158.5 348.5 c 128,-1,29
 127 329 127 329 115 299 c 1,30,31
 168 294 168 294 196 255 c 1,32,33
 142 237 142 237 142 182 c 0,34,35
 142 143 142 143 151 102 c 0,36,37
 155 84 155 84 155 60 c 0,38,39
 155 31 155 31 135.5 11.5 c 128,-1,40
 116 -8 116 -8 89 -8 c 256,41,42
 62 -8 62 -8 43 11 c 128,-1,43
 24 30 24 30 24 57 c 256,44,45
 24 84 24 84 43 103.5 c 128,-1,46
 62 123 62 123 89 123 c 0,47,48
 100 123 100 123 113 118 c 1,49,50
 107 164 107 164 107 188 c 0,51,52
 107 234 107 234 147 260 c 1,53,54
 120 272 120 272 94 272 c 0,55,56
 81 272 81 272 75 271 c 1,57,58
 80 327 80 327 123.5 363.5 c 128,-1,59
 167 400 167 400 225 400 c 0,60,61
 289 400 289 400 329 363.5 c 128,-1,62
 369 327 369 327 369 264 c 2,63,-1
 369 -215 l 1,0,-1
180 -127 m 1,64,65
 171 -124 171 -124 159 -124 c 0,66,67
 114 -124 114 -124 114 -156 c 0,68,69
 114 -187 114 -187 147 -187 c 0,70,71
 182 -187 182 -187 182 -142 c 0,72,73
 182 -135 182 -135 180 -127 c 1,64,65
123 57 m 256,74,75
 123 71 123 71 113 81 c 128,-1,76
 103 91 103 91 89 91 c 256,77,78
 75 91 75 91 65.5 81 c 128,-1,79
 56 71 56 71 56 57 c 256,80,81
 56 43 56 43 65.5 33.5 c 128,-1,82
 75 24 75 24 89 24 c 256,83,84
 103 24 103 24 113 33.5 c 128,-1,85
 123 43 123 43 123 57 c 256,74,75
EndSplineSet
Substitution: 0 65534 'L055' uni0E0E.alt1
Substitution: 0 65534 'L055' uni0E0E.alt1
EndChar
StartChar: uni0E0F
Encoding: 3599 3599 228
AltUni: 63260
Width: 425
Flags: W
Fore
147 -134 m 1,0,1
 138 -125 138 -125 117 -125 c 0,2,3
 78 -125 78 -125 78 -159 c 0,4,5
 78 -189 78 -189 110 -189 c 0,6,7
 147 -189 147 -189 147 -134 c 1,0,1
369 -215 m 1,8,-1
 329 -215 l 1,9,-1
 275 -154 l 1,10,-1
 231 -214 l 1,11,-1
 176 -154 l 1,12,13
 175 -185 175 -185 156 -202.5 c 128,-1,14
 137 -220 137 -220 112 -220 c 0,15,16
 81 -220 81 -220 64.5 -202 c 128,-1,17
 48 -184 48 -184 48 -158 c 0,18,19
 48 -129 48 -129 67 -111.5 c 128,-1,20
 86 -94 86 -94 114 -94 c 0,21,22
 133 -94 133 -94 147 -101 c 1,23,24
 149 -66 149 -66 188 -43 c 1,25,-1
 215 -59 l 1,26,27
 181 -80 181 -80 179 -115 c 1,28,-1
 228 -167 l 1,29,-1
 275 -104 l 1,30,-1
 333 -169 l 1,31,-1
 333 260 l 2,32,33
 333 309 333 309 302.5 338.5 c 128,-1,34
 272 368 272 368 224 368 c 0,35,36
 190 368 190 368 158.5 348.5 c 128,-1,37
 127 329 127 329 115 299 c 1,38,39
 168 294 168 294 196 255 c 1,40,41
 142 237 142 237 142 182 c 0,42,43
 142 143 142 143 151 102 c 0,44,45
 155 84 155 84 155 60 c 0,46,47
 155 31 155 31 135.5 11.5 c 128,-1,48
 116 -8 116 -8 89 -8 c 256,49,50
 62 -8 62 -8 43 11 c 128,-1,51
 24 30 24 30 24 57 c 256,52,53
 24 84 24 84 43 103.5 c 128,-1,54
 62 123 62 123 89 123 c 0,55,56
 100 123 100 123 113 118 c 1,57,58
 107 164 107 164 107 188 c 0,59,60
 107 234 107 234 147 260 c 1,61,62
 120 272 120 272 94 272 c 0,63,64
 81 272 81 272 75 271 c 1,65,66
 80 327 80 327 123.5 363.5 c 128,-1,67
 167 400 167 400 225 400 c 0,68,69
 289 400 289 400 329 363.5 c 128,-1,70
 369 327 369 327 369 264 c 2,71,-1
 369 -215 l 1,8,-1
123 57 m 256,72,73
 123 71 123 71 113 81 c 128,-1,74
 103 91 103 91 89 91 c 256,75,76
 75 91 75 91 65.5 81 c 128,-1,77
 56 71 56 71 56 57 c 256,78,79
 56 43 56 43 65.5 33.5 c 128,-1,80
 75 24 75 24 89 24 c 256,81,82
 103 24 103 24 113 33.5 c 128,-1,83
 123 43 123 43 123 57 c 256,72,73
EndSplineSet
Substitution: 0 65534 'L055' uni0E0F.alt1
Substitution: 0 65534 'L055' uni0E0F.alt1
EndChar
StartChar: uni0E10
Encoding: 3600 3600 229
Width: 343
Flags: W
Fore
283 79 m 2,0,1
 283 -9 283 -9 203 -9 c 0,2,3
 124 -9 124 -9 124 79 c 2,4,-1
 124 130 l 1,5,6
 113 126 113 126 99 126 c 0,7,8
 74 126 74 126 57 142.5 c 128,-1,9
 40 159 40 159 40 184 c 0,10,11
 40 210 40 210 57 227.5 c 128,-1,12
 74 245 74 245 99 245 c 0,13,14
 125 245 125 245 142.5 229.5 c 128,-1,15
 160 214 160 214 160 186 c 2,16,-1
 160 76 l 2,17,18
 160 24 160 24 203 24 c 0,19,20
 247 24 247 24 247 76 c 2,21,-1
 247 221 l 2,22,23
 247 245 247 245 150 269 c 0,24,25
 92 284 92 284 26 293 c 1,26,27
 29 339 29 339 61 369.5 c 128,-1,28
 93 400 93 400 146 400 c 0,29,30
 167 400 167 400 202.5 389 c 128,-1,31
 238 378 238 378 257 378 c 0,32,33
 281 378 281 378 286 400 c 1,34,-1
 317 393 l 1,35,36
 301 341 301 341 259 341 c 0,37,38
 237 341 237 341 198.5 353 c 128,-1,39
 160 365 160 365 140 365 c 0,40,41
 117 365 117 365 95.5 351.5 c 128,-1,42
 74 338 74 338 72 320 c 1,43,44
 172 300 172 300 214 284 c 0,45,46
 283 259 283 259 283 224 c 2,47,-1
 283 79 l 2,0,1
286 -216 m 1,48,-1
 247 -216 l 1,49,-1
 204 -189 l 1,50,-1
 160 -215 l 1,51,-1
 115 -160 l 1,52,53
 114 -188 114 -188 95 -204 c 128,-1,54
 76 -220 76 -220 50 -220 c 0,55,56
 -14 -219 -14 -219 -14 -163 c 0,57,58
 -14 -139 -14 -139 6 -126 c 128,-1,59
 26 -113 26 -113 53 -113 c 0,60,61
 76 -113 76 -113 88 -118 c 1,62,63
 94 -77 94 -77 132 -57 c 1,64,-1
 159 -72 l 1,65,66
 118 -92 118 -92 117 -131 c 1,67,-1
 161 -182 l 1,68,-1
 204 -160 l 1,69,-1
 252 -190 l 1,70,-1
 252 -145 l 1,71,72
 247 -146 247 -146 236 -146 c 0,73,74
 215 -146 215 -146 200 -132.5 c 128,-1,75
 185 -119 185 -119 185 -100 c 256,76,77
 185 -81 185 -81 200 -67.5 c 128,-1,78
 215 -54 215 -54 236 -54 c 0,79,80
 256 -54 256 -54 271 -66.5 c 128,-1,81
 286 -79 286 -79 286 -100 c 2,82,-1
 286 -216 l 1,48,-1
84 -147 m 1,83,84
 74 -140 74 -140 50 -140 c 0,85,86
 17 -142 17 -142 17 -166 c 0,87,88
 17 -192 17 -192 48 -192 c 0,89,90
 86 -192 86 -192 86 -160 c 0,91,92
 86 -155 86 -155 84 -147 c 1,83,84
260 -100 m 0,93,94
 260 -78 260 -78 236 -78 c 256,95,96
 212 -78 212 -78 212 -100 c 0,97,98
 212 -123 212 -123 236 -123 c 256,99,100
 260 -123 260 -123 260 -100 c 0,93,94
126 185 m 256,101,102
 126 196 126 196 118 204 c 128,-1,103
 110 212 110 212 99 212 c 256,104,105
 88 212 88 212 80.5 204 c 128,-1,106
 73 196 73 196 73 185 c 256,107,108
 73 174 73 174 80.5 166.5 c 128,-1,109
 88 159 88 159 99 159 c 256,110,111
 110 159 110 159 118 166.5 c 128,-1,112
 126 174 126 174 126 185 c 256,101,102
EndSplineSet
Substitution: 0 65534 'L055' uni0E10.alt1
Substitution: 0 65534 'L055' uni0E10.alt1
EndChar
StartChar: uni0E11
Encoding: 3601 3601 230
Width: 461
Flags: W
Fore
405 0 m 1,0,-1
 369 0 l 1,1,-1
 369 320 l 2,2,3
 369 365 369 365 340 365 c 0,4,5
 329 365 329 365 316 339 c 2,6,-1
 189 0 l 1,7,-1
 144 0 l 1,8,-1
 144 146 l 2,9,10
 144 178 144 178 171 226.5 c 128,-1,11
 198 275 198 275 198 306 c 0,12,13
 198 360 198 360 166 366 c 1,14,-1
 131 324 l 1,15,-1
 95 365 l 1,16,17
 63 343 63 343 52 307 c 1,18,19
 66 313 66 313 84 313 c 0,20,21
 113 313 113 313 130 294.5 c 128,-1,22
 147 276 147 276 147 248 c 0,23,24
 147 219 147 219 128.5 201 c 128,-1,25
 110 183 110 183 83 183 c 0,26,27
 49 183 49 183 31 211 c 0,28,29
 15 236 15 236 15 272 c 0,30,31
 15 315 15 315 40 354 c 128,-1,32
 65 393 65 393 106 401 c 1,33,-1
 131 366 l 1,34,-1
 158 401 l 1,35,36
 231 392 231 392 231 303 c 0,37,38
 231 272 231 272 205.5 221 c 128,-1,39
 180 170 180 170 180 138 c 2,40,-1
 176 53 l 1,41,42
 187 95 187 95 200 128 c 2,43,-1
 282 344 l 2,44,45
 303 400 303 400 343 400 c 0,46,47
 405 400 405 400 405 320 c 2,48,-1
 405 0 l 1,0,-1
115 249 m 256,49,50
 115 263 115 263 106 272 c 128,-1,51
 97 281 97 281 83 281 c 256,52,53
 69 281 69 281 60 272 c 128,-1,54
 51 263 51 263 51 249 c 256,55,56
 51 235 51 235 60 226 c 128,-1,57
 69 217 69 217 83 217 c 256,58,59
 97 217 97 217 106 226 c 128,-1,60
 115 235 115 235 115 249 c 256,49,50
EndSplineSet
EndChar
StartChar: uni0E12
Encoding: 3602 3602 231
Width: 532
Flags: W
Fore
476 0 m 1,0,-1
 440 0 l 1,1,2
 414 43 414 43 359 71 c 1,3,4
 361 65 361 65 361 57 c 0,5,6
 361 31 361 31 343 11.5 c 128,-1,7
 325 -8 325 -8 295 -8 c 256,8,9
 265 -8 265 -8 247 11.5 c 128,-1,10
 229 31 229 31 229 58 c 0,11,12
 229 84 229 84 246.5 103 c 128,-1,13
 264 122 264 122 289 124 c 1,14,-1
 289 260 l 2,15,16
 289 332 289 332 243 362 c 1,17,-1
 179 304 l 1,18,-1
 120 363 l 1,19,20
 97 348 97 348 82.5 318 c 128,-1,21
 68 288 68 288 68 258 c 0,22,23
 68 229 68 229 88.5 174.5 c 128,-1,24
 109 120 109 120 110 86 c 1,25,26
 118 103 118 103 140 125 c 0,27,28
 166 149 166 149 175 162 c 1,29,30
 150 165 150 165 135.5 181.5 c 128,-1,31
 121 198 121 198 121 221 c 0,32,33
 121 246 121 246 138 263 c 128,-1,34
 155 280 155 280 180 280 c 256,35,36
 205 280 205 280 222.5 262.5 c 128,-1,37
 240 245 240 245 239 221 c 0,38,39
 237 175 237 175 175 110.5 c 128,-1,40
 113 46 113 46 110 0 c 1,41,-1
 74 0 l 1,42,-1
 74 91 l 2,43,44
 74 121 74 121 53 173.5 c 128,-1,45
 32 226 32 226 32 254 c 0,46,47
 32 303 32 303 55 343 c 0,48,49
 81 387 81 387 126 399 c 1,50,-1
 180 342 l 1,51,-1
 234 400 l 1,52,53
 278 392 278 392 301.5 352 c 128,-1,54
 325 312 325 312 325 264 c 2,55,-1
 325 119 l 1,56,57
 407 91 407 91 440 52 c 1,58,-1
 440 392 l 1,59,-1
 476 392 l 1,60,-1
 476 0 l 1,0,-1
211 222 m 256,61,62
 211 236 211 236 202 245 c 128,-1,63
 193 254 193 254 179 254 c 256,64,65
 165 254 165 254 156.5 245 c 128,-1,66
 148 236 148 236 148 222 c 256,67,68
 148 208 148 208 156.5 199.5 c 128,-1,69
 165 191 165 191 179 191 c 256,70,71
 193 191 193 191 202 199.5 c 128,-1,72
 211 208 211 208 211 222 c 256,61,62
328 57 m 256,73,74
 328 71 328 71 318 81 c 128,-1,75
 308 91 308 91 294 91 c 256,76,77
 280 91 280 91 270.5 81 c 128,-1,78
 261 71 261 71 261 57 c 256,79,80
 261 43 261 43 270.5 33.5 c 128,-1,81
 280 24 280 24 294 24 c 256,82,83
 308 24 308 24 318 33.5 c 128,-1,84
 328 43 328 43 328 57 c 256,73,74
EndSplineSet
EndChar
StartChar: uni0E13
Encoding: 3603 3603 232
Width: 543
Flags: W
Fore
508 56 m 0,0,1
 508 28 508 28 489 9 c 128,-1,2
 470 -10 470 -10 441 -10 c 0,3,4
 413 -10 413 -10 394 9 c 128,-1,5
 375 28 375 28 375 56 c 2,6,-1
 375 62 l 1,7,8
 339 48 339 48 311 0 c 1,9,-1
 268 0 l 1,10,-1
 268 265 l 2,11,12
 268 368 268 368 171 368 c 0,13,14
 139 368 139 368 111.5 349 c 128,-1,15
 84 330 84 330 73 299 c 1,16,17
 129 295 129 295 153 255 c 1,18,19
 129 250 129 250 111 229 c 128,-1,20
 93 208 93 208 93 182 c 2,21,-1
 93 117 l 1,22,23
 106 123 106 123 123 123 c 0,24,25
 151 123 151 123 170 104 c 128,-1,26
 189 85 189 85 189 58 c 0,27,28
 189 29 189 29 170.5 10 c 128,-1,29
 152 -9 152 -9 123 -9 c 256,30,31
 94 -9 94 -9 75.5 10.5 c 128,-1,32
 57 30 57 30 57 59 c 2,33,-1
 57 181 l 2,34,35
 57 235 57 235 109 260 c 1,36,37
 71 275 71 275 30 271 c 1,38,39
 39 327 39 327 78.5 363.5 c 128,-1,40
 118 400 118 400 173 400 c 0,41,42
 235 400 235 400 269.5 366 c 128,-1,43
 304 332 304 332 304 269 c 2,44,-1
 304 48 l 1,45,46
 327 78 327 78 368 97 c 0,47,48
 417 121 417 121 426 128 c 0,49,50
 451 150 451 150 451 195 c 2,51,-1
 451 392 l 1,52,-1
 487 392 l 1,53,-1
 487 197 l 2,54,55
 487 137 487 137 468 118 c 1,56,57
 508 101 508 101 508 56 c 0,0,1
157 57 m 256,58,59
 157 71 157 71 147 81 c 128,-1,60
 137 91 137 91 123 91 c 256,61,62
 109 91 109 91 99.5 81 c 128,-1,63
 90 71 90 71 90 57 c 256,64,65
 90 43 90 43 99.5 33.5 c 128,-1,66
 109 24 109 24 123 24 c 256,67,68
 137 24 137 24 147 33.5 c 128,-1,69
 157 43 157 43 157 57 c 256,58,59
475 56 m 256,70,71
 475 70 475 70 465 80 c 128,-1,72
 455 90 455 90 441 90 c 256,73,74
 427 90 427 90 417 80 c 128,-1,75
 407 70 407 70 407 56 c 256,76,77
 407 42 407 42 417 32 c 128,-1,78
 427 22 427 22 441 22 c 256,79,80
 455 22 455 22 465 32 c 128,-1,81
 475 42 475 42 475 56 c 256,70,71
EndSplineSet
EndChar
StartChar: uni0E14
Encoding: 3604 3604 233
Width: 391
Flags: W
Fore
335 0 m 1,0,-1
 299 0 l 1,1,-1
 299 260 l 2,2,3
 299 368 299 368 184 368 c 0,4,5
 138 368 138 368 103 336.5 c 128,-1,6
 68 305 68 305 68 259 c 0,7,8
 68 230 68 230 84 180.5 c 128,-1,9
 100 131 100 131 100 104 c 0,10,11
 100 84 100 84 98 77 c 1,12,13
 110 103 110 103 139 135 c 0,14,15
 162 160 162 160 186 186 c 1,16,17
 161 186 161 186 144 203 c 128,-1,18
 127 220 127 220 127 245 c 256,19,20
 127 270 127 270 144 287 c 128,-1,21
 161 304 161 304 186 304 c 256,22,23
 211 304 211 304 228 287 c 128,-1,24
 245 270 245 270 245 245 c 0,25,26
 245 197 245 197 174.5 123 c 128,-1,27
 104 49 104 49 101 0 c 1,28,-1
 65 0 l 1,29,-1
 65 90 l 2,30,31
 65 119 65 119 48.5 172.5 c 128,-1,32
 32 226 32 226 32 254 c 0,33,34
 32 322 32 322 77 361 c 128,-1,35
 122 400 122 400 189 400 c 0,36,37
 258 400 258 400 296.5 363.5 c 128,-1,38
 335 327 335 327 335 265 c 2,39,-1
 335 0 l 1,0,-1
217 245 m 256,40,41
 217 258 217 258 208 267 c 128,-1,42
 199 276 199 276 186 276 c 256,43,44
 173 276 173 276 164 267 c 128,-1,45
 155 258 155 258 155 245 c 256,46,47
 155 232 155 232 164 223 c 128,-1,48
 173 214 173 214 186 214 c 256,49,50
 199 214 199 214 208 223 c 128,-1,51
 217 232 217 232 217 245 c 256,40,41
EndSplineSet
EndChar
StartChar: uni0E15
Encoding: 3605 3605 234
Width: 391
Flags: W
Fore
335 0 m 1,0,-1
 299 0 l 1,1,-1
 299 260 l 2,2,3
 299 334 299 334 251 363 c 1,4,5
 230 343 230 343 187 304 c 1,6,-1
 119 363 l 1,7,8
 69 331 69 331 69 259 c 0,9,10
 69 228 69 228 85 173.5 c 128,-1,11
 101 119 101 119 101 79 c 1,12,13
 111 99 111 99 141.5 124 c 128,-1,14
 172 149 172 149 182 164 c 1,15,16
 159 166 159 166 143.5 182 c 128,-1,17
 128 198 128 198 128 222 c 0,18,19
 128 247 128 247 144.5 264 c 128,-1,20
 161 281 161 281 186 281 c 256,21,22
 211 281 211 281 228 264 c 128,-1,23
 245 247 245 247 245 222 c 0,24,25
 245 176 245 176 175 112 c 128,-1,26
 105 48 105 48 102 0 c 1,27,-1
 66 0 l 1,28,-1
 66 90 l 2,29,30
 66 119 66 119 49 172.5 c 128,-1,31
 32 226 32 226 32 254 c 0,32,33
 32 303 32 303 54 343 c 0,34,35
 80 388 80 388 125 400 c 1,36,-1
 187 345 l 1,37,-1
 244 400 l 1,38,39
 288 392 288 392 313 349 c 0,40,41
 335 312 335 312 335 265 c 2,42,-1
 335 0 l 1,0,-1
219 223 m 256,43,44
 219 236 219 236 210 245 c 128,-1,45
 201 254 201 254 188 254 c 256,46,47
 175 254 175 254 166 245 c 128,-1,48
 157 236 157 236 157 223 c 256,49,50
 157 210 157 210 166 201 c 128,-1,51
 175 192 175 192 188 192 c 256,52,53
 201 192 201 192 210 201 c 128,-1,54
 219 210 219 210 219 223 c 256,43,44
EndSplineSet
EndChar
StartChar: uni0E16
Encoding: 3606 3606 235
Width: 378
Flags: W
Fore
322 0 m 1,0,-1
 286 0 l 1,1,-1
 286 261 l 2,2,3
 286 312 286 312 256 340 c 128,-1,4
 226 368 226 368 177 368 c 0,5,6
 143 368 143 368 112 348.5 c 128,-1,7
 81 329 81 329 69 299 c 1,8,9
 130 294 130 294 148 256 c 1,10,11
 125 251 125 251 107 229.5 c 128,-1,12
 89 208 89 208 89 183 c 2,13,-1
 89 118 l 1,14,15
 105 125 105 125 119 125 c 0,16,17
 147 125 147 125 166.5 105.5 c 128,-1,18
 186 86 186 86 186 58 c 0,19,20
 186 28 186 28 167 10 c 128,-1,21
 148 -8 148 -8 119 -8 c 0,22,23
 91 -8 91 -8 72 11 c 128,-1,24
 53 30 53 30 53 58 c 2,25,-1
 53 182 l 2,26,27
 53 236 53 236 104 261 c 1,28,29
 77 272 77 272 26 272 c 1,30,31
 34 327 34 327 78 363.5 c 128,-1,32
 122 400 122 400 179 400 c 0,33,34
 243 400 243 400 282.5 364 c 128,-1,35
 322 328 322 328 322 265 c 2,36,-1
 322 0 l 1,0,-1
154 57 m 256,37,38
 154 71 154 71 144 81 c 128,-1,39
 134 91 134 91 120 91 c 256,40,41
 106 91 106 91 96.5 81 c 128,-1,42
 87 71 87 71 87 57 c 256,43,44
 87 43 87 43 96.5 33.5 c 128,-1,45
 106 24 106 24 120 24 c 256,46,47
 134 24 134 24 144 33.5 c 128,-1,48
 154 43 154 43 154 57 c 256,37,38
EndSplineSet
EndChar
StartChar: uni0E17
Encoding: 3607 3607 236
Width: 430
Flags: W
Fore
374 0 m 1,0,-1
 338 0 l 1,1,-1
 338 320 l 2,2,3
 338 365 338 365 309 365 c 0,4,5
 291 365 291 365 278 339 c 2,6,-1
 151 0 l 1,7,-1
 113 0 l 1,8,-1
 113 275 l 1,9,10
 100 268 100 268 83 268 c 0,11,12
 56 268 56 268 36.5 287.5 c 128,-1,13
 17 307 17 307 17 334 c 256,14,15
 17 361 17 361 36.5 380.5 c 128,-1,16
 56 400 56 400 83 400 c 256,17,18
 110 400 110 400 129.5 380.5 c 128,-1,19
 149 361 149 361 149 334 c 2,20,-1
 149 138 l 2,21,22
 147 92 147 92 144 72 c 1,23,24
 150 92 150 92 162 128 c 2,25,-1
 243 344 l 2,26,27
 264 400 264 400 312 400 c 0,28,29
 374 400 374 400 374 320 c 2,30,-1
 374 0 l 1,0,-1
117 334 m 256,31,32
 117 348 117 348 107 358 c 128,-1,33
 97 368 97 368 83 368 c 256,34,35
 69 368 69 368 59 358 c 128,-1,36
 49 348 49 348 49 334 c 256,37,38
 49 320 49 320 59 310 c 128,-1,39
 69 300 69 300 83 300 c 256,40,41
 97 300 97 300 107 310 c 128,-1,42
 117 320 117 320 117 334 c 256,31,32
EndSplineSet
EndChar
StartChar: uni0E18
Encoding: 3608 3608 237
Width: 335
Flags: W
Fore
277 76 m 2,0,1
 277 -7 277 -7 167 -7 c 256,2,3
 57 -7 57 -7 57 76 c 2,4,-1
 57 232 l 1,5,-1
 93 232 l 1,6,-1
 93 74 l 2,7,8
 93 25 93 25 167 25 c 256,9,10
 241 25 241 25 241 74 c 2,11,-1
 241 222 l 2,12,13
 241 246 241 246 144 270 c 0,14,15
 85 285 85 285 20 294 c 1,16,17
 23 339 23 339 52.5 369.5 c 128,-1,18
 82 400 82 400 133 400 c 0,19,20
 156 400 156 400 193 389 c 128,-1,21
 230 378 230 378 248 378 c 0,22,23
 272 378 272 378 276 401 c 1,24,-1
 307 394 l 1,25,26
 292 345 292 345 250 345 c 0,27,28
 228 345 228 345 189.5 356.5 c 128,-1,29
 151 368 151 368 131 368 c 0,30,31
 110 368 110 368 89.5 354 c 128,-1,32
 69 340 69 340 66 321 c 1,33,34
 174 299 174 299 199 291 c 0,35,36
 277 265 277 265 277 225 c 2,37,-1
 277 76 l 2,0,1
EndSplineSet
EndChar
StartChar: uni0E19
Encoding: 3609 3609 238
Width: 420
Flags: W
Fore
384 57 m 0,0,1
 384 30 384 30 364.5 11 c 128,-1,2
 345 -8 345 -8 318 -8 c 256,3,4
 291 -8 291 -8 272 11 c 128,-1,5
 253 30 253 30 253 57 c 2,6,-1
 253 64 l 1,7,8
 191 39 191 39 157 0 c 1,9,-1
 113 0 l 1,10,-1
 113 275 l 1,11,12
 100 268 100 268 83 268 c 0,13,14
 56 268 56 268 36.5 287.5 c 128,-1,15
 17 307 17 307 17 334 c 256,16,17
 17 361 17 361 36.5 380.5 c 128,-1,18
 56 400 56 400 83 400 c 256,19,20
 110 400 110 400 129.5 380.5 c 128,-1,21
 149 361 149 361 149 334 c 2,22,-1
 149 39 l 1,23,24
 169 61 169 61 220 84 c 0,25,26
 277 110 277 110 294 124 c 0,27,28
 328 151 328 151 328 193 c 2,29,-1
 328 392 l 1,30,-1
 364 392 l 1,31,-1
 364 188 l 2,32,33
 364 140 364 140 342 118 c 1,34,35
 384 101 384 101 384 57 c 0,0,1
117 334 m 256,36,37
 117 348 117 348 107 358 c 128,-1,38
 97 368 97 368 83 368 c 256,39,40
 69 368 69 368 59 358 c 128,-1,41
 49 348 49 348 49 334 c 256,42,43
 49 320 49 320 59 310 c 128,-1,44
 69 300 69 300 83 300 c 256,45,46
 97 300 97 300 107 310 c 128,-1,47
 117 320 117 320 117 334 c 256,36,37
352 58 m 256,48,49
 352 72 352 72 342 82 c 128,-1,50
 332 92 332 92 318 92 c 256,51,52
 304 92 304 92 294 82 c 128,-1,53
 284 72 284 72 284 58 c 256,54,55
 284 44 284 44 294 34 c 128,-1,56
 304 24 304 24 318 24 c 256,57,58
 332 24 332 24 342 34 c 128,-1,59
 352 44 352 44 352 58 c 256,48,49
EndSplineSet
EndChar
StartChar: uni0E1A
Encoding: 3610 3610 239
Width: 428
Flags: W
Fore
372 85 m 2,0,1
 372 -8 372 -8 243 -8 c 0,2,3
 113 -8 113 -8 113 85 c 2,4,-1
 113 275 l 1,5,6
 100 268 100 268 83 268 c 0,7,8
 56 268 56 268 36.5 287.5 c 128,-1,9
 17 307 17 307 17 334 c 256,10,11
 17 361 17 361 36.5 380.5 c 128,-1,12
 56 400 56 400 83 400 c 256,13,14
 110 400 110 400 129.5 380.5 c 128,-1,15
 149 361 149 361 149 334 c 2,16,-1
 149 88 l 2,17,18
 149 25 149 25 243 25 c 0,19,20
 336 25 336 25 336 88 c 2,21,-1
 336 392 l 1,22,-1
 372 392 l 1,23,-1
 372 85 l 2,0,1
117 334 m 256,24,25
 117 348 117 348 107 358 c 128,-1,26
 97 368 97 368 83 368 c 256,27,28
 69 368 69 368 59 358 c 128,-1,29
 49 348 49 348 49 334 c 256,30,31
 49 320 49 320 59 310 c 128,-1,32
 69 300 69 300 83 300 c 256,33,34
 97 300 97 300 107 310 c 128,-1,35
 117 320 117 320 117 334 c 256,24,25
EndSplineSet
EndChar
StartChar: uni0E1B
Encoding: 3611 3611 240
Width: 428
Flags: W
Fore
372 85 m 2,0,1
 372 -8 372 -8 243 -8 c 0,2,3
 113 -8 113 -8 113 85 c 2,4,-1
 113 275 l 1,5,6
 100 268 100 268 83 268 c 0,7,8
 56 268 56 268 36.5 287.5 c 128,-1,9
 17 307 17 307 17 334 c 256,10,11
 17 361 17 361 36.5 380.5 c 128,-1,12
 56 400 56 400 83 400 c 256,13,14
 110 400 110 400 129.5 380.5 c 128,-1,15
 149 361 149 361 149 334 c 2,16,-1
 149 88 l 2,17,18
 149 25 149 25 243 25 c 0,19,20
 336 25 336 25 336 88 c 2,21,-1
 336 559 l 1,22,-1
 372 559 l 1,23,-1
 372 85 l 2,0,1
117 334 m 256,24,25
 117 348 117 348 107 358 c 128,-1,26
 97 368 97 368 83 368 c 256,27,28
 69 368 69 368 59 358 c 128,-1,29
 49 348 49 348 49 334 c 256,30,31
 49 320 49 320 59 310 c 128,-1,32
 69 300 69 300 83 300 c 256,33,34
 97 300 97 300 107 310 c 128,-1,35
 117 320 117 320 117 334 c 256,24,25
EndSplineSet
EndChar
StartChar: uni0E1C
Encoding: 3612 3612 241
Width: 381
Flags: W
Fore
325 0 m 1,0,-1
 285 0 l 1,1,-1
 182 158 l 1,2,-1
 80 0 l 1,3,-1
 40 0 l 1,4,-1
 40 334 l 2,5,6
 40 361 40 361 59 380.5 c 128,-1,7
 78 400 78 400 106 400 c 0,8,9
 133 400 133 400 152.5 380.5 c 128,-1,10
 172 361 172 361 172 334 c 0,11,12
 172 308 172 308 153 288 c 128,-1,13
 134 268 134 268 106 268 c 0,14,15
 92 268 92 268 76 275 c 1,16,-1
 76 54 l 1,17,-1
 168 196 l 1,18,-1
 195 196 l 1,19,-1
 289 54 l 1,20,-1
 289 392 l 1,21,-1
 325 392 l 1,22,-1
 325 0 l 1,0,-1
141 334 m 256,23,24
 141 348 141 348 131 358 c 128,-1,25
 121 368 121 368 107 368 c 256,26,27
 93 368 93 368 83 358 c 128,-1,28
 73 348 73 348 73 334 c 256,29,30
 73 320 73 320 83 310 c 128,-1,31
 93 300 93 300 107 300 c 256,32,33
 121 300 121 300 131 310 c 128,-1,34
 141 320 141 320 141 334 c 256,23,24
EndSplineSet
EndChar
StartChar: uni0E1D
Encoding: 3613 3613 242
Width: 381
Flags: W
Fore
325 0 m 1,0,-1
 285 0 l 1,1,-1
 182 158 l 1,2,-1
 80 0 l 1,3,-1
 40 0 l 1,4,-1
 40 334 l 2,5,6
 40 361 40 361 59 380.5 c 128,-1,7
 78 400 78 400 106 400 c 0,8,9
 133 400 133 400 152.5 380.5 c 128,-1,10
 172 361 172 361 172 334 c 0,11,12
 172 308 172 308 153 288 c 128,-1,13
 134 268 134 268 106 268 c 0,14,15
 92 268 92 268 76 275 c 1,16,-1
 76 54 l 1,17,-1
 168 196 l 1,18,-1
 195 196 l 1,19,-1
 289 54 l 1,20,-1
 289 559 l 1,21,-1
 325 559 l 1,22,-1
 325 0 l 1,0,-1
141 334 m 256,23,24
 141 348 141 348 131 358 c 128,-1,25
 121 368 121 368 107 368 c 256,26,27
 93 368 93 368 83 358 c 128,-1,28
 73 348 73 348 73 334 c 256,29,30
 73 320 73 320 83 310 c 128,-1,31
 93 300 93 300 107 300 c 256,32,33
 121 300 121 300 131 310 c 128,-1,34
 141 320 141 320 141 334 c 256,23,24
EndSplineSet
EndChar
StartChar: uni0E1E
Encoding: 3614 3614 243
Width: 447
Flags: W
Fore
391 0 m 1,0,-1
 347 0 l 1,1,-1
 252 347 l 1,2,-1
 157 0 l 1,3,-1
 113 0 l 1,4,-1
 113 275 l 1,5,6
 100 268 100 268 83 268 c 0,7,8
 56 268 56 268 36.5 287.5 c 128,-1,9
 17 307 17 307 17 334 c 256,10,11
 17 361 17 361 36.5 380.5 c 128,-1,12
 56 400 56 400 83 400 c 256,13,14
 110 400 110 400 129.5 380.5 c 128,-1,15
 149 361 149 361 149 334 c 2,16,-1
 149 125 l 2,17,18
 149 100 149 100 144 55 c 1,19,20
 151 88 151 88 162 128 c 2,21,-1
 235 392 l 1,22,-1
 269 392 l 1,23,-1
 342 128 l 2,24,25
 353 88 353 88 360 55 c 1,26,27
 355 100 355 100 355 125 c 2,28,-1
 355 392 l 1,29,-1
 391 392 l 1,30,-1
 391 0 l 1,0,-1
117 334 m 256,31,32
 117 348 117 348 107 358 c 128,-1,33
 97 368 97 368 83 368 c 256,34,35
 69 368 69 368 59 358 c 128,-1,36
 49 348 49 348 49 334 c 256,37,38
 49 320 49 320 59 310 c 128,-1,39
 69 300 69 300 83 300 c 256,40,41
 97 300 97 300 107 310 c 128,-1,42
 117 320 117 320 117 334 c 256,31,32
EndSplineSet
EndChar
StartChar: uni0E1F
Encoding: 3615 3615 244
Width: 447
Flags: W
Fore
391 0 m 1,0,-1
 347 0 l 1,1,-1
 252 347 l 1,2,-1
 157 0 l 1,3,-1
 113 0 l 1,4,-1
 113 275 l 1,5,6
 100 268 100 268 83 268 c 0,7,8
 56 268 56 268 36.5 287.5 c 128,-1,9
 17 307 17 307 17 334 c 256,10,11
 17 361 17 361 36.5 380.5 c 128,-1,12
 56 400 56 400 83 400 c 256,13,14
 110 400 110 400 129.5 380.5 c 128,-1,15
 149 361 149 361 149 334 c 2,16,-1
 149 125 l 2,17,18
 149 100 149 100 144 55 c 1,19,20
 151 88 151 88 162 128 c 2,21,-1
 235 392 l 1,22,-1
 269 392 l 1,23,-1
 342 128 l 2,24,25
 353 88 353 88 360 55 c 1,26,27
 355 100 355 100 355 125 c 2,28,-1
 355 559 l 1,29,-1
 391 559 l 1,30,-1
 391 0 l 1,0,-1
117 334 m 256,31,32
 117 348 117 348 107 358 c 128,-1,33
 97 368 97 368 83 368 c 256,34,35
 69 368 69 368 59 358 c 128,-1,36
 49 348 49 348 49 334 c 256,37,38
 49 320 49 320 59 310 c 128,-1,39
 69 300 69 300 83 300 c 256,40,41
 97 300 97 300 107 310 c 128,-1,42
 117 320 117 320 117 334 c 256,31,32
EndSplineSet
EndChar
StartChar: uni0E20
Encoding: 3616 3616 245
Width: 425
Flags: W
Fore
369 0 m 1,0,-1
 333 0 l 1,1,-1
 333 260 l 2,2,3
 333 309 333 309 302.5 338.5 c 128,-1,4
 272 368 272 368 224 368 c 0,5,6
 190 368 190 368 158.5 348.5 c 128,-1,7
 127 329 127 329 115 299 c 1,8,9
 168 294 168 294 196 255 c 1,10,11
 142 237 142 237 142 182 c 0,12,13
 142 143 142 143 151 102 c 0,14,15
 155 84 155 84 155 60 c 0,16,17
 155 31 155 31 137.5 11.5 c 128,-1,18
 120 -8 120 -8 89 -8 c 0,19,20
 62 -8 62 -8 43 11 c 128,-1,21
 24 30 24 30 24 57 c 256,22,23
 24 84 24 84 43 103.5 c 128,-1,24
 62 123 62 123 89 123 c 0,25,26
 100 123 100 123 113 118 c 1,27,28
 107 164 107 164 107 188 c 0,29,30
 107 234 107 234 147 260 c 1,31,32
 120 272 120 272 94 272 c 0,33,34
 81 272 81 272 75 271 c 1,35,36
 80 327 80 327 123.5 363.5 c 128,-1,37
 167 400 167 400 225 400 c 0,38,39
 289 400 289 400 329 363.5 c 128,-1,40
 369 327 369 327 369 264 c 2,41,-1
 369 0 l 1,0,-1
123 57 m 256,42,43
 123 71 123 71 113 81 c 128,-1,44
 103 91 103 91 89 91 c 256,45,46
 75 91 75 91 65.5 81 c 128,-1,47
 56 71 56 71 56 57 c 256,48,49
 56 43 56 43 65.5 33.5 c 128,-1,50
 75 24 75 24 89 24 c 256,51,52
 103 24 103 24 113 33.5 c 128,-1,53
 123 43 123 43 123 57 c 256,42,43
EndSplineSet
EndChar
StartChar: uni0E21
Encoding: 3617 3617 246
Width: 400
Flags: W
Fore
344 0 m 1,0,-1
 305 0 l 1,1,2
 227 60 227 60 159 79 c 1,3,4
 162 70 162 70 162 61 c 0,5,6
 162 32 162 32 141.5 12 c 128,-1,7
 121 -8 121 -8 92 -8 c 256,8,9
 63 -8 63 -8 43 12 c 128,-1,10
 23 32 23 32 23 61 c 256,11,12
 23 90 23 90 43 110.5 c 128,-1,13
 63 131 63 131 92 131 c 0,14,15
 103 131 103 131 113 128 c 1,16,-1
 113 275 l 1,17,18
 100 268 100 268 83 268 c 0,19,20
 56 268 56 268 36.5 287.5 c 128,-1,21
 17 307 17 307 17 334 c 256,22,23
 17 361 17 361 36.5 380.5 c 128,-1,24
 56 400 56 400 83 400 c 256,25,26
 110 400 110 400 129.5 380.5 c 128,-1,27
 149 361 149 361 149 334 c 2,28,-1
 149 118 l 1,29,30
 248 83 248 83 308 37 c 1,31,-1
 308 392 l 1,32,-1
 344 392 l 1,33,-1
 344 0 l 1,0,-1
129 62 m 256,34,35
 129 77 129 77 118 88 c 128,-1,36
 107 99 107 99 92 99 c 256,37,38
 77 99 77 99 66 88 c 128,-1,39
 55 77 55 77 55 62 c 256,40,41
 55 47 55 47 66 36 c 128,-1,42
 77 25 77 25 92 25 c 256,43,44
 107 25 107 25 118 36 c 128,-1,45
 129 47 129 47 129 62 c 256,34,35
117 334 m 256,46,47
 117 348 117 348 107 358 c 128,-1,48
 97 368 97 368 83 368 c 256,49,50
 69 368 69 368 59 358 c 128,-1,51
 49 348 49 348 49 334 c 256,52,53
 49 320 49 320 59 310 c 128,-1,54
 69 300 69 300 83 300 c 256,55,56
 97 300 97 300 107 310 c 128,-1,57
 117 320 117 320 117 334 c 256,46,47
EndSplineSet
EndChar
StartChar: uni0E22
Encoding: 3618 3618 247
Width: 375
Flags: W
Fore
319 89 m 2,0,1
 319 -8 319 -8 184 -8 c 0,2,3
 48 -8 48 -8 48 89 c 2,4,-1
 48 140 l 2,5,6
 48 163 48 163 61.5 184 c 128,-1,7
 75 205 75 205 95 213 c 1,8,9
 42 236 42 236 42 312 c 0,10,11
 42 351 42 351 64.5 375.5 c 128,-1,12
 87 400 87 400 127 400 c 0,13,14
 152 400 152 400 168 383 c 128,-1,15
 184 366 184 366 184 343 c 256,16,17
 184 320 184 320 169 303.5 c 128,-1,18
 154 287 154 287 127 287 c 0,19,20
 90 287 90 287 75 320 c 1,21,22
 74 313 74 313 74 304 c 0,23,24
 74 276 74 276 91.5 253 c 128,-1,25
 109 230 109 230 137 230 c 2,26,-1
 194 230 l 1,27,-1
 194 196 l 1,28,-1
 136 196 l 2,29,30
 114 196 114 196 99 180 c 128,-1,31
 84 164 84 164 84 138 c 2,32,-1
 84 92 l 2,33,34
 84 25 84 25 184 25 c 0,35,36
 283 25 283 25 283 92 c 2,37,-1
 283 392 l 1,38,-1
 319 392 l 1,39,-1
 319 89 l 2,0,1
158 343 m 256,40,41
 158 357 158 357 149 366 c 128,-1,42
 140 375 140 375 126 375 c 256,43,44
 112 375 112 375 103.5 366 c 128,-1,45
 95 357 95 357 95 343 c 256,46,47
 95 329 95 329 103.5 320.5 c 128,-1,48
 112 312 112 312 126 312 c 256,49,50
 140 312 140 312 149 320.5 c 128,-1,51
 158 329 158 329 158 343 c 256,40,41
EndSplineSet
EndChar
StartChar: uni0E23
Encoding: 3619 3619 248
Width: 322
Flags: W
Fore
254 58 m 2,0,1
 254 31 254 31 236 11.5 c 128,-1,2
 218 -8 218 -8 188 -8 c 0,3,4
 161 -8 161 -8 141.5 11.5 c 128,-1,5
 122 31 122 31 122 58 c 256,6,7
 122 85 122 85 141.5 104.5 c 128,-1,8
 161 124 161 124 188 124 c 0,9,10
 205 124 205 124 218 117 c 1,11,-1
 218 222 l 2,12,13
 218 263 218 263 25 294 c 1,14,15
 31 400 31 400 122 400 c 0,16,17
 143 400 143 400 181.5 389.5 c 128,-1,18
 220 379 220 379 237 379 c 0,19,20
 247 379 247 379 256 402 c 1,21,-1
 287 394 l 1,22,23
 272 346 272 346 236 346 c 0,24,25
 215 346 215 346 175.5 357 c 128,-1,26
 136 368 136 368 116 368 c 0,27,28
 98 368 98 368 82.5 352.5 c 128,-1,29
 67 337 67 337 66 321 c 1,30,31
 130 310 130 310 192 288 c 128,-1,32
 254 266 254 266 254 225 c 2,33,-1
 254 58 l 2,0,1
222 58 m 256,34,35
 222 72 222 72 212 82 c 128,-1,36
 202 92 202 92 188 92 c 256,37,38
 174 92 174 92 164 82 c 128,-1,39
 154 72 154 72 154 58 c 256,40,41
 154 44 154 44 164 34 c 128,-1,42
 174 24 174 24 188 24 c 256,43,44
 202 24 202 24 212 34 c 128,-1,45
 222 44 222 44 222 58 c 256,34,35
EndSplineSet
EndChar
StartChar: uni0E24
Encoding: 3620 3620 249
Width: 378
Flags: W
Fore
322 -200 m 1,0,-1
 286 -200 l 1,1,-1
 286 261 l 2,2,3
 286 312 286 312 256 340 c 128,-1,4
 226 368 226 368 177 368 c 0,5,6
 143 368 143 368 112 348.5 c 128,-1,7
 81 329 81 329 69 299 c 1,8,9
 130 294 130 294 148 256 c 1,10,11
 125 251 125 251 107 229.5 c 128,-1,12
 89 208 89 208 89 183 c 2,13,-1
 89 118 l 1,14,15
 105 125 105 125 119 125 c 0,16,17
 147 125 147 125 166.5 105.5 c 128,-1,18
 186 86 186 86 186 58 c 256,19,20
 186 30 186 30 166.5 11 c 128,-1,21
 147 -8 147 -8 119 -8 c 256,22,23
 91 -8 91 -8 72 11 c 128,-1,24
 53 30 53 30 53 58 c 2,25,-1
 53 182 l 2,26,27
 53 236 53 236 104 261 c 1,28,29
 77 272 77 272 26 272 c 1,30,31
 34 327 34 327 78 363.5 c 128,-1,32
 122 400 122 400 179 400 c 0,33,34
 243 400 243 400 282.5 364 c 128,-1,35
 322 328 322 328 322 265 c 2,36,-1
 322 -200 l 1,0,-1
154 57 m 256,37,38
 154 71 154 71 144 81 c 128,-1,39
 134 91 134 91 120 91 c 256,40,41
 106 91 106 91 96.5 81 c 128,-1,42
 87 71 87 71 87 57 c 256,43,44
 87 43 87 43 96.5 33.5 c 128,-1,45
 106 24 106 24 120 24 c 256,46,47
 134 24 134 24 144 33.5 c 128,-1,48
 154 43 154 43 154 57 c 256,37,38
EndSplineSet
EndChar
StartChar: uni0E25
Encoding: 3621 3621 250
Width: 381
Flags: W
Fore
325 0 m 1,0,-1
 289 0 l 1,1,-1
 289 171 l 2,2,3
 289 206 289 206 252 227 c 0,4,5
 221 244 221 244 180 244 c 0,6,7
 140 244 140 244 112 222.5 c 128,-1,8
 84 201 84 201 84 167 c 2,9,-1
 84 117 l 1,10,11
 98 124 98 124 117 124 c 0,12,13
 145 124 145 124 164 104.5 c 128,-1,14
 183 85 183 85 183 58 c 256,15,16
 183 31 183 31 164 11.5 c 128,-1,17
 145 -8 145 -8 117 -8 c 0,18,19
 86 -8 86 -8 67 12 c 128,-1,20
 48 32 48 32 48 59 c 2,21,-1
 48 167 l 2,22,23
 48 217 48 217 88 249 c 0,24,25
 125 279 125 279 177 279 c 0,26,27
 247 279 247 279 289 239 c 1,28,-1
 289 288 l 2,29,30
 289 324 289 324 251 348 c 0,31,32
 218 368 218 368 178 368 c 0,33,34
 136 368 136 368 102 350 c 0,35,36
 65 330 65 330 56 296 c 1,37,-1
 21 296 l 1,38,39
 28 342 28 342 75 372 c 0,40,41
 119 400 119 400 176 400 c 0,42,43
 234 400 234 400 276 373 c 0,44,45
 325 341 325 341 325 286 c 2,46,-1
 325 0 l 1,0,-1
150 57 m 256,47,48
 150 71 150 71 140 81 c 128,-1,49
 130 91 130 91 116 91 c 256,50,51
 102 91 102 91 92.5 81 c 128,-1,52
 83 71 83 71 83 57 c 256,53,54
 83 43 83 43 92.5 33.5 c 128,-1,55
 102 24 102 24 116 24 c 256,56,57
 130 24 130 24 140 33.5 c 128,-1,58
 150 43 150 43 150 57 c 256,47,48
EndSplineSet
EndChar
StartChar: uni0E26
Encoding: 3622 3622 251
Width: 425
Flags: W
Fore
369 -200 m 1,0,-1
 333 -200 l 1,1,-1
 333 260 l 2,2,3
 333 309 333 309 302.5 338.5 c 128,-1,4
 272 368 272 368 224 368 c 0,5,6
 190 368 190 368 158.5 348.5 c 128,-1,7
 127 329 127 329 115 299 c 1,8,9
 168 294 168 294 196 255 c 1,10,11
 142 237 142 237 142 182 c 0,12,13
 142 143 142 143 151 102 c 0,14,15
 155 84 155 84 155 60 c 0,16,17
 155 31 155 31 135.5 11.5 c 128,-1,18
 116 -8 116 -8 89 -8 c 256,19,20
 62 -8 62 -8 43 11 c 128,-1,21
 24 30 24 30 24 57 c 256,22,23
 24 84 24 84 43 103.5 c 128,-1,24
 62 123 62 123 89 123 c 0,25,26
 100 123 100 123 113 118 c 1,27,28
 107 164 107 164 107 188 c 0,29,30
 107 234 107 234 147 260 c 1,31,32
 120 272 120 272 94 272 c 0,33,34
 81 272 81 272 75 271 c 1,35,36
 80 327 80 327 123.5 363.5 c 128,-1,37
 167 400 167 400 225 400 c 0,38,39
 289 400 289 400 329 363.5 c 128,-1,40
 369 327 369 327 369 264 c 2,41,-1
 369 -200 l 1,0,-1
123 57 m 256,42,43
 123 71 123 71 113 81 c 128,-1,44
 103 91 103 91 89 91 c 256,45,46
 75 91 75 91 65.5 81 c 128,-1,47
 56 71 56 71 56 57 c 256,48,49
 56 43 56 43 65.5 33.5 c 128,-1,50
 75 24 75 24 89 24 c 256,51,52
 103 24 103 24 113 33.5 c 128,-1,53
 123 43 123 43 123 57 c 256,42,43
EndSplineSet
EndChar
StartChar: uni0E27
Encoding: 3623 3623 252
Width: 335
Flags: W
Fore
279 58 m 2,0,1
 279 31 279 31 259.5 11.5 c 128,-1,2
 240 -8 240 -8 213 -8 c 256,3,4
 186 -8 186 -8 166.5 11.5 c 128,-1,5
 147 31 147 31 147 58 c 256,6,7
 147 85 147 85 166.5 104.5 c 128,-1,8
 186 124 186 124 213 124 c 0,9,10
 230 124 230 124 243 117 c 1,11,-1
 243 279 l 2,12,13
 243 368 243 368 144 368 c 0,14,15
 66 368 66 368 47 296 c 1,16,-1
 10 296 l 1,17,18
 32 400 32 400 146 400 c 0,19,20
 203 400 203 400 241 370 c 128,-1,21
 279 340 279 340 279 285 c 2,22,-1
 279 58 l 2,0,1
247 58 m 256,23,24
 247 72 247 72 237 82 c 128,-1,25
 227 92 227 92 213 92 c 256,26,27
 199 92 199 92 189 82 c 128,-1,28
 179 72 179 72 179 58 c 256,29,30
 179 44 179 44 189 34 c 128,-1,31
 199 24 199 24 213 24 c 256,32,33
 227 24 227 24 237 34 c 128,-1,34
 247 44 247 44 247 58 c 256,23,24
EndSplineSet
EndChar
StartChar: uni0E28
Encoding: 3624 3624 253
Width: 393
Flags: W
Fore
337 0 m 1,0,-1
 301 0 l 1,1,-1
 301 269 l 2,2,3
 301 313 301 313 266 340 c 1,4,5
 259 334 259 334 215 301 c 1,6,7
 250 287 250 287 250 245 c 0,8,9
 250 221 250 221 233 204 c 128,-1,10
 216 187 216 187 192 187 c 0,11,12
 162 187 162 187 145 210 c 1,13,14
 131 189 131 189 117 150 c 0,15,16
 101 102 101 102 101 65 c 2,17,-1
 101 0 l 1,18,-1
 65 0 l 1,19,-1
 65 92 l 2,20,21
 65 121 65 121 49 174 c 128,-1,22
 33 227 33 227 33 255 c 0,23,24
 33 320 33 320 77 360 c 128,-1,25
 121 400 121 400 187 400 c 0,26,27
 229 400 229 400 266 383 c 1,28,29
 302 415 302 415 304 430 c 1,30,-1
 350 430 l 1,31,32
 346 406 346 406 296 364 c 1,33,34
 337 331 337 331 337 272 c 2,35,-1
 337 0 l 1,0,-1
237 358 m 1,36,37
 213 368 213 368 185 368 c 0,38,39
 139 368 139 368 104.5 336.5 c 128,-1,40
 70 305 70 305 70 259 c 0,41,42
 70 237 70 237 78 206 c 0,43,44
 89 162 89 162 90 156 c 1,45,46
 109 258 109 258 158 296 c 2,47,-1
 237 358 l 1,36,37
222 245 m 256,48,49
 222 258 222 258 213 267 c 128,-1,50
 204 276 204 276 191 276 c 256,51,52
 178 276 178 276 169 267 c 128,-1,53
 160 258 160 258 160 245 c 256,54,55
 160 232 160 232 169 223 c 128,-1,56
 178 214 178 214 191 214 c 256,57,58
 204 214 204 214 213 223 c 128,-1,59
 222 232 222 232 222 245 c 256,48,49
EndSplineSet
EndChar
StartChar: uni0E29
Encoding: 3625 3625 254
Width: 438
Flags: W
Fore
443 239 m 1,0,1
 429 212 429 212 382 175 c 1,2,-1
 382 85 l 2,3,4
 382 -8 382 -8 248 -8 c 0,5,6
 113 -8 113 -8 113 85 c 2,7,-1
 113 275 l 1,8,9
 100 268 100 268 83 268 c 0,10,11
 56 268 56 268 36.5 287.5 c 128,-1,12
 17 307 17 307 17 334 c 256,13,14
 17 361 17 361 36.5 380.5 c 128,-1,15
 56 400 56 400 83 400 c 256,16,17
 110 400 110 400 129.5 380.5 c 128,-1,18
 149 361 149 361 149 334 c 2,19,-1
 149 88 l 2,20,21
 149 25 149 25 247 25 c 0,22,23
 346 25 346 25 346 88 c 2,24,-1
 346 161 l 1,25,26
 316 154 316 154 297 154 c 0,27,28
 251 154 251 154 217 179 c 128,-1,29
 183 204 183 204 183 240 c 0,30,31
 183 263 183 263 199 278.5 c 128,-1,32
 215 294 215 294 237 294 c 0,33,34
 260 294 260 294 276 278.5 c 128,-1,35
 292 263 292 263 292 240 c 0,36,37
 292 205 292 205 257 189 c 1,38,39
 269 182 269 182 297 182 c 0,40,41
 324 182 324 182 346 192 c 1,42,-1
 346 392 l 1,43,-1
 382 392 l 1,44,-1
 382 212 l 1,45,46
 406 230 406 230 421 258 c 1,47,-1
 443 239 l 1,0,1
265 240 m 256,48,49
 265 251 265 251 256.5 259.5 c 128,-1,50
 248 268 248 268 237 268 c 256,51,52
 226 268 226 268 218 259.5 c 128,-1,53
 210 251 210 251 210 240 c 256,54,55
 210 229 210 229 218 221 c 128,-1,56
 226 213 226 213 237 213 c 256,57,58
 248 213 248 213 256.5 221 c 128,-1,59
 265 229 265 229 265 240 c 256,48,49
117 334 m 256,60,61
 117 348 117 348 107 358 c 128,-1,62
 97 368 97 368 83 368 c 256,63,64
 69 368 69 368 59 358 c 128,-1,65
 49 348 49 348 49 334 c 256,66,67
 49 320 49 320 59 310 c 128,-1,68
 69 300 69 300 83 300 c 256,69,70
 97 300 97 300 107 310 c 128,-1,71
 117 320 117 320 117 334 c 256,60,61
EndSplineSet
EndChar
StartChar: uni0E2A
Encoding: 3626 3626 255
Width: 381
Flags: W
Fore
325 0 m 1,0,-1
 289 0 l 1,1,-1
 289 163 l 2,2,3
 289 198 289 198 252 219 c 0,4,5
 221 236 221 236 180 236 c 0,6,7
 140 236 140 236 112 214.5 c 128,-1,8
 84 193 84 193 84 159 c 2,9,-1
 84 117 l 1,10,11
 98 124 98 124 117 124 c 0,12,13
 145 124 145 124 164 104.5 c 128,-1,14
 183 85 183 85 183 58 c 256,15,16
 183 31 183 31 164 11.5 c 128,-1,17
 145 -8 145 -8 117 -8 c 0,18,19
 86 -8 86 -8 67 12 c 128,-1,20
 48 32 48 32 48 59 c 2,21,-1
 48 159 l 2,22,23
 48 209 48 209 88 241 c 0,24,25
 125 271 125 271 177 271 c 2,26,-1
 183 271 l 1,27,28
 228 308 228 308 259 343 c 1,29,30
 222 368 222 368 178 368 c 0,31,32
 136 368 136 368 102 350 c 0,33,34
 65 330 65 330 56 296 c 1,35,-1
 21 296 l 1,36,37
 28 342 28 342 75 372 c 0,38,39
 119 400 119 400 176 400 c 256,40,41
 233 400 233 400 279 371 c 1,42,43
 300 395 300 395 306 427 c 1,44,-1
 342 427 l 1,45,46
 335 387 335 387 304 348 c 1,47,48
 325 321 325 321 325 286 c 2,49,-1
 325 0 l 1,0,-1
289 231 m 1,50,-1
 289 288 l 2,51,52
 289 302 289 302 280 320 c 1,53,54
 252 290 252 290 220 266 c 1,55,56
 262 256 262 256 289 231 c 1,50,-1
150 57 m 256,57,58
 150 71 150 71 140 81 c 128,-1,59
 130 91 130 91 116 91 c 256,60,61
 102 91 102 91 92.5 81 c 128,-1,62
 83 71 83 71 83 57 c 256,63,64
 83 43 83 43 92.5 33.5 c 128,-1,65
 102 24 102 24 116 24 c 256,66,67
 130 24 130 24 140 33.5 c 128,-1,68
 150 43 150 43 150 57 c 256,57,58
EndSplineSet
EndChar
StartChar: uni0E2B
Encoding: 3627 3627 256
Width: 427
Flags: W
Fore
371 0 m 1,0,-1
 335 0 l 1,1,-1
 335 216 l 2,2,3
 335 262 335 262 311 262 c 0,4,5
 296 262 296 262 275 227 c 2,6,-1
 146 0 l 1,7,-1
 113 0 l 1,8,-1
 113 275 l 1,9,10
 100 268 100 268 83 268 c 0,11,12
 56 268 56 268 36.5 287.5 c 128,-1,13
 17 307 17 307 17 334 c 256,14,15
 17 361 17 361 36.5 380.5 c 128,-1,16
 56 400 56 400 83 400 c 256,17,18
 110 400 110 400 129.5 380.5 c 128,-1,19
 149 361 149 361 149 334 c 2,20,-1
 149 117 l 2,21,22
 149 108 149 108 144 55 c 1,23,24
 156 80 156 80 166 99 c 2,25,-1
 247 248 l 2,26,27
 261 273 261 273 280 283 c 1,28,29
 256 302 256 302 256 334 c 0,30,31
 256 361 256 361 275.5 380.5 c 128,-1,32
 295 400 295 400 322 400 c 256,33,34
 349 400 349 400 368.5 380.5 c 128,-1,35
 388 361 388 361 388 334 c 0,36,37
 388 296 388 296 355 277 c 1,38,39
 371 260 371 260 371 216 c 2,40,-1
 371 0 l 1,0,-1
117 334 m 256,41,42
 117 348 117 348 107 358 c 128,-1,43
 97 368 97 368 83 368 c 256,44,45
 69 368 69 368 59 358 c 128,-1,46
 49 348 49 348 49 334 c 256,47,48
 49 320 49 320 59 310 c 128,-1,49
 69 300 69 300 83 300 c 256,50,51
 97 300 97 300 107 310 c 128,-1,52
 117 320 117 320 117 334 c 256,41,42
356 334 m 256,53,54
 356 348 356 348 346 358 c 128,-1,55
 336 368 336 368 322 368 c 256,56,57
 308 368 308 368 298 358 c 128,-1,58
 288 348 288 348 288 334 c 256,59,60
 288 320 288 320 298 310 c 128,-1,61
 308 300 308 300 322 300 c 256,62,63
 336 300 336 300 346 310 c 128,-1,64
 356 320 356 320 356 334 c 256,53,54
EndSplineSet
EndChar
StartChar: uni0E2C
Encoding: 3628 3628 257
AltUni: 63261
Width: 454
Flags: W
Fore
398 0 m 1,0,-1
 354 0 l 1,1,-1
 254 195 l 1,2,-1
 154 0 l 1,3,-1
 113 0 l 1,4,-1
 113 275 l 1,5,6
 100 268 100 268 83 268 c 0,7,8
 56 268 56 268 36.5 287.5 c 128,-1,9
 17 307 17 307 17 334 c 256,10,11
 17 361 17 361 36.5 380.5 c 128,-1,12
 56 400 56 400 83 400 c 256,13,14
 110 400 110 400 129.5 380.5 c 128,-1,15
 149 361 149 361 149 334 c 2,16,-1
 149 98 l 2,17,18
 149 82 149 82 146 49 c 1,19,20
 152 66 152 66 163 92 c 2,21,-1
 237 232 l 1,22,-1
 271 232 l 1,23,-1
 345 92 l 2,24,25
 348 85 348 85 364 49 c 1,26,27
 362 81 362 81 362 98 c 2,28,-1
 362 275 l 1,29,30
 349 268 349 268 332 268 c 0,31,32
 305 268 305 268 285.5 287.5 c 128,-1,33
 266 307 266 307 266 334 c 256,34,35
 266 361 266 361 285.5 380.5 c 128,-1,36
 305 400 305 400 332 400 c 0,37,38
 348 400 348 400 362 392 c 1,39,40
 382 401 382 401 387 431 c 1,41,-1
 433 431 l 1,42,43
 424 394 424 394 389 367 c 1,44,45
 398 349 398 349 398 334 c 2,46,-1
 398 0 l 1,0,-1
117 334 m 256,47,48
 117 348 117 348 107 358 c 128,-1,49
 97 368 97 368 83 368 c 256,50,51
 69 368 69 368 59 358 c 128,-1,52
 49 348 49 348 49 334 c 256,53,54
 49 320 49 320 59 310 c 128,-1,55
 69 300 69 300 83 300 c 256,56,57
 97 300 97 300 107 310 c 128,-1,58
 117 320 117 320 117 334 c 256,47,48
366 334 m 256,59,60
 366 348 366 348 356 358 c 128,-1,61
 346 368 346 368 332 368 c 256,62,63
 318 368 318 368 308 358 c 128,-1,64
 298 348 298 348 298 334 c 256,65,66
 298 320 298 320 308 310 c 128,-1,67
 318 300 318 300 332 300 c 256,68,69
 346 300 346 300 356 310 c 128,-1,70
 366 320 366 320 366 334 c 256,59,60
EndSplineSet
Substitution: 0 65534 'L055' uni0E2C.alt1
Substitution: 0 65534 'L055' uni0E2C.alt1
EndChar
StartChar: uni0E2D
Encoding: 3629 3629 258
Width: 387
Flags: W
Fore
165 208 m 256,0,1
 165 222 165 222 155 232 c 128,-1,2
 145 242 145 242 131 242 c 256,3,4
 117 242 117 242 107 232 c 128,-1,5
 97 222 97 222 97 208 c 256,6,7
 97 194 97 194 107 184 c 128,-1,8
 117 174 117 174 131 174 c 256,9,10
 145 174 145 174 155 184 c 128,-1,11
 165 194 165 194 165 208 c 256,0,1
331 85 m 2,12,13
 329 -8 329 -8 197 -8 c 256,14,15
 65 -8 65 -8 65 85 c 2,16,-1
 65 208 l 2,17,18
 65 235 65 235 84.5 254.5 c 128,-1,19
 104 274 104 274 131 274 c 256,20,21
 158 274 158 274 177.5 254.5 c 128,-1,22
 197 235 197 235 197 208 c 256,23,24
 197 181 197 181 179 161.5 c 128,-1,25
 161 142 161 142 131 142 c 0,26,27
 114 142 114 142 101 149 c 1,28,-1
 101 93 l 2,29,30
 101 25 101 25 199 25 c 0,31,32
 295 25 295 25 295 93 c 2,33,-1
 295 279 l 2,34,35
 295 321 295 321 260 346 c 0,36,37
 228 368 228 368 181 368 c 0,38,39
 140 368 140 368 106 349 c 0,40,41
 69 328 69 328 62 296 c 1,42,-1
 26 296 l 1,43,44
 36 343 36 343 78.5 371.5 c 128,-1,45
 121 400 121 400 183 400 c 0,46,47
 242 400 242 400 283 372 c 0,48,49
 331 340 331 340 331 285 c 2,50,-1
 331 85 l 2,12,13
EndSplineSet
EndChar
StartChar: uni0E2E
Encoding: 3630 3630 259
Width: 372
Flags: W
Fore
316 89 m 2,0,1
 316 -8 316 -8 183 -8 c 0,2,3
 48 -8 48 -8 48 89 c 2,4,-1
 48 182 l 2,5,6
 48 209 48 209 67.5 228.5 c 128,-1,7
 87 248 87 248 114 248 c 256,8,9
 141 248 141 248 160.5 228.5 c 128,-1,10
 180 209 180 209 180 182 c 256,11,12
 180 155 180 155 163 135.5 c 128,-1,13
 146 116 146 116 114 116 c 0,14,15
 97 116 97 116 84 123 c 1,16,-1
 84 93 l 2,17,18
 84 25 84 25 183 25 c 0,19,20
 280 25 280 25 280 94 c 2,21,-1
 280 297 l 1,22,23
 237 268 237 268 148 268 c 0,24,25
 37 268 37 268 37 328 c 0,26,27
 37 366 37 366 87 386 c 0,28,29
 125 401 125 401 173 401 c 0,30,31
 249 401 249 401 294 352 c 1,32,33
 310 379 310 379 311 401 c 1,34,-1
 349 401 l 1,35,36
 342 360 342 360 309 323 c 1,37,38
 316 309 316 309 316 283 c 2,39,-1
 316 89 l 2,0,1
273 324 m 1,40,41
 262 343 262 343 232.5 356.5 c 128,-1,42
 203 370 203 370 172 370 c 0,43,44
 137 370 137 370 108 360 c 0,45,46
 73 348 73 348 73 328 c 0,47,48
 73 300 73 300 150 300 c 0,49,50
 225 300 225 300 273 324 c 1,40,41
148 182 m 256,51,52
 148 196 148 196 138 206 c 128,-1,53
 128 216 128 216 114 216 c 256,54,55
 100 216 100 216 90 206 c 128,-1,56
 80 196 80 196 80 182 c 256,57,58
 80 168 80 168 90 158 c 128,-1,59
 100 148 100 148 114 148 c 256,60,61
 128 148 128 148 138 158 c 128,-1,62
 148 168 148 168 148 182 c 256,51,52
EndSplineSet
EndChar
StartChar: uni0E2F
Encoding: 3631 3631 260
Width: 391
Flags: W
Fore
333 0 m 1,0,-1
 297 0 l 1,1,-1
 297 327 l 2,2,3
 297 358 297 358 266 360 c 1,4,5
 231 262 231 262 150 262 c 0,6,7
 103 262 103 262 78.5 282.5 c 128,-1,8
 54 303 54 303 54 336 c 0,9,10
 54 362 54 362 73 381 c 128,-1,11
 92 400 92 400 118 400 c 256,12,13
 144 400 144 400 163 381 c 128,-1,14
 182 362 182 362 182 336 c 0,15,16
 182 314 182 314 168 297 c 1,17,18
 223 316 223 316 237 392 c 1,19,-1
 273 392 l 2,20,21
 333 392 333 392 333 330 c 2,22,-1
 333 0 l 1,0,-1
147 337 m 256,23,24
 147 350 147 350 138.5 358.5 c 128,-1,25
 130 367 130 367 117 367 c 256,26,27
 104 367 104 367 96 358.5 c 128,-1,28
 88 350 88 350 88 337 c 256,29,30
 88 324 88 324 96 316 c 128,-1,31
 104 308 104 308 117 308 c 256,32,33
 130 308 130 308 138.5 316 c 128,-1,34
 147 324 147 324 147 337 c 256,23,24
EndSplineSet
EndChar
StartChar: uni0E30
Encoding: 3632 3632 261
Width: 357
Flags: W
Fore
303 382 m 1,0,1
 301 314 301 314 262 270.5 c 128,-1,2
 223 227 223 227 161 227 c 0,3,4
 110 227 110 227 75 246 c 0,5,6
 31 269 31 269 31 315 c 0,7,8
 31 341 31 341 50 360 c 128,-1,9
 69 379 69 379 95 379 c 256,10,11
 121 379 121 379 140 360 c 128,-1,12
 159 341 159 341 159 315 c 0,13,14
 159 281 159 281 130 262 c 1,15,16
 146 258 146 258 155 258 c 0,17,18
 209 260 209 260 237 293.5 c 128,-1,19
 265 327 265 327 267 382 c 1,20,-1
 303 382 l 1,0,1
125 315 m 256,21,22
 125 329 125 329 116 338 c 128,-1,23
 107 347 107 347 93 347 c 256,24,25
 79 347 79 347 70.5 338 c 128,-1,26
 62 329 62 329 62 315 c 256,27,28
 62 301 62 301 70.5 292.5 c 128,-1,29
 79 284 79 284 93 284 c 256,30,31
 107 284 107 284 116 292.5 c 128,-1,32
 125 301 125 301 125 315 c 256,21,22
303 170 m 1,33,34
 301 102 301 102 262 58.5 c 128,-1,35
 223 15 223 15 161 15 c 0,36,37
 110 15 110 15 75 34 c 0,38,39
 31 57 31 57 31 103 c 0,40,41
 31 129 31 129 50 148 c 128,-1,42
 69 167 69 167 95 167 c 256,43,44
 121 167 121 167 140 148 c 128,-1,45
 159 129 159 129 159 103 c 0,46,47
 159 69 159 69 130 50 c 1,48,49
 146 46 146 46 155 46 c 0,50,51
 209 48 209 48 237 81.5 c 128,-1,52
 265 115 265 115 267 170 c 1,53,-1
 303 170 l 1,33,34
125 103 m 256,54,55
 125 117 125 117 116 126 c 128,-1,56
 107 135 107 135 93 135 c 256,57,58
 79 135 79 135 70.5 126 c 128,-1,59
 62 117 62 117 62 103 c 256,60,61
 62 89 62 89 70.5 80.5 c 128,-1,62
 79 72 79 72 93 72 c 256,63,64
 107 72 107 72 116 80.5 c 128,-1,65
 125 89 125 89 125 103 c 256,54,55
EndSplineSet
EndChar
StartChar: uni0E31
Encoding: 3633 3633 262
Width: 0
Flags: W
Fore
49 619 m 1,0,1
 48 551 48 551 4 507.5 c 128,-1,2
 -40 464 -40 464 -107 464 c 0,3,4
 -165 464 -165 464 -200 488 c 128,-1,5
 -235 512 -235 512 -235 551 c 0,6,7
 -235 577 -235 577 -216 596 c 128,-1,8
 -197 615 -197 615 -171 615 c 256,9,10
 -145 615 -145 615 -126 596.5 c 128,-1,11
 -107 578 -107 578 -107 552 c 0,12,13
 -107 518 -107 518 -137 498 c 1,14,15
 -123 495 -123 495 -100 495 c 0,16,17
 -51 496 -51 496 -19 534 c 0,18,19
 9 569 9 569 11 619 c 1,20,-1
 49 619 l 1,0,1
-139 553 m 256,21,22
 -139 567 -139 567 -148.5 576.5 c 128,-1,23
 -158 586 -158 586 -171 586 c 256,24,25
 -184 586 -184 586 -194 576.5 c 128,-1,26
 -204 567 -204 567 -204 553 c 256,27,28
 -204 539 -204 539 -194 530 c 128,-1,29
 -184 521 -184 521 -171 521 c 256,30,31
 -158 521 -158 521 -148.5 530 c 128,-1,32
 -139 539 -139 539 -139 553 c 256,21,22
EndSplineSet
Substitution: 0 65534 'L055' uni0E31.alt1
Substitution: 0 65534 'L055' uni0E31.alt1
EndChar
StartChar: uni0E32
Encoding: 3634 3634 263
Width: 316
Flags: W
Fore
260 0 m 1,0,-1
 224 0 l 1,1,-1
 224 299 l 2,2,3
 224 329 224 329 201.5 348.5 c 128,-1,4
 179 368 179 368 140 368 c 0,5,6
 105 368 105 368 84 344.5 c 128,-1,7
 63 321 63 321 61 294 c 1,8,-1
 24 294 l 1,9,10
 25 336 25 336 57.5 368 c 128,-1,11
 90 400 90 400 141 400 c 0,12,13
 199 400 199 400 229.5 372 c 128,-1,14
 260 344 260 344 260 298 c 2,15,-1
 260 0 l 1,0,-1
EndSplineSet
EndChar
StartChar: uni0E33
Encoding: 3635 3635 264
Width: 316
Flags: W
Fore
260 0 m 1,0,-1
 224 0 l 1,1,-1
 224 299 l 2,2,3
 224 329 224 329 201.5 348.5 c 128,-1,4
 179 368 179 368 140 368 c 0,5,6
 105 368 105 368 84 344.5 c 128,-1,7
 63 321 63 321 61 294 c 1,8,-1
 24 294 l 1,9,10
 25 336 25 336 57.5 368 c 128,-1,11
 90 400 90 400 141 400 c 0,12,13
 199 400 199 400 229.5 372 c 128,-1,14
 260 344 260 344 260 298 c 2,15,-1
 260 0 l 1,0,-1
-9 538 m 256,16,17
 -9 506 -9 506 -31 484 c 128,-1,18
 -53 462 -53 462 -85 462 c 256,19,20
 -117 462 -117 462 -139.5 484 c 128,-1,21
 -162 506 -162 506 -162 538 c 256,22,23
 -162 570 -162 570 -139.5 592.5 c 128,-1,24
 -117 615 -117 615 -85 615 c 256,25,26
 -53 615 -53 615 -31 592.5 c 128,-1,27
 -9 570 -9 570 -9 538 c 256,16,17
-42 538 m 256,28,29
 -42 556 -42 556 -55 569 c 128,-1,30
 -68 582 -68 582 -85 582 c 0,31,32
 -103 582 -103 582 -116 569 c 128,-1,33
 -129 556 -129 556 -129 538 c 256,34,35
 -129 520 -129 520 -116 507.5 c 128,-1,36
 -103 495 -103 495 -85 495 c 0,37,38
 -68 495 -68 495 -55 507.5 c 128,-1,39
 -42 520 -42 520 -42 538 c 256,28,29
EndSplineSet
Substitution: 0 65534 'L055' uni0E33.alt1
Substitution: 0 65534 'L055' uni0E33.alt1
EndChar
StartChar: uni0E34
Encoding: 3636 3636 265
Width: 0
Flags: W
Fore
-50 455 m 1,0,1
 -165 496 -165 496 -266 496 c 0,2,3
 -302 496 -302 496 -345 490 c 1,4,5
 -344 542 -344 542 -302 574 c 0,6,7
 -264 603 -264 603 -211 603 c 0,8,9
 -76 603 -76 603 -50 455 c 1,0,1
-89 493 m 1,10,11
 -133 574 -133 574 -210 574 c 0,12,13
 -280 574 -280 574 -304 521 c 1,14,15
 -283 524 -283 524 -257 524 c 0,16,17
 -161 524 -161 524 -89 493 c 1,10,11
EndSplineSet
Substitution: 0 65534 'L055' uni0E34.alt1
Substitution: 0 65534 'L055' uni0E34.alt1
EndChar
StartChar: uni0E35
Encoding: 3637 3637 266
Width: 0
Flags: W
Fore
-50 455 m 1,0,1
 -165 496 -165 496 -266 496 c 0,2,3
 -302 496 -302 496 -345 490 c 1,4,5
 -344 542 -344 542 -302 574 c 0,6,7
 -264 603 -264 603 -211 603 c 0,8,9
 -131 603 -131 603 -89 550 c 1,10,-1
 -89 647 l 1,11,-1
 -56 647 l 1,12,-1
 -56 482 l 1,13,14
 -52 469 -52 469 -50 455 c 1,0,1
-89 493 m 1,15,16
 -133 574 -133 574 -210 574 c 0,17,18
 -280 574 -280 574 -304 521 c 1,19,20
 -283 524 -283 524 -257 524 c 0,21,22
 -161 524 -161 524 -89 493 c 1,15,16
EndSplineSet
Substitution: 0 65534 'L055' uni0E35.alt1
Substitution: 0 65534 'L055' uni0E35.alt1
EndChar
StartChar: uni0E36
Encoding: 3638 3638 267
Width: 0
Flags: W
Fore
-50 455 m 1,0,1
 -165 496 -165 496 -266 496 c 0,2,3
 -302 496 -302 496 -345 490 c 1,4,5
 -344 542 -344 542 -302 574 c 0,6,7
 -264 603 -264 603 -211 603 c 0,8,9
 -157 603 -157 603 -118 577 c 1,10,11
 -121 585 -121 585 -121 593 c 0,12,13
 -121 613 -121 613 -106.5 627.5 c 128,-1,14
 -92 642 -92 642 -72 642 c 256,15,16
 -52 642 -52 642 -37.5 627.5 c 128,-1,17
 -23 613 -23 613 -23 593 c 256,18,19
 -23 573 -23 573 -37.5 558.5 c 128,-1,20
 -52 544 -52 544 -72 544 c 0,21,22
 -77 544 -77 544 -85 546 c 1,23,24
 -60 511 -60 511 -50 455 c 1,0,1
-89 493 m 1,25,26
 -133 574 -133 574 -210 574 c 0,27,28
 -280 574 -280 574 -304 521 c 1,29,30
 -283 524 -283 524 -257 524 c 0,31,32
 -161 524 -161 524 -89 493 c 1,25,26
-46 593 m 256,33,34
 -46 604 -46 604 -53.5 611.5 c 128,-1,35
 -61 619 -61 619 -72 619 c 256,36,37
 -83 619 -83 619 -90.5 611.5 c 128,-1,38
 -98 604 -98 604 -98 593 c 256,39,40
 -98 582 -98 582 -90.5 574.5 c 128,-1,41
 -83 567 -83 567 -72 567 c 256,42,43
 -61 567 -61 567 -53.5 574.5 c 128,-1,44
 -46 582 -46 582 -46 593 c 256,33,34
EndSplineSet
Substitution: 0 65534 'L055' uni0E36.alt1
Substitution: 0 65534 'L055' uni0E36.alt1
EndChar
StartChar: uni0E37
Encoding: 3639 3639 268
Width: 0
Flags: W
Fore
-50 455 m 1,0,1
 -165 496 -165 496 -266 496 c 0,2,3
 -302 496 -302 496 -345 490 c 1,4,5
 -344 542 -344 542 -302 574 c 0,6,7
 -264 603 -264 603 -211 603 c 0,8,9
 -188 603 -188 603 -169 599 c 1,10,-1
 -169 647 l 1,11,-1
 -136 647 l 1,12,-1
 -136 587 l 1,13,14
 -108 574 -108 574 -89 550 c 1,15,-1
 -89 647 l 1,16,-1
 -56 647 l 1,17,-1
 -56 482 l 1,18,19
 -52 469 -52 469 -50 455 c 1,0,1
-89 493 m 1,20,21
 -133 574 -133 574 -210 574 c 0,22,23
 -280 574 -280 574 -304 521 c 1,24,25
 -283 524 -283 524 -257 524 c 0,26,27
 -161 524 -161 524 -89 493 c 1,20,21
EndSplineSet
Substitution: 0 65534 'L055' uni0E37.alt1
Substitution: 0 65534 'L055' uni0E37.alt1
EndChar
StartChar: uni0E38
Encoding: 3640 3640 269
Width: 0
Flags: W
Fore
-56 -232 m 1,0,-1
 -91 -232 l 1,1,-1
 -91 -151 l 1,2,3
 -99 -154 -99 -154 -109 -154 c 0,4,5
 -131 -154 -131 -154 -146.5 -138.5 c 128,-1,6
 -162 -123 -162 -123 -162 -101 c 256,7,8
 -162 -79 -162 -79 -146.5 -63.5 c 128,-1,9
 -131 -48 -131 -48 -109 -48 c 256,10,11
 -87 -48 -87 -48 -71.5 -63.5 c 128,-1,12
 -56 -79 -56 -79 -56 -101 c 2,13,-1
 -56 -232 l 1,0,-1
-83 -100 m 256,14,15
 -83 -89 -83 -89 -90.5 -81.5 c 128,-1,16
 -98 -74 -98 -74 -109 -74 c 256,17,18
 -120 -74 -120 -74 -127.5 -81.5 c 128,-1,19
 -135 -89 -135 -89 -135 -100 c 256,20,21
 -135 -111 -135 -111 -127.5 -118.5 c 128,-1,22
 -120 -126 -120 -126 -109 -126 c 256,23,24
 -98 -126 -98 -126 -90.5 -118.5 c 128,-1,25
 -83 -111 -83 -111 -83 -100 c 256,14,15
EndSplineSet
Substitution: 0 65534 'L056' a
Substitution: 0 65534 'L055' uni0E38.alt1
Substitution: 0 65534 'L056' a
Substitution: 0 65534 'L055' uni0E38.alt1
EndChar
StartChar: uni0E39
Encoding: 3641 3641 270
Width: 0
Flags: W
Fore
-56 -183 m 2,0,1
 -56 -245 -56 -245 -128 -245 c 0,2,3
 -196 -245 -196 -245 -196 -185 c 2,4,-1
 -196 -151 l 1,5,6
 -204 -154 -204 -154 -214 -154 c 0,7,8
 -236 -154 -236 -154 -251.5 -138.5 c 128,-1,9
 -267 -123 -267 -123 -267 -101 c 256,10,11
 -267 -79 -267 -79 -251.5 -63.5 c 128,-1,12
 -236 -48 -236 -48 -214 -48 c 256,13,14
 -192 -48 -192 -48 -176.5 -63.5 c 128,-1,15
 -161 -79 -161 -79 -161 -101 c 2,16,-1
 -161 -191 l 2,17,18
 -161 -214 -161 -214 -126 -214 c 0,19,20
 -92 -214 -92 -214 -92 -191 c 2,21,-1
 -92 -52 l 1,22,-1
 -56 -52 l 1,23,-1
 -56 -183 l 2,0,1
-188 -100 m 256,24,25
 -188 -89 -188 -89 -195.5 -81.5 c 128,-1,26
 -203 -74 -203 -74 -214 -74 c 256,27,28
 -225 -74 -225 -74 -232.5 -81.5 c 128,-1,29
 -240 -89 -240 -89 -240 -100 c 256,30,31
 -240 -111 -240 -111 -232.5 -118.5 c 128,-1,32
 -225 -126 -225 -126 -214 -126 c 256,33,34
 -203 -126 -203 -126 -195.5 -118.5 c 128,-1,35
 -188 -111 -188 -111 -188 -100 c 256,24,25
EndSplineSet
Substitution: 0 65534 'L056' b
Substitution: 0 65534 'L055' uni0E39.alt1
Substitution: 0 65534 'L056' b
Substitution: 0 65534 'L055' uni0E39.alt1
EndChar
StartChar: uni0E3A
Encoding: 3642 3642 271
Width: 0
Flags: W
Fore
-48 -69 m 256,0,1
 -48 -80 -48 -80 -55.5 -88 c 128,-1,2
 -63 -96 -63 -96 -74 -96 c 256,3,4
 -85 -96 -85 -96 -93 -88 c 128,-1,5
 -101 -80 -101 -80 -101 -69 c 256,6,7
 -101 -58 -101 -58 -93 -50.5 c 128,-1,8
 -85 -43 -85 -43 -74 -43 c 256,9,10
 -63 -43 -63 -43 -55.5 -50.5 c 128,-1,11
 -48 -58 -48 -58 -48 -69 c 256,0,1
EndSplineSet
Substitution: 0 65534 'L056' c
Substitution: 0 65534 'L055' uni0E3A.alt1
Substitution: 0 65534 'L056' c
Substitution: 0 65534 'L055' uni0E3A.alt1
EndChar
StartChar: uni0E3F
Encoding: 3647 3647 272
Width: 411
Flags: W
Fore
335 146 m 0,0,1
 335 41 335 41 206 25 c 1,2,-1
 206 -59 l 1,3,-1
 173 -59 l 1,4,-1
 173 22 l 1,5,-1
 157 22 l 2,6,7
 120 22 120 22 75 31 c 1,8,-1
 75 441 l 1,9,10
 131 454 131 454 166 454 c 2,11,-1
 173 454 l 1,12,-1
 173 523 l 1,13,-1
 206 523 l 1,14,-1
 206 452 l 1,15,16
 318 437 318 437 318 346 c 0,17,18
 318 279 318 279 254 251 c 1,19,20
 285 240 285 240 308 215 c 0,21,22
 335 185 335 185 335 146 c 0,0,1
299 145 m 0,23,24
 299 190 299 190 261 214 c 0,25,26
 227 234 227 234 172 234 c 2,27,-1
 113 234 l 1,28,-1
 113 59 l 1,29,30
 132 54 132 54 165 54 c 0,31,32
 219 54 219 54 255 74 c 0,33,34
 299 98 299 98 299 145 c 0,23,24
281 345 m 0,35,36
 281 386 281 386 243 406 c 0,37,38
 212 422 212 422 166 422 c 0,39,40
 146 422 146 422 113 415 c 1,41,-1
 113 267 l 1,42,-1
 183 267 l 2,43,44
 229 267 229 267 255 289.5 c 128,-1,45
 281 312 281 312 281 345 c 0,35,36
EndSplineSet
EndChar
StartChar: uni0E40
Encoding: 3648 3648 273
Width: 203
Flags: W
Fore
188 62 m 256,0,1
 188 34 188 34 168.5 14 c 128,-1,2
 149 -6 149 -6 121 -6 c 0,3,4
 90 -6 90 -6 70 16 c 0,5,6
 53 35 53 35 53 62 c 2,7,-1
 53 400 l 1,8,-1
 89 400 l 1,9,-1
 89 121 l 1,10,11
 103 129 103 129 121 129 c 0,12,13
 149 129 149 129 168.5 109.5 c 128,-1,14
 188 90 188 90 188 62 c 256,0,1
155 62 m 256,15,16
 155 76 155 76 145 86 c 128,-1,17
 135 96 135 96 121 96 c 256,18,19
 107 96 107 96 97 86 c 128,-1,20
 87 76 87 76 87 62 c 256,21,22
 87 48 87 48 97 38 c 128,-1,23
 107 28 107 28 121 28 c 256,24,25
 135 28 135 28 145 38 c 128,-1,26
 155 48 155 48 155 62 c 256,15,16
EndSplineSet
KernsSLIFO: 252 -20 0 0 248 -25 0 0 230 -30 0 0 224 -30 0 0 223 -30 0 0 221 -20 0 0 216 -30 0 0 215 -30 0 0
EndChar
StartChar: uni0E41
Encoding: 3649 3649 274
Width: 377
Flags: W
Fore
188 62 m 256,0,1
 188 34 188 34 168.5 14 c 128,-1,2
 149 -6 149 -6 121 -6 c 0,3,4
 90 -6 90 -6 70 16 c 0,5,6
 53 35 53 35 53 62 c 2,7,-1
 53 400 l 1,8,-1
 89 400 l 1,9,-1
 89 121 l 1,10,11
 103 129 103 129 121 129 c 0,12,13
 149 129 149 129 168.5 109.5 c 128,-1,14
 188 90 188 90 188 62 c 256,0,1
155 62 m 256,15,16
 155 76 155 76 145 86 c 128,-1,17
 135 96 135 96 121 96 c 256,18,19
 107 96 107 96 97 86 c 128,-1,20
 87 76 87 76 87 62 c 256,21,22
 87 48 87 48 97 38 c 128,-1,23
 107 28 107 28 121 28 c 256,24,25
 135 28 135 28 145 38 c 128,-1,26
 155 48 155 48 155 62 c 256,15,16
361 62 m 256,27,28
 361 34 361 34 341.5 14 c 128,-1,29
 322 -6 322 -6 294 -6 c 0,30,31
 263 -6 263 -6 243 16 c 0,32,33
 226 35 226 35 226 62 c 2,34,-1
 226 400 l 1,35,-1
 262 400 l 1,36,-1
 262 121 l 1,37,38
 276 129 276 129 294 129 c 0,39,40
 322 129 322 129 341.5 109.5 c 128,-1,41
 361 90 361 90 361 62 c 256,27,28
328 62 m 256,42,43
 328 76 328 76 318 86 c 128,-1,44
 308 96 308 96 294 96 c 256,45,46
 280 96 280 96 270 86 c 128,-1,47
 260 76 260 76 260 62 c 256,48,49
 260 48 260 48 270 38 c 128,-1,50
 280 28 280 28 294 28 c 256,51,52
 308 28 308 28 318 38 c 128,-1,53
 328 48 328 48 328 62 c 256,42,43
EndSplineSet
KernsSLIFO: 252 -20 0 0 248 -25 0 0 230 -20 0 0 224 -30 0 0 223 -30 0 0 221 -20 0 0 216 -30 0 0 215 -30 0 0
EndChar
StartChar: uni0E42
Encoding: 3650 3650 275
Width: 237
Flags: W
Fore
189 60 m 256,0,1
 189 74 189 74 178.5 84 c 128,-1,2
 168 94 168 94 154 94 c 0,3,4
 141 94 141 94 131 84 c 128,-1,5
 121 74 121 74 121 60 c 256,6,7
 121 46 121 46 130.5 36 c 128,-1,8
 140 26 140 26 154 26 c 256,9,10
 168 26 168 26 178.5 36 c 128,-1,11
 189 46 189 46 189 60 c 256,0,1
222 60 m 256,12,13
 222 32 222 32 202 12 c 128,-1,14
 182 -8 182 -8 154 -8 c 0,15,16
 122 -8 122 -8 103 14 c 0,17,18
 86 33 86 33 86 60 c 2,19,-1
 86 476 l 2,20,21
 86 504 86 504 43 530 c 128,-1,22
 0 556 0 556 -39 557 c 1,23,24
 -34 651 -34 651 53 651 c 0,25,26
 69 651 69 651 105 635.5 c 128,-1,27
 141 620 141 620 153 620 c 0,28,29
 171 620 171 620 175 645 c 1,30,-1
 205 637 l 1,31,32
 191 587 191 587 158 587 c 0,33,34
 142 587 142 587 104.5 603.5 c 128,-1,35
 67 620 67 620 50 620 c 0,36,37
 6 620 6 620 3 583 c 1,38,39
 122 548 122 548 122 472 c 2,40,-1
 122 119 l 1,41,42
 136 127 136 127 154 127 c 0,43,44
 182 127 182 127 202 107.5 c 128,-1,45
 222 88 222 88 222 60 c 256,12,13
EndSplineSet
KernsSLIFO: 252 -20 0 0 248 -25 0 0 230 -30 0 0 224 -30 0 0 223 -30 0 0 221 -20 0 0 216 -30 0 0 215 -30 0 0
EndChar
StartChar: uni0E43
Encoding: 3651 3651 276
Width: 242
Flags: W
Fore
227 60 m 256,0,1
 227 32 227 32 207 12 c 128,-1,2
 187 -8 187 -8 160 -8 c 0,3,4
 128 -8 128 -8 108 14 c 0,5,6
 91 33 91 33 91 60 c 2,7,-1
 91 469 l 2,8,9
 91 486 91 486 100 508 c 0,10,11
 121 559 121 559 121 571 c 0,12,13
 121 596 121 596 104 612 c 128,-1,14
 87 628 87 628 62 628 c 0,15,16
 25 628 25 628 5 605 c 1,17,18
 32 609 32 609 50 593 c 128,-1,19
 68 577 68 577 68 551 c 0,20,21
 68 528 68 528 52 512 c 128,-1,22
 36 496 36 496 14 496 c 256,23,24
 -8 496 -8 496 -25 512 c 128,-1,25
 -42 528 -42 528 -42 560 c 0,26,27
 -42 601 -42 601 -13 629 c 128,-1,28
 16 657 16 657 65 657 c 0,29,30
 101 657 101 657 129.5 634.5 c 128,-1,31
 158 612 158 612 158 577 c 0,32,33
 158 556 158 556 142.5 519 c 128,-1,34
 127 482 127 482 127 462 c 2,35,-1
 127 119 l 1,36,37
 141 127 141 127 160 127 c 0,38,39
 187 127 187 127 207 107.5 c 128,-1,40
 227 88 227 88 227 60 c 256,0,1
194 60 m 256,41,42
 194 74 194 74 183.5 84 c 128,-1,43
 173 94 173 94 159 94 c 0,44,45
 146 94 146 94 136 84 c 128,-1,46
 126 74 126 74 126 60 c 256,47,48
 126 46 126 46 135.5 36 c 128,-1,49
 145 26 145 26 159 26 c 256,50,51
 173 26 173 26 183.5 36 c 128,-1,52
 194 46 194 46 194 60 c 256,41,42
41 551 m 256,53,54
 41 562 41 562 33.5 570.5 c 128,-1,55
 26 579 26 579 13 579 c 256,56,57
 0 579 0 579 -7.5 570.5 c 128,-1,58
 -15 562 -15 562 -15 551 c 256,59,60
 -15 540 -15 540 -7.5 531.5 c 128,-1,61
 0 523 0 523 13 523 c 256,62,63
 26 523 26 523 33.5 531.5 c 128,-1,64
 41 540 41 540 41 551 c 256,53,54
EndSplineSet
KernsSLIFO: 252 -20 0 0 248 -25 0 0 230 -30 0 0 224 -30 0 0 223 -30 0 0 221 -20 0 0 216 -30 0 0 215 -30 0 0
EndChar
StartChar: uni0E44
Encoding: 3652 3652 277
Width: 244
Flags: W
Fore
229 60 m 256,0,1
 229 32 229 32 209 12 c 128,-1,2
 189 -8 189 -8 162 -8 c 0,3,4
 130 -8 130 -8 110 14 c 0,5,6
 93 33 93 33 93 60 c 2,7,-1
 93 601 l 1,8,-1
 21 497 l 1,9,-1
 -12 509 l 1,10,11
 -17 576 -17 576 -35 665 c 1,12,-1
 -4 665 l 1,13,14
 12 578 12 578 15 534 c 1,15,-1
 97 655 l 1,16,17
 110 654 110 654 119.5 643 c 128,-1,18
 129 632 129 632 129 620 c 2,19,-1
 129 119 l 1,20,21
 143 127 143 127 162 127 c 0,22,23
 189 127 189 127 209 107.5 c 128,-1,24
 229 88 229 88 229 60 c 256,0,1
195 60 m 256,25,26
 195 74 195 74 185 84 c 128,-1,27
 175 94 175 94 161 94 c 256,28,29
 147 94 147 94 137 84 c 128,-1,30
 127 74 127 74 127 60 c 256,31,32
 127 46 127 46 137 36 c 128,-1,33
 147 26 147 26 161 26 c 256,34,35
 175 26 175 26 185 36 c 128,-1,36
 195 46 195 46 195 60 c 256,25,26
EndSplineSet
KernsSLIFO: 252 -20 0 0 248 -25 0 0 230 -30 0 0 224 -30 0 0 223 -30 0 0 221 -20 0 0 216 -30 0 0 215 -30 0 0
EndChar
StartChar: uni0E45
Encoding: 3653 3653 278
Width: 205
Flags: W
Fore
149 -200 m 1,0,-1
 113 -200 l 1,1,-1
 113 299 l 2,2,3
 113 329 113 329 90.5 348.5 c 128,-1,4
 68 368 68 368 29 368 c 0,5,6
 -6 368 -6 368 -27 344.5 c 128,-1,7
 -48 321 -48 321 -50 294 c 1,8,-1
 -87 294 l 1,9,10
 -86 336 -86 336 -53.5 368 c 128,-1,11
 -21 400 -21 400 30 400 c 0,12,13
 88 400 88 400 118.5 372 c 128,-1,14
 149 344 149 344 149 298 c 2,15,-1
 149 -200 l 1,0,-1
EndSplineSet
EndChar
StartChar: uni0E46
Encoding: 3654 3654 279
Width: 399
Flags: W
Fore
334 -170 m 1,0,-1
 297 -170 l 1,1,-1
 297 300 l 2,2,3
 297 351 297 351 251 379 c 1,4,-1
 204 343 l 1,5,-1
 149 380 l 1,6,7
 107 362 107 362 101 318 c 1,8,9
 116 328 116 328 132 328 c 0,10,11
 158 328 158 328 176 310 c 128,-1,12
 194 292 194 292 194 266 c 256,13,14
 194 240 194 240 176 222.5 c 128,-1,15
 158 205 158 205 132 205 c 0,16,17
 101 205 101 205 81.5 228 c 128,-1,18
 62 251 62 251 61 282 c 0,19,20
 58 384 58 384 153 413 c 1,21,-1
 202 380 l 1,22,-1
 248 413 l 1,23,24
 334 380 334 380 334 300 c 2,25,-1
 334 -170 l 1,0,-1
162 266 m 256,26,27
 162 279 162 279 153.5 287.5 c 128,-1,28
 145 296 145 296 132 296 c 256,29,30
 119 296 119 296 111 287.5 c 128,-1,31
 103 279 103 279 103 266 c 256,32,33
 103 253 103 253 111 245 c 128,-1,34
 119 237 119 237 132 237 c 256,35,36
 145 237 145 237 153.5 245 c 128,-1,37
 162 253 162 253 162 266 c 256,26,27
EndSplineSet
EndChar
StartChar: uni0E47
Encoding: 3655 3655 280
Width: 0
Flags: W
Fore
-54 511 m 0,0,1
 -54 489 -54 489 -69.5 475 c 128,-1,2
 -85 461 -85 461 -105 461 c 0,3,4
 -147 461 -147 461 -201 504 c 1,5,6
 -228 495 -228 495 -252 460 c 1,7,8
 -292 485 -292 485 -292 538 c 0,9,10
 -292 616 -292 616 -207 616 c 2,11,-1
 -141 616 l 2,12,13
 -92 616 -92 616 -89 688 c 1,14,-1
 -55 688 l 1,15,16
 -55 645 -55 645 -77 616 c 128,-1,17
 -99 587 -99 587 -142 587 c 2,18,-1
 -211 587 l 2,19,20
 -259 587 -259 587 -259 541 c 0,21,22
 -259 519 -259 519 -248 502 c 1,23,24
 -223 530 -223 530 -197 534 c 1,25,26
 -180 519 -180 519 -148 498 c 1,27,28
 -149 506 -149 506 -149 511 c 0,29,30
 -149 531 -149 531 -135.5 544.5 c 128,-1,31
 -122 558 -122 558 -102 558 c 256,32,33
 -82 558 -82 558 -68 544 c 128,-1,34
 -54 530 -54 530 -54 511 c 0,0,1
-80 511 m 256,35,36
 -80 520 -80 520 -86.5 526.5 c 128,-1,37
 -93 533 -93 533 -102 533 c 256,38,39
 -111 533 -111 533 -117.5 526.5 c 128,-1,40
 -124 520 -124 520 -124 511 c 256,41,42
 -124 502 -124 502 -117.5 495.5 c 128,-1,43
 -111 489 -111 489 -102 489 c 256,44,45
 -93 489 -93 489 -86.5 495.5 c 128,-1,46
 -80 502 -80 502 -80 511 c 256,35,36
EndSplineSet
Substitution: 0 65534 'L055' uni0E47.alt1
Substitution: 0 65534 'L055' uni0E47.alt1
EndChar
StartChar: uni0E48
Encoding: 3656 3656 281
Width: 0
Flags: W
Fore
-56 680 m 1,0,-1
 -89 680 l 1,1,-1
 -89 791 l 1,2,-1
 -56 791 l 1,3,-1
 -56 680 l 1,0,-1
EndSplineSet
Substitution: 0 65534 'L055' uni0E48.alt2
Substitution: 0 65534 'L055' uni0E48.alt2
EndChar
StartChar: uni0E49
Encoding: 3657 3657 282
Width: 0
Flags: W
Fore
42 826 m 1,0,1
 28 740 28 740 -32 705 c 0,2,3
 -80 677 -80 677 -165 677 c 2,4,-1
 -183 677 l 1,5,-1
 -183 696 l 1,6,7
 -150 710 -150 710 -136 735 c 1,8,9
 -156 735 -156 735 -171 749.5 c 128,-1,10
 -186 764 -186 764 -186 785 c 256,11,12
 -186 806 -186 806 -171 821 c 128,-1,13
 -156 836 -156 836 -135 836 c 0,14,15
 -115 836 -115 836 -101 822 c 128,-1,16
 -87 808 -87 808 -85 785 c 0,17,18
 -85 735 -85 735 -130 703 c 1,19,20
 -11 713 -11 713 5 826 c 1,21,-1
 42 826 l 1,0,1
-113 785 m 256,22,23
 -113 795 -113 795 -119.5 802 c 128,-1,24
 -126 809 -126 809 -136 809 c 256,25,26
 -146 809 -146 809 -153 802 c 128,-1,27
 -160 795 -160 795 -160 785 c 256,28,29
 -160 775 -160 775 -153 768.5 c 128,-1,30
 -146 762 -146 762 -136 762 c 256,31,32
 -126 762 -126 762 -119.5 768.5 c 128,-1,33
 -113 775 -113 775 -113 785 c 256,22,23
EndSplineSet
Substitution: 0 65534 'L055' uni0E49.alt2
Substitution: 0 65534 'L055' uni0E49.alt2
EndChar
StartChar: uni0E4A
Encoding: 3658 3658 283
Width: 0
Flags: W
Fore
-223 725 m 256,0,1
 -223 735 -223 735 -229.5 742 c 128,-1,2
 -236 749 -236 749 -246 749 c 256,3,4
 -256 749 -256 749 -263 742 c 128,-1,5
 -270 735 -270 735 -270 725 c 256,6,7
 -270 715 -270 715 -263 708.5 c 128,-1,8
 -256 702 -256 702 -246 702 c 256,9,10
 -236 702 -236 702 -229.5 708.5 c 128,-1,11
 -223 715 -223 715 -223 725 c 256,0,1
-33 824 m 1,12,13
 -36 675 -36 675 -177 675 c 1,14,-1
 -177 697 l 1,15,16
 -137 717 -137 717 -137 761 c 0,17,18
 -137 795 -137 795 -170 805 c 1,19,-1
 -198 774 l 1,20,-1
 -226 805 l 1,21,22
 -236 804 -236 804 -250 794 c 0,23,24
 -261 786 -261 786 -265 773 c 1,25,26
 -260 775 -260 775 -255.5 776 c 128,-1,27
 -251 777 -251 777 -246 777 c 0,28,29
 -225 777 -225 777 -210.5 762 c 128,-1,30
 -196 747 -196 747 -196 726 c 256,31,32
 -196 705 -196 705 -210.5 690.5 c 128,-1,33
 -225 676 -225 676 -246 676 c 0,34,35
 -272 676 -272 676 -286 693 c 128,-1,36
 -300 710 -300 710 -300 739 c 0,37,38
 -300 776 -300 776 -276.5 804.5 c 128,-1,39
 -253 833 -253 833 -221 833 c 1,40,-1
 -197 803 l 1,41,-1
 -175 833 l 1,42,43
 -145 832 -145 832 -127.5 812.5 c 128,-1,44
 -110 793 -110 793 -110 763 c 0,45,46
 -110 727 -110 727 -132 704 c 1,47,48
 -109 706 -109 706 -90 733 c 0,49,50
 -65 767 -65 767 -65 824 c 1,51,-1
 -33 824 l 1,12,13
EndSplineSet
Substitution: 0 65534 'L055' uni0E4A.alt2
Substitution: 0 65534 'L055' uni0E4A.alt2
EndChar
StartChar: uni0E4B
Encoding: 3659 3659 284
Width: 0
Flags: W
Fore
-4 719 m 1,0,-1
 -57 719 l 1,1,-1
 -57 680 l 1,2,-1
 -88 680 l 1,3,-1
 -88 719 l 1,4,-1
 -141 719 l 1,5,-1
 -141 747 l 1,6,-1
 -88 747 l 1,7,-1
 -88 790 l 1,8,-1
 -57 790 l 1,9,-1
 -57 747 l 1,10,-1
 -4 747 l 1,11,-1
 -4 719 l 1,0,-1
EndSplineSet
Substitution: 0 65534 'L055' uni0E4B.alt2
Substitution: 0 65534 'L055' uni0E4B.alt2
EndChar
StartChar: uni0E4C
Encoding: 3660 3660 285
Width: 0
Flags: W
Fore
-11 807 m 1,0,1
 -14 775 -14 775 -43 761 c 0,2,3
 -59 752 -59 752 -88 746 c 0,4,5
 -116 741 -116 741 -123 733 c 1,6,7
 -102 731 -102 731 -88 716.5 c 128,-1,8
 -74 702 -74 702 -74 681 c 0,9,10
 -74 659 -74 659 -89 644.5 c 128,-1,11
 -104 630 -104 630 -125 630 c 0,12,13
 -147 630 -147 630 -162.5 644.5 c 128,-1,14
 -178 659 -178 659 -178 681 c 0,15,16
 -178 747 -178 747 -110 766 c 2,17,-1
 -66 779 l 2,18,19
 -42 787 -42 787 -42 807 c 1,20,-1
 -11 807 l 1,0,1
-99 680 m 256,21,22
 -99 690 -99 690 -106.5 698 c 128,-1,23
 -114 706 -114 706 -124 706 c 0,24,25
 -135 706 -135 706 -142.5 698 c 128,-1,26
 -150 690 -150 690 -150 680 c 256,27,28
 -150 670 -150 670 -142.5 662 c 128,-1,29
 -135 654 -135 654 -124 654 c 0,30,31
 -114 654 -114 654 -106.5 662 c 128,-1,32
 -99 670 -99 670 -99 680 c 256,21,22
EndSplineSet
Substitution: 0 65534 'L055' uni0E4C.alt2
Substitution: 0 65534 'L055' uni0E4C.alt2
EndChar
StartChar: uni0E4D
Encoding: 3661 3661 286
Width: 0
Flags: W
Fore
-9 538 m 256,0,1
 -9 506 -9 506 -31 484 c 128,-1,2
 -53 462 -53 462 -85 462 c 256,3,4
 -117 462 -117 462 -139.5 484 c 128,-1,5
 -162 506 -162 506 -162 538 c 256,6,7
 -162 570 -162 570 -139.5 592.5 c 128,-1,8
 -117 615 -117 615 -85 615 c 256,9,10
 -53 615 -53 615 -31 592.5 c 128,-1,11
 -9 570 -9 570 -9 538 c 256,0,1
-42 538 m 256,12,13
 -42 556 -42 556 -55 569 c 128,-1,14
 -68 582 -68 582 -85 582 c 0,15,16
 -103 582 -103 582 -116 569 c 128,-1,17
 -129 556 -129 556 -129 538 c 256,18,19
 -129 520 -129 520 -116 507.5 c 128,-1,20
 -103 495 -103 495 -85 495 c 0,21,22
 -68 495 -68 495 -55 507.5 c 128,-1,23
 -42 520 -42 520 -42 538 c 256,12,13
EndSplineSet
Substitution: 0 65534 'L055' uni0E4D.alt1
Substitution: 0 65534 'L055' uni0E4D.alt1
EndChar
StartChar: uni0E4E
Encoding: 3662 3662 287
Width: 0
Flags: W
Fore
-31 664 m 1,0,-1
 -40 639 l 1,1,2
 -57 644 -57 644 -77 644 c 0,3,4
 -123 644 -123 644 -123 613 c 0,5,6
 -123 580 -123 580 -73 574 c 1,7,-1
 -82 551 l 1,8,9
 -94 555 -94 555 -106 555 c 0,10,11
 -134 555 -134 555 -151.5 542.5 c 128,-1,12
 -169 530 -169 530 -169 515 c 0,13,14
 -169 488 -169 488 -124 488 c 0,15,16
 -111 488 -111 488 -92 496 c 1,17,-1
 -91 471 l 1,18,19
 -110 463 -110 463 -137 463 c 0,20,21
 -162 463 -162 463 -180 477.5 c 128,-1,22
 -198 492 -198 492 -198 516 c 0,23,24
 -198 541 -198 541 -178 558 c 128,-1,25
 -158 575 -158 575 -133 575 c 1,26,27
 -153 588 -153 588 -153 613 c 0,28,29
 -153 671 -153 671 -76 671 c 0,30,31
 -49 671 -49 671 -31 664 c 1,0,-1
EndSplineSet
Substitution: 0 65534 'L055' uni0E4E.alt1
Substitution: 0 65534 'L055' uni0E4E.alt1
EndChar
StartChar: uni0E4F
Encoding: 3663 3663 288
Width: 450
Flags: W
Fore
289 163 m 0,0,1
 289 189 289 189 270.5 208 c 128,-1,2
 252 227 252 227 225 227 c 256,3,4
 198 227 198 227 179.5 208 c 128,-1,5
 161 189 161 189 161 163 c 0,6,7
 161 136 161 136 179.5 117.5 c 128,-1,8
 198 99 198 99 225 99 c 256,9,10
 252 99 252 99 270.5 117.5 c 128,-1,11
 289 136 289 136 289 163 c 0,0,1
324 163 m 256,12,13
 324 122 324 122 295 92.5 c 128,-1,14
 266 63 266 63 225 63 c 256,15,16
 184 63 184 63 155 92.5 c 128,-1,17
 126 122 126 122 126 163 c 256,18,19
 126 204 126 204 155 233 c 128,-1,20
 184 262 184 262 225 262 c 256,21,22
 266 262 266 262 295 233 c 128,-1,23
 324 204 324 204 324 163 c 256,12,13
359 163 m 256,24,25
 359 219 359 219 320 258 c 128,-1,26
 281 297 281 297 225 297 c 256,27,28
 169 297 169 297 130 258 c 128,-1,29
 91 219 91 219 91 163 c 0,30,31
 91 106 91 106 129.5 67 c 128,-1,32
 168 28 168 28 225 28 c 0,33,34
 281 28 281 28 320 67.5 c 128,-1,35
 359 107 359 107 359 163 c 256,24,25
394 163 m 0,36,37
 394 92 394 92 344.5 43 c 128,-1,38
 295 -6 295 -6 225 -6 c 0,39,40
 154 -6 154 -6 105 43 c 128,-1,41
 56 92 56 92 56 163 c 0,42,43
 56 233 56 233 105 282.5 c 128,-1,44
 154 332 154 332 225 332 c 0,45,46
 294 332 294 332 344 282 c 128,-1,47
 394 232 394 232 394 163 c 0,36,37
EndSplineSet
EndChar
StartChar: uni0E50
Encoding: 3664 3664 289
Width: 449
Flags: W
Fore
411 144 m 256,0,1
 411 80 411 80 360 36.5 c 128,-1,2
 309 -7 309 -7 224 -7 c 256,3,4
 139 -7 139 -7 88.5 36.5 c 128,-1,5
 38 80 38 80 38 144 c 256,6,7
 38 208 38 208 88.5 251.5 c 128,-1,8
 139 295 139 295 224 295 c 256,9,10
 309 295 309 295 360 251.5 c 128,-1,11
 411 208 411 208 411 144 c 256,0,1
371 144 m 256,12,13
 371 195 371 195 330.5 229.5 c 128,-1,14
 290 264 290 264 223 264 c 256,15,16
 156 264 156 264 115.5 229.5 c 128,-1,17
 75 195 75 195 75 144 c 256,18,19
 75 93 75 93 115.5 59 c 128,-1,20
 156 25 156 25 223 25 c 256,21,22
 290 25 290 25 330.5 59 c 128,-1,23
 371 93 371 93 371 144 c 256,12,13
EndSplineSet
EndChar
StartChar: uni0E51
Encoding: 3665 3665 290
Width: 449
Flags: W
Fore
413 124 m 0,0,1
 413 33 413 33 364 -19 c 1,2,-1
 320 -19 l 1,3,4
 377 28 377 28 377 117 c 0,5,6
 377 181 377 181 335 222 c 128,-1,7
 293 263 293 263 215 263 c 0,8,9
 156 263 156 263 114 227 c 128,-1,10
 72 191 72 191 72 133 c 0,11,12
 72 85 72 85 100 54.5 c 128,-1,13
 128 24 128 24 172 24 c 0,14,15
 229 24 229 24 253 76 c 1,16,17
 235 68 235 68 219 68 c 0,18,19
 190 68 190 68 171 86.5 c 128,-1,20
 152 105 152 105 152 133 c 0,21,22
 152 162 152 162 173 181 c 128,-1,23
 194 200 194 200 221 200 c 0,24,25
 255 200 255 200 274 177 c 128,-1,26
 293 154 293 154 293 121 c 0,27,28
 293 72 293 72 264 35 c 0,29,30
 230 -8 230 -8 163 -8 c 0,31,32
 105 -8 105 -8 69 36 c 0,33,34
 36 76 36 76 36 134 c 0,35,36
 36 209 36 209 88.5 251.5 c 128,-1,37
 141 294 141 294 214 294 c 0,38,39
 310 294 310 294 361.5 245.5 c 128,-1,40
 413 197 413 197 413 124 c 0,0,1
259 133 m 256,41,42
 259 150 259 150 248 161 c 128,-1,43
 237 172 237 172 220 172 c 256,44,45
 203 172 203 172 192.5 161 c 128,-1,46
 182 150 182 150 182 133 c 256,47,48
 182 116 182 116 192.5 105.5 c 128,-1,49
 203 95 203 95 220 95 c 256,50,51
 237 95 237 95 248 105.5 c 128,-1,52
 259 116 259 116 259 133 c 256,41,42
EndSplineSet
EndChar
StartChar: uni0E52
Encoding: 3666 3666 291
Width: 449
Flags: W
Fore
415 146 m 0,0,1
 415 -12 415 -12 236 -12 c 0,2,3
 42 -12 42 -12 42 139 c 2,4,-1
 42 395 l 2,5,6
 42 424 42 424 16 425 c 1,7,-1
 16 460 l 1,8,9
 77 455 77 455 77 395 c 2,10,-1
 77 134 l 2,11,12
 77 21 77 21 237 21 c 0,13,14
 380 21 380 21 380 141 c 0,15,16
 380 202 380 202 366 235 c 0,17,18
 354 262 354 262 337 262 c 0,19,20
 316 262 316 262 302.5 245 c 128,-1,21
 289 228 289 228 287 204 c 1,22,-1
 264 204 l 1,23,24
 256 263 256 263 214 263 c 0,25,26
 166 263 166 263 159 215 c 1,27,28
 166 219 166 219 184 219 c 0,29,30
 209 219 209 219 227.5 200.5 c 128,-1,31
 246 182 246 182 246 157 c 256,32,33
 246 132 246 132 227 113.5 c 128,-1,34
 208 95 208 95 184 95 c 0,35,36
 155 95 155 95 136 118 c 128,-1,37
 117 141 117 141 117 181 c 0,38,39
 117 229 117 229 141.5 261.5 c 128,-1,40
 166 294 166 294 212 294 c 0,41,42
 257 294 257 294 276 246 c 1,43,44
 292 294 292 294 334 294 c 0,45,46
 369 294 369 294 391 259 c 0,47,48
 415 220 415 220 415 146 c 0,0,1
217 157 m 0,49,50
 217 171 217 171 207.5 180.5 c 128,-1,51
 198 190 198 190 184 190 c 0,52,53
 171 190 171 190 161 180.5 c 128,-1,54
 151 171 151 171 151 157 c 0,55,56
 151 144 151 144 161 134 c 128,-1,57
 171 124 171 124 184 124 c 0,58,59
 198 124 198 124 207.5 134 c 128,-1,60
 217 144 217 144 217 157 c 0,49,50
EndSplineSet
EndChar
StartChar: uni0E53
Encoding: 3667 3667 292
Width: 449
Flags: W
Fore
415 0 m 1,0,-1
 380 0 l 1,1,-1
 380 188 l 2,2,3
 380 222 380 222 364.5 243 c 128,-1,4
 349 264 349 264 323 264 c 0,5,6
 300 264 300 264 282 239 c 128,-1,7
 264 214 264 214 264 184 c 2,8,-1
 264 0 l 1,9,-1
 227 0 l 1,10,-1
 227 185 l 2,11,12
 227 215 227 215 202 239.5 c 128,-1,13
 177 264 177 264 148 264 c 0,14,15
 111 264 111 264 89 228 c 0,16,17
 70 196 70 196 70 143 c 0,18,19
 70 126 70 126 73 109 c 1,20,21
 88 130 88 130 120 130 c 0,22,23
 147 130 147 130 166 110 c 128,-1,24
 185 90 185 90 185 63 c 256,25,26
 185 36 185 36 166 17 c 128,-1,27
 147 -2 147 -2 115 -2 c 0,28,29
 77 -2 77 -2 55.5 35.5 c 128,-1,30
 34 73 34 73 34 134 c 0,31,32
 34 294 34 294 151 294 c 0,33,34
 219 294 219 294 245 231 c 1,35,36
 268 294 268 294 323 294 c 0,37,38
 365 294 365 294 390 266.5 c 128,-1,39
 415 239 415 239 415 191 c 2,40,-1
 415 0 l 1,0,-1
154 64 m 256,41,42
 154 80 154 80 143 91 c 128,-1,43
 132 102 132 102 116 102 c 256,44,45
 100 102 100 102 89 91 c 128,-1,46
 78 80 78 80 78 64 c 256,47,48
 78 48 78 48 89 37 c 128,-1,49
 100 26 100 26 116 26 c 256,50,51
 132 26 132 26 143 37 c 128,-1,52
 154 48 154 48 154 64 c 256,41,42
EndSplineSet
EndChar
StartChar: uni0E54
Encoding: 3668 3668 293
Width: 449
Flags: W
Fore
261 146 m 0,0,1
 261 162 261 162 250.5 173 c 128,-1,2
 240 184 240 184 224 184 c 256,3,4
 208 184 208 184 197.5 172.5 c 128,-1,5
 187 161 187 161 187 146 c 0,6,7
 187 130 187 130 198 119 c 128,-1,8
 209 108 209 108 224 108 c 256,9,10
 239 108 239 108 250 119.5 c 128,-1,11
 261 131 261 131 261 146 c 0,0,1
415 -11 m 1,12,13
 361 13 361 13 326 13 c 0,14,15
 303 13 303 13 255 3 c 0,16,17
 204 -7 204 -7 166 -8 c 0,18,19
 103 -10 103 -10 66 29.5 c 128,-1,20
 29 69 29 69 29 137 c 0,21,22
 29 213 29 213 80.5 254.5 c 128,-1,23
 132 296 132 296 218 296 c 0,24,25
 314 296 314 296 347 311 c 0,26,27
 411 341 411 341 424 414 c 1,28,-1
 458 414 l 1,29,30
 435 309 435 309 357 278 c 0,31,32
 319 263 319 263 217 263 c 0,33,34
 69 263 69 263 69 134 c 0,35,36
 69 82 69 82 95 52 c 128,-1,37
 121 22 121 22 166 22 c 0,38,39
 224 22 224 22 276 37 c 1,40,41
 155 69 155 69 157 149 c 0,42,43
 158 177 158 177 177.5 194.5 c 128,-1,44
 197 212 197 212 224 212 c 0,45,46
 253 212 253 212 271.5 193.5 c 128,-1,47
 290 175 290 175 290 146 c 0,48,49
 290 125 290 125 276 106 c 128,-1,50
 262 87 262 87 241 83 c 1,51,52
 267 65 267 65 317 54 c 0,53,54
 343 48 343 48 377.5 38.5 c 128,-1,55
 412 29 412 29 433 18 c 1,56,-1
 415 -11 l 1,12,13
EndSplineSet
EndChar
StartChar: uni0E55
Encoding: 3669 3669 294
Width: 449
Flags: W
Fore
280 355 m 256,0,1
 280 369 280 369 269.5 379.5 c 128,-1,2
 259 390 259 390 245 390 c 256,3,4
 231 390 231 390 221 379.5 c 128,-1,5
 211 369 211 369 211 355 c 0,6,7
 211 342 211 342 221.5 331.5 c 128,-1,8
 232 321 232 321 245 321 c 0,9,10
 259 321 259 321 269.5 331 c 128,-1,11
 280 341 280 341 280 355 c 256,0,1
261 146 m 0,12,13
 261 162 261 162 250.5 173 c 128,-1,14
 240 184 240 184 224 184 c 256,15,16
 208 184 208 184 197.5 172.5 c 128,-1,17
 187 161 187 161 187 146 c 0,18,19
 187 130 187 130 198 119 c 128,-1,20
 209 108 209 108 224 108 c 256,21,22
 239 108 239 108 250 119.5 c 128,-1,23
 261 131 261 131 261 146 c 0,12,13
415 -11 m 1,24,25
 361 13 361 13 326 13 c 0,26,27
 303 13 303 13 255 3 c 0,28,29
 204 -7 204 -7 166 -8 c 0,30,31
 103 -10 103 -10 66 29.5 c 128,-1,32
 29 69 29 69 29 137 c 0,33,34
 29 213 29 213 80.5 254.5 c 128,-1,35
 132 296 132 296 220 296 c 1,36,37
 181 313 181 313 181 355 c 0,38,39
 181 382 181 382 200 401 c 128,-1,40
 219 420 219 420 245 420 c 0,41,42
 272 420 272 420 291 401 c 128,-1,43
 310 382 310 382 310 355 c 0,44,45
 310 314 310 314 272 297 c 1,46,47
 325 301 325 301 347 311 c 0,48,49
 411 341 411 341 424 414 c 1,50,-1
 458 414 l 1,51,52
 435 309 435 309 357 278 c 0,53,54
 319 263 319 263 217 263 c 0,55,56
 69 263 69 263 69 134 c 0,57,58
 69 82 69 82 95 52 c 128,-1,59
 121 22 121 22 166 22 c 0,60,61
 224 22 224 22 276 37 c 1,62,63
 155 69 155 69 157 149 c 0,64,65
 158 177 158 177 177.5 194.5 c 128,-1,66
 197 212 197 212 224 212 c 0,67,68
 253 212 253 212 271.5 193.5 c 128,-1,69
 290 175 290 175 290 146 c 0,70,71
 290 125 290 125 276 106 c 128,-1,72
 262 87 262 87 241 83 c 1,73,74
 267 65 267 65 317 54 c 0,75,76
 343 48 343 48 377.5 38.5 c 128,-1,77
 412 29 412 29 433 18 c 1,78,-1
 415 -11 l 1,24,25
EndSplineSet
EndChar
StartChar: uni0E56
Encoding: 3670 3670 295
Width: 449
Flags: W
Fore
421 154 m 0,0,1
 422 -8 422 -8 222 -8 c 0,2,3
 149 -8 149 -8 110 17.5 c 128,-1,4
 71 43 71 43 71 85 c 0,5,6
 71 114 71 114 90.5 133 c 128,-1,7
 110 152 110 152 138 152 c 0,8,9
 167 152 167 152 186 133 c 128,-1,10
 205 114 205 114 205 85 c 0,11,12
 205 47 205 47 174 28 c 1,13,14
 204 24 204 24 231 24 c 0,15,16
 307 25 307 25 345.5 55 c 128,-1,17
 384 85 384 85 384 152 c 0,18,19
 384 202 384 202 344 232.5 c 128,-1,20
 304 263 304 263 237 263 c 0,21,22
 130 263 130 263 76 188 c 1,23,24
 70 340 70 340 18 414 c 1,25,-1
 61 414 l 1,26,27
 99 344 99 344 100 252 c 1,28,29
 153 294 153 294 229 294 c 0,30,31
 320 294 320 294 369 259 c 0,32,33
 421 221 421 221 421 154 c 0,0,1
177 85 m 256,34,35
 177 102 177 102 166 113 c 128,-1,36
 155 124 155 124 138 124 c 256,37,38
 121 124 121 124 110.5 113 c 128,-1,39
 100 102 100 102 100 85 c 256,40,41
 100 68 100 68 110.5 57.5 c 128,-1,42
 121 47 121 47 138 47 c 256,43,44
 155 47 155 47 166 57.5 c 128,-1,45
 177 68 177 68 177 85 c 256,34,35
EndSplineSet
EndChar
StartChar: uni0E57
Encoding: 3671 3671 296
Width: 449
Flags: W
Fore
147 62 m 0,0,1
 147 80 147 80 135 90.5 c 128,-1,2
 123 101 123 101 108 101 c 256,3,4
 93 101 93 101 82 89.5 c 128,-1,5
 71 78 71 78 71 62 c 0,6,7
 71 48 71 48 82.5 36.5 c 128,-1,8
 94 25 94 25 108 25 c 0,9,10
 124 25 124 25 135.5 36 c 128,-1,11
 147 47 147 47 147 62 c 0,0,1
436 414 m 1,12,13
 418 370 418 370 419 253 c 0,14,15
 419 221 419 221 419 218 c 0,16,17
 419 76 419 76 378.5 37 c 128,-1,18
 338 -2 338 -2 283 -2 c 2,19,-1
 278 -2 l 1,20,21
 316 99 316 99 316 170 c 0,22,23
 316 264 316 264 264 264 c 0,24,25
 244 264 244 264 229.5 239 c 128,-1,26
 215 214 215 214 215 184 c 2,27,-1
 215 137 l 1,28,-1
 177 137 l 1,29,-1
 177 185 l 2,30,31
 177 214 177 214 159 239 c 128,-1,32
 141 264 141 264 120 264 c 0,33,34
 93 264 93 264 76 231 c 128,-1,35
 59 198 59 198 59 145 c 0,36,37
 59 123 59 123 62 108 c 1,38,39
 77 130 77 130 108 130 c 0,40,41
 136 130 136 130 155.5 110 c 128,-1,42
 175 90 175 90 175 62 c 0,43,44
 175 35 175 35 155 16 c 128,-1,45
 135 -3 135 -3 108 -3 c 0,46,47
 68 -3 68 -3 46 32.5 c 128,-1,48
 24 68 24 68 24 131 c 0,49,50
 24 206 24 206 50.5 250 c 128,-1,51
 77 294 77 294 120 294 c 0,52,53
 175 294 175 294 196 231 c 1,54,55
 211 294 211 294 266 294 c 0,56,57
 351 294 351 294 351 170 c 0,58,59
 351 103 351 103 326 40 c 1,60,61
 386 54 386 54 386 203 c 0,62,63
 386 376 386 376 399 414 c 1,64,-1
 436 414 l 1,12,13
EndSplineSet
EndChar
StartChar: uni0E58
Encoding: 3672 3672 297
Width: 449
Flags: W
Fore
417 119 m 0,0,1
 417 -5 417 -5 318 -5 c 0,2,3
 245 -5 245 -5 178 81 c 1,4,5
 165 75 165 75 135.5 41 c 128,-1,6
 106 7 106 7 102 -9 c 1,7,8
 32 26 32 26 32 142 c 0,9,10
 32 294 32 294 213 294 c 0,11,12
 228 294 228 294 252 292 c 128,-1,13
 276 290 276 290 288 290 c 0,14,15
 331 290 331 290 351 309 c 0,16,17
 377 334 377 334 377 397 c 2,18,-1
 377 414 l 1,19,-1
 412 414 l 1,20,-1
 412 394 l 2,21,22
 412 255 412 255 293 255 c 0,23,24
 275 255 275 255 247.5 257 c 128,-1,25
 220 259 220 259 205 259 c 0,26,27
 138 259 138 259 104 228 c 128,-1,28
 70 197 70 197 70 146 c 0,29,30
 70 74 70 74 94 50 c 1,31,32
 135 106 135 106 187 125 c 1,33,34
 201 98 201 98 238 67 c 0,35,36
 283 28 283 28 315 28 c 0,37,38
 353 28 353 28 372 55 c 1,39,40
 354 52 354 52 350 52 c 0,41,42
 322 52 322 52 302.5 71.5 c 128,-1,43
 283 91 283 91 283 119 c 256,44,45
 283 147 283 147 302.5 166.5 c 128,-1,46
 322 186 322 186 350 186 c 256,47,48
 378 186 378 186 397.5 166.5 c 128,-1,49
 417 147 417 147 417 119 c 0,0,1
387 119 m 256,50,51
 387 134 387 134 376 145 c 128,-1,52
 365 156 365 156 350 156 c 256,53,54
 335 156 335 156 324 145 c 128,-1,55
 313 134 313 134 313 119 c 256,56,57
 313 104 313 104 324 93 c 128,-1,58
 335 82 335 82 350 82 c 256,59,60
 365 82 365 82 376 93 c 128,-1,61
 387 104 387 104 387 119 c 256,50,51
EndSplineSet
EndChar
StartChar: uni0E59
Encoding: 3673 3673 298
Width: 449
Flags: W
Fore
417 16 m 1,0,-1
 398 -11 l 1,1,2
 353 24 353 24 300 101 c 0,3,4
 258 161 258 161 239 210 c 0,5,6
 232 228 232 228 209 245.5 c 128,-1,7
 186 263 186 263 158 264 c 0,8,9
 123 264 123 264 92.5 228 c 128,-1,10
 62 192 62 192 62 139 c 0,11,12
 69 65 69 65 113 37 c 1,13,14
 109 48 109 48 109 62 c 0,15,16
 109 89 109 89 128 108.5 c 128,-1,17
 147 128 147 128 174 128 c 256,18,19
 201 128 201 128 220.5 108.5 c 128,-1,20
 240 89 240 89 240 62 c 256,21,22
 240 35 240 35 220.5 16 c 128,-1,23
 201 -3 201 -3 174 -3 c 0,24,25
 102 -4 102 -4 64 36.5 c 128,-1,26
 26 77 26 77 26 144 c 0,27,28
 26 210 26 210 64 252.5 c 128,-1,29
 102 295 102 295 157 295 c 0,30,31
 214 295 214 295 250 245 c 1,32,33
 254 294 254 294 289 294 c 0,34,35
 298 294 298 294 323.5 278.5 c 128,-1,36
 349 263 349 263 360 263 c 0,37,38
 392 263 392 263 392 320 c 0,39,40
 392 374 392 374 384 414 c 1,41,-1
 414 414 l 1,42,43
 422 363 422 363 422 323 c 0,44,45
 422 231 422 231 368 231 c 0,46,47
 357 231 357 231 326.5 247 c 128,-1,48
 296 263 296 263 293 263 c 0,49,50
 278 263 278 263 273 226 c 1,51,52
 280 186 280 186 315 130 c 0,53,54
 361 62 361 62 417 16 c 1,0,-1
211 62 m 256,55,56
 211 77 211 77 200 88 c 128,-1,57
 189 99 189 99 174 99 c 256,58,59
 159 99 159 99 148 88 c 128,-1,60
 137 77 137 77 137 62 c 256,61,62
 137 47 137 47 148 36 c 128,-1,63
 159 25 159 25 174 25 c 256,64,65
 189 25 189 25 200 36 c 128,-1,66
 211 47 211 47 211 62 c 256,55,56
EndSplineSet
EndChar
StartChar: uni0E5A
Encoding: 3674 3674 299
Width: 522
Flags: W
Fore
466 0 m 1,0,-1
 430 0 l 1,1,-1
 430 327 l 2,2,3
 430 358 430 358 399 360 c 1,4,5
 377 294 377 294 333 272 c 1,6,-1
 333 0 l 1,7,-1
 297 0 l 1,8,-1
 297 327 l 2,9,10
 297 358 297 358 266 360 c 1,11,12
 231 262 231 262 150 262 c 0,13,14
 103 262 103 262 78.5 282.5 c 128,-1,15
 54 303 54 303 54 336 c 0,16,17
 54 362 54 362 73 381 c 128,-1,18
 92 400 92 400 118 400 c 256,19,20
 144 400 144 400 163 381 c 128,-1,21
 182 362 182 362 182 336 c 0,22,23
 182 314 182 314 168 297 c 1,24,25
 223 316 223 316 237 392 c 1,26,-1
 273 392 l 2,27,28
 333 392 333 392 333 330 c 2,29,-1
 333 315 l 1,30,31
 360 341 360 341 370 392 c 1,32,-1
 406 392 l 2,33,34
 466 392 466 392 466 330 c 2,35,-1
 466 0 l 1,0,-1
147 337 m 256,36,37
 147 350 147 350 138.5 358.5 c 128,-1,38
 130 367 130 367 117 367 c 256,39,40
 104 367 104 367 96 358.5 c 128,-1,41
 88 350 88 350 88 337 c 256,42,43
 88 324 88 324 96 316 c 128,-1,44
 104 308 104 308 117 308 c 256,45,46
 130 308 130 308 138.5 316 c 128,-1,47
 147 324 147 324 147 337 c 256,36,37
EndSplineSet
EndChar
StartChar: uni0E5B
Encoding: 3675 3675 300
Width: 697
Flags: W
Fore
194 323 m 256,0,1
 194 320 194 320 191 320 c 2,2,-1
 188 320 l 1,3,-1
 188 326 l 1,4,-1
 191 326 l 2,5,6
 194 326 194 326 194 323 c 256,0,1
196 323 m 256,7,8
 196 327 196 327 191 327 c 2,9,-1
 186 327 l 1,10,-1
 186 313 l 1,11,-1
 188 313 l 1,12,-1
 188 319 l 1,13,-1
 191 319 l 2,14,15
 196 319 196 319 196 323 c 256,7,8
223 323 m 256,16,17
 223 320 223 320 220 320 c 2,18,-1
 217 320 l 1,19,-1
 217 326 l 1,20,-1
 220 326 l 2,21,22
 223 326 223 326 223 323 c 256,16,17
184 313 m 1,23,-1
 184 315 l 1,24,-1
 177 315 l 1,25,-1
 177 327 l 1,26,-1
 175 327 l 1,27,-1
 175 313 l 1,28,-1
 184 313 l 1,23,-1
159 318 m 1,29,-1
 157 318 l 1,30,31
 157 314 157 314 153 314 c 256,32,33
 149 314 149 314 149 320 c 256,34,35
 149 326 149 326 153 326 c 0,36,37
 156 326 156 326 157 322 c 1,38,-1
 159 322 l 1,39,40
 157 327 157 327 153 327 c 0,41,42
 147 327 147 327 147 320 c 256,43,44
 147 313 147 313 153 313 c 256,45,46
 159 313 159 313 159 318 c 1,29,-1
213 317 m 1,47,48
 210 320 210 320 205 323 c 1,49,50
 205 326 205 326 208 326 c 1,51,52
 210 324 210 324 210 323 c 1,53,-1
 212 323 l 1,54,55
 212 327 212 327 208 327 c 0,56,57
 203 327 203 327 203 323 c 1,58,59
 206 320 206 320 211 317 c 1,60,61
 211 314 211 314 208 314 c 256,62,63
 205 314 205 314 205 318 c 1,64,-1
 203 318 l 1,65,66
 203 313 203 313 208 313 c 256,67,68
 213 313 213 313 213 317 c 1,47,48
172 313 m 1,69,-1
 172 327 l 1,70,-1
 170 327 l 1,71,-1
 170 321 l 1,72,-1
 163 321 l 1,73,-1
 163 327 l 1,74,-1
 161 327 l 1,75,-1
 161 313 l 1,76,-1
 163 313 l 1,77,-1
 163 320 l 1,78,-1
 170 320 l 1,79,-1
 170 313 l 1,80,-1
 172 313 l 1,69,-1
238 313 m 1,81,-1
 233 321 l 1,82,-1
 238 327 l 1,83,-1
 235 327 l 1,84,-1
 230 320 l 1,85,-1
 230 327 l 1,86,-1
 228 327 l 1,87,-1
 228 313 l 1,88,-1
 230 313 l 1,89,-1
 230 318 l 1,90,-1
 232 320 l 1,91,-1
 235 313 l 1,92,-1
 238 313 l 1,81,-1
225 323 m 256,93,94
 225 327 225 327 220 327 c 2,95,-1
 215 327 l 1,96,-1
 215 313 l 1,97,-1
 217 313 l 1,98,-1
 217 319 l 1,99,-1
 220 319 l 2,100,101
 225 319 225 319 225 323 c 256,93,94
664 179 m 2,102,-1
 669 179 l 1,103,104
 649 168 649 168 628 168 c 0,105,106
 595 168 595 168 570 193 c 1,107,108
 564 145 564 145 542 138 c 1,109,110
 533 138 533 138 522 171 c 0,111,112
 508 213 508 213 501 220 c 1,113,114
 501 128 501 128 474 128 c 0,115,116
 468 128 468 128 457 164 c 0,117,118
 445 204 445 204 436 215 c 1,119,120
 430 117 430 117 398 117 c 0,121,122
 392 117 392 117 381 156 c 0,123,124
 367 206 367 206 360 215 c 1,125,126
 360 24 360 24 211 24 c 0,127,128
 149 24 149 24 113 67 c 128,-1,129
 77 110 77 110 77 183 c 0,130,131
 77 258 77 258 108 299 c 128,-1,132
 139 340 139 340 195 340 c 0,133,134
 240 340 240 340 266 312.5 c 128,-1,135
 292 285 292 285 292 237 c 0,136,137
 292 194 292 194 275 165 c 0,138,139
 254 129 254 129 214 129 c 0,140,141
 192 129 192 129 176 145.5 c 128,-1,142
 160 162 160 162 160 184 c 0,143,144
 160 207 160 207 175.5 223 c 128,-1,145
 191 239 191 239 214 239 c 0,146,147
 240 239 240 239 257 219 c 1,148,-1
 257 221 l 1,149,150
 259 231 259 231 259 245 c 0,151,152
 259 309 259 309 198 309 c 0,153,154
 157 309 157 309 135 274 c 128,-1,155
 113 239 113 239 113 178 c 0,156,157
 113 123 113 123 140.5 90 c 128,-1,158
 168 57 168 57 211 57 c 0,159,160
 270 57 270 57 301.5 100 c 128,-1,161
 333 143 333 143 333 222 c 0,162,163
 333 253 333 253 330 269 c 1,164,165
 386 258 386 258 405 163 c 1,166,167
 414 192 414 192 414 219 c 0,168,169
 414 238 414 238 406 267 c 1,170,171
 448 255 448 255 479 180 c 1,172,173
 484 205 484 205 484 217 c 0,174,175
 484 226 484 226 479 254 c 1,176,177
 522 242 522 242 543 170 c 1,178,179
 553 183 553 183 553 205 c 0,180,181
 553 217 553 217 550 232 c 1,182,183
 555 231 555 231 593 204 c 0,184,185
 627 179 627 179 664 179 c 2,102,-1
242 184 m 256,186,187
 242 195 242 195 233.5 203.5 c 128,-1,188
 225 212 225 212 214 212 c 256,189,190
 203 212 203 212 194.5 203.5 c 128,-1,191
 186 195 186 195 186 184 c 256,192,193
 186 173 186 173 194.5 164.5 c 128,-1,194
 203 156 203 156 214 156 c 256,195,196
 225 156 225 156 233.5 164.5 c 128,-1,197
 242 173 242 173 242 184 c 256,186,187
EndSplineSet
EndChar
StartChar: zerowidthnonjoiner
Encoding: 8204 8204 301
Width: 0
Flags: W
Fore
15 -154 m 1,0,-1
 -14 -154 l 1,1,-1
 -14 383 l 1,2,-1
 15 383 l 1,3,-1
 15 -154 l 1,0,-1
EndSplineSet
EndChar
StartChar: zerowidthjoiner
Encoding: 8205 8205 302
Width: 0
Flags: W
Fore
15 -154 m 1,0,-1
 -14 -154 l 1,1,-1
 -14 294 l 1,2,-1
 -34 274 l 1,3,-1
 -51 291 l 1,4,-1
 -14 328 l 1,5,-1
 -51 367 l 1,6,-1
 -33 383 l 1,7,-1
 0 346 l 1,8,-1
 34 383 l 1,9,-1
 52 367 l 1,10,-1
 15 328 l 1,11,-1
 52 291 l 1,12,-1
 34 274 l 1,13,-1
 15 294 l 1,14,-1
 15 -154 l 1,0,-1
EndSplineSet
EndChar
StartChar: lefttorightmark
Encoding: 8206 8206 303
Width: 0
Flags: W
Fore
15 -154 m 1,0,-1
 -14 -154 l 1,1,-1
 -14 348 l 1,2,-1
 112 348 l 1,3,-1
 95 366 l 1,4,-1
 111 382 l 1,5,-1
 163 330 l 1,6,-1
 111 278 l 1,7,-1
 95 295 l 1,8,-1
 112 313 l 1,9,-1
 15 313 l 1,10,-1
 15 -154 l 1,0,-1
EndSplineSet
EndChar
StartChar: righttoleftmark
Encoding: 8207 8207 304
Width: 0
Flags: W
Fore
15 -154 m 1,0,-1
 -14 -154 l 1,1,-1
 -14 313 l 1,2,-1
 -111 313 l 1,3,-1
 -94 295 l 1,4,-1
 -110 278 l 1,5,-1
 -162 330 l 1,6,-1
 -110 382 l 1,7,8
 -108 379 -108 379 -103 374 c 128,-1,9
 -98 369 -98 369 -94 366 c 1,10,-1
 -111 348 l 1,11,-1
 15 348 l 1,12,-1
 15 -154 l 1,0,-1
EndSplineSet
EndChar
StartChar: endash
Encoding: 8211 8211 305
Width: 360
Flags: W
Fore
338 165 m 1,0,-1
 21 165 l 1,1,-1
 21 198 l 1,2,-1
 338 198 l 1,3,-1
 338 165 l 1,0,-1
EndSplineSet
EndChar
StartChar: emdash
Encoding: 8212 8212 306
Width: 720
Flags: W
Fore
695 165 m 1,0,-1
 22 165 l 1,1,-1
 22 198 l 1,2,-1
 695 198 l 1,3,-1
 695 165 l 1,0,-1
EndSplineSet
EndChar
StartChar: quoteleft
Encoding: 8216 8216 307
Width: 247
Flags: W
Fore
149 373 m 0,0,1
 149 357 149 357 138 345.5 c 128,-1,2
 127 334 127 334 112 334 c 0,3,4
 96 334 96 334 84.5 345.5 c 128,-1,5
 73 357 73 357 73 373 c 0,6,7
 73 433 73 433 112 479 c 0,8,9
 134 505 134 505 153 515 c 1,10,-1
 168 498 l 1,11,12
 112 462 112 462 108 408 c 1,13,14
 114 409 114 409 113 409 c 1,15,16
 127 409 127 409 138 398 c 128,-1,17
 149 387 149 387 149 373 c 0,0,1
EndSplineSet
EndChar
StartChar: quoteright
Encoding: 8217 8217 308
Width: 247
Flags: W
Fore
168 464 m 0,0,1
 168 404 168 404 130 358 c 0,2,3
 107 332 107 332 88 322 c 1,4,-1
 73 339 l 1,5,6
 129 375 129 375 133 429 c 1,7,8
 127 428 127 428 128 428 c 1,9,10
 114 428 114 428 103 439 c 128,-1,11
 92 450 92 450 92 464 c 0,12,13
 92 480 92 480 103 491.5 c 128,-1,14
 114 503 114 503 129 503 c 0,15,16
 146 503 146 503 157 492 c 128,-1,17
 168 481 168 481 168 464 c 0,0,1
EndSplineSet
EndChar
StartChar: quotesinglbase
Encoding: 8218 8218 309
Width: 247
Flags: W
Fore
168 31 m 0,0,1
 168 -29 168 -29 130 -75 c 0,2,3
 107 -101 107 -101 88 -111 c 1,4,-1
 73 -94 l 1,5,6
 129 -58 129 -58 133 -4 c 1,7,8
 129 -5 129 -5 126 -5 c 0,9,10
 109 -5 109 -5 100.5 6 c 128,-1,11
 92 17 92 17 92 31 c 0,12,13
 92 47 92 47 103 58.5 c 128,-1,14
 114 70 114 70 129 70 c 0,15,16
 146 70 146 70 157 59 c 128,-1,17
 168 48 168 48 168 31 c 0,0,1
EndSplineSet
EndChar
StartChar: quotedblleft
Encoding: 8220 8220 310
Width: 370
Flags: W
Fore
270 373 m 0,0,1
 270 357 270 357 259 345.5 c 128,-1,2
 248 334 248 334 233 334 c 0,3,4
 217 334 217 334 205.5 345.5 c 128,-1,5
 194 357 194 357 194 373 c 0,6,7
 194 433 194 433 233 479 c 0,8,9
 255 505 255 505 274 515 c 1,10,-1
 289 498 l 1,11,12
 233 462 233 462 229 408 c 1,13,14
 235 409 235 409 234 409 c 1,15,16
 248 409 248 409 259 398 c 128,-1,17
 270 387 270 387 270 373 c 0,0,1
154 373 m 0,18,19
 154 357 154 357 143 345.5 c 128,-1,20
 132 334 132 334 117 334 c 0,21,22
 101 334 101 334 89.5 345.5 c 128,-1,23
 78 357 78 357 78 373 c 0,24,25
 78 433 78 433 117 479 c 0,26,27
 139 505 139 505 158 515 c 1,28,-1
 173 498 l 1,29,30
 117 462 117 462 113 408 c 1,31,32
 119 409 119 409 118 409 c 1,33,34
 132 409 132 409 143 398 c 128,-1,35
 154 387 154 387 154 373 c 0,18,19
EndSplineSet
EndChar
